999
dxfrw 0.6.3
  0
SECTION
  2
HEADER
  9
$ACADVER
  1
AC1021
  9
$DWGCODEPAGE
  3
ANSI_1252
  9
$INSBASE
 10
0
 20
0
 30
0
  9
$EXTMIN
 10
-65.73641278524205
 20
-22.5
 30
0
  9
$EXTMAX
 10
65.73641278524205
 20
45.38710718501609
 30
0
  9
$LIMMIN
 10
0
 20
0
  9
$LIMMAX
 10
420
 20
297
  9
$ORTHOMODE
 70
    0
  9
$REGENMODE
 70
    1
  9
$FILLMODE
 70
    1
  9
$QTEXTMODE
 70
    0
  9
$MIRRTEXT
 70
    0
  9
$LTSCALE
 40
1
  9
$ATTMODE
 70
    0
  9
$TEXTSIZE
 40
2.5
  9
$TRACEWID
 40
15.68
  9
$TEXTSTYLE
  7
STANDARD
  9
$CLAYER
  8
text
  9
$CELTYPE
  6
BYLAYER
  9
$CECOLOR
 62
  256
  9
$CELTSCALE
 40
1
  9
$DISPSILH
 70
    0
  9
$DIMSCALE
 40
2.5
  9
$DIMASZ
 40
2.5
  9
$DIMEXO
 40
0.625
  9
$DIMDLI
 40
3.75
  9
$DIMRND
 40
0
  9
$DIMDLE
 40
0
  9
$DIMEXE
 40
1.25
  9
$DIMTP
 40
0
  9
$DIMTM
 40
0
  9
$DIMTXT
 40
2.5
  9
$DIMCEN
 40
2.5
  9
$DIMTSZ
 40
0
  9
$DIMTOL
 70
    0
  9
$DIMLIM
 70
    0
  9
$DIMTIH
 70
    0
  9
$DIMTOH
 70
    0
  9
$DIMSE1
 70
    0
  9
$DIMSE2
 70
    0
  9
$DIMTAD
 70
    1
  9
$DIMZIN
 70
    8
  9
$DIMBLK
  1

  9
$DIMASO
 70
    1
  9
$DIMSHO
 70
    1
  9
$DIMPOST
  1

  9
$DIMAPOST
  1

  9
$DIMALT
 70
    0
  9
$DIMALTD
 70
    3
  9
$DIMALTF
 40
0.03937
  9
$DIMLFAC
 40
1
  9
$DIMTOFL
 70
    1
  9
$DIMTVP
 40
0
  9
$DIMTIX
 70
    0
  9
$DIMSOXD
 70
    0
  9
$DIMSAH
 70
    0
  9
$DIMBLK1
  1

  9
$DIMBLK2
  1

  9
$DIMSTYLE
  2
Standard
  9
$DIMCLRD
 70
    0
  9
$DIMCLRE
 70
    0
  9
$DIMCLRT
 70
    0
  9
$DIMTFAC
 40
1
  9
$DIMGAP
 40
0.625
  9
$DIMJUST
 70
    0
  9
$DIMSD1
 70
    0
  9
$DIMSD2
 70
    0
  9
$DIMTOLJ
 70
    0
  9
$DIMTZIN
 70
    8
  9
$DIMALTZ
 70
    0
  9
$DIMALTTZ
 70
    0
  9
$DIMUPT
 70
    0
  9
$DIMDEC
 70
    2
  9
$DIMTDEC
 70
    2
  9
$DIMALTU
 70
    2
  9
$DIMALTTD
 70
    3
  9
$DIMTXSTY
  7
STANDARD
  9
$DIMAUNIT
 70
    0
  9
$DIMADEC
 70
    0
  9
$DIMALTRND
 40
0
  9
$DIMAZIN
 70
    0
  9
$DIMDSEP
 70
   44
  9
$DIMATFIT
 70
    3
  9
$DIMFRAC
 70
    0
  9
$DIMLDRBLK
  1
STANDARD
  9
$DIMLUNIT
 70
    2
  9
$DIMLWD
 70
   -2
  9
$DIMLWE
 70
   -2
  9
$DIMTMOVE
 70
    0
  9
$DIMFXL
 40
1
  9
$DIMFXLON
 70
    0
  9
$DIMJOGANG
 40
0.7854
  9
$DIMTFILL
 70
    0
  9
$DIMTFILLCLR
 70
    0
  9
$DIMARCSYM
 70
    0
  9
$DIMLTYPE
  6

  9
$DIMLTEX1
  6

  9
$DIMLTEX2
  6

  9
$LUNITS
 70
    2
  9
$LUPREC
 70
    4
  9
$SKETCHINC
 40
1
  9
$FILLETRAD
 40
0
  9
$AUNITS
 70
    0
  9
$AUPREC
 70
    2
  9
$MENU
  1
.
  9
$ELEVATION
 40
0
  9
$PELEVATION
 40
0
  9
$THICKNESS
 40
0
  9
$LIMCHECK
 70
    0
  9
$CHAMFERA
 40
0
  9
$CHAMFERB
 40
0
  9
$CHAMFERC
 40
0
  9
$CHAMFERD
 40
0
  9
$SKPOLY
 70
    0
  9
$USRTIMER
 70
    1
  9
$ANGBASE
 50
0
  9
$ANGDIR
 70
    0
  9
$PDMODE
 70
   34
  9
$PDSIZE
 40
0
  9
$PLINEWID
 40
0
  9
$SPLFRAME
 70
    0
  9
$SPLINETYPE
 70
    2
  9
$SPLINESEGS
 70
    8
  9
$HANDSEED
  5
20000
  9
$SURFTAB1
 70
    6
  9
$SURFTAB2
 70
    6
  9
$SURFTYPE
 70
    6
  9
$SURFU
 70
    6
  9
$SURFV
 70
    6
  9
$UCSBASE
  2

  9
$UCSNAME
  2

  9
$UCSORG
 10
0
 20
0
 30
0
  9
$UCSXDIR
 10
1
 20
0
 30
0
  9
$UCSYDIR
 10
0
 20
1
 30
0
  9
$UCSORTHOREF
  2

  9
$UCSORTHOVIEW
 70
    0
  9
$UCSORGTOP
 10
0
 20
0
 30
0
  9
$UCSORGBOTTOM
 10
0
 20
0
 30
0
  9
$UCSORGLEFT
 10
0
 20
0
 30
0
  9
$UCSORGRIGHT
 10
0
 20
0
 30
0
  9
$UCSORGFRONT
 10
0
 20
0
 30
0
  9
$UCSORGBACK
 10
0
 20
0
 30
0
  9
$PUCSBASE
  2

  9
$PUCSNAME
  2

  9
$PUCSORG
 10
0
 20
0
 30
0
  9
$PUCSXDIR
 10
1
 20
0
 30
0
  9
$PUCSYDIR
 10
0
 20
1
 30
0
  9
$PUCSORTHOREF
  2

  9
$PUCSORTHOVIEW
 70
    0
  9
$PUCSORGTOP
 10
0
 20
0
 30
0
  9
$PUCSORGBOTTOM
 10
0
 20
0
 30
0
  9
$PUCSORGLEFT
 10
0
 20
0
 30
0
  9
$PUCSORGRIGHT
 10
0
 20
0
 30
0
  9
$PUCSORGFRONT
 10
0
 20
0
 30
0
  9
$PUCSORGBACK
 10
0
 20
0
 30
0
  9
$USERI1
 70
    0
  9
$USERI2
 70
    0
  9
$USERI3
 70
    0
  9
$USERI4
 70
    0
  9
$USERI5
 70
    0
  9
$USERR1
 40
0
  9
$USERR2
 40
0
  9
$USERR3
 40
0
  9
$USERR4
 40
0
  9
$USERR5
 40
0
  9
$WORLDVIEW
 70
    1
  9
$SHADEDGE
 70
    3
  9
$SHADEDIF
 70
   70
  9
$TILEMODE
 70
    1
  9
$MAXACTVP
 70
   64
  9
$PINSBASE
 10
0
 20
0
 30
0
  9
$PLIMCHECK
 70
    0
  9
$PEXTMIN
 10
0
 20
0
 30
0
  9
$PEXTMAX
 10
0
 20
0
 30
0
  9
$GRIDMODE
 70
    1
  9
$SNAPSTYLE
 70
    0
  9
$PLIMMIN
 10
0
 20
0
  9
$PLIMMAX
 10
210
 20
297
  9
$UNITMODE
 70
    0
  9
$VISRETAIN
 70
    1
  9
$PLINEGEN
 70
    0
  9
$PSLTSCALE
 70
    1
  9
$TREEDEPTH
 70
 3020
  9
$CMLSTYLE
  2
Standard
  9
$CMLJUST
 70
    0
  9
$CMLSCALE
 40
20
  9
$PROXYGRAPHICS
 70
    1
  9
$MEASUREMENT
 70
    1
  9
$CELWEIGHT
370
   -1
  9
$ENDCAPS
280
    0
  9
$JOINSTYLE
280
    0
  9
$LWDISPLAY
290
    0
  9
$INSUNITS
 70
    4
  9
$HYPERLINKBASE
  1

  9
$STYLESHEET
  1

  9
$XEDIT
290
    1
  9
$CEPSNTYPE
380
    0
  9
$PSTYLEMODE
290
    1
  9
$EXTNAMES
290
    1
  9
$PSVPSCALE
 40
1
  9
$OLESTARTUP
290
    0
  9
$SORTENTS
280
  127
  9
$INDEXCTL
280
    0
  9
$HIDETEXT
280
    1
  9
$XCLIPFRAME
290
    0
  9
$HALOGAP
280
    0
  9
$OBSCOLOR
 70
  257
  9
$OBSLTYPE
280
    0
  9
$INTERSECTIONDISPLAY
280
    0
  9
$INTERSECTIONCOLOR
 70
  257
  9
$DIMASSOC
280
    1
  9
$PROJECTNAME
  1

  9
$CAMERADISPLAY
290
    0
  9
$LENSLENGTH
 40
50
  9
$CAMERAHEIGHT
 40
0
  9
$STEPSPERSEC
 40
2
  9
$STEPSIZE
 40
50
  9
$3DDWFPREC
 40
2
  9
$PSOLWIDTH
 40
5
  9
$PSOLHEIGHT
 40
80
  9
$LOFTANG1
 40
1.570796326794897
  9
$LOFTANG2
 40
1.570796326794897
  9
$LOFTMAG1
 40
0
  9
$LOFTMAG2
 40
0
  9
$LOFTPARAM
 70
    7
  9
$LOFTNORMALS
280
    1
  9
$LATITUDE
 40
1
  9
$LONGITUDE
 40
1
  9
$NORTHDIRECTION
 40
0
  9
$TIMEZONE
 70
-8000
  9
$LIGHTGLYPHDISPLAY
280
    1
  9
$TILEMODELIGHTSYNCH
280
    1
  9
$SOLIDHIST
280
    1
  9
$SHOWHIST
280
    1
  9
$DWFFRAME
280
    2
  9
$DGNFRAME
280
    0
  9
$REALWORLDSCALE
290
    1
  9
$INTERFERECOLOR
 62
    1
  9
$CSHADOW
280
    0
  9
$SHADOWPLANELOCATION
 40
0
  0
ENDSEC
  0
SECTION
  2
CLASSES
  0
ENDSEC
  0
SECTION
  2
TABLES
  0
TABLE
  2
VPORT
  5
8
330
0
100
AcDbSymbolTable
 70
    1
  0
VPORT
  5
31
330
2
100
AcDbSymbolTableRecord
100
AcDbViewportTableRecord
  2
*ACTIVE
 70
    0
 10
0
 20
0
 11
1
 21
1
 12
50.77963477135464
 22
29.20952442600045
 13
0
 23
0
 14
10
 24
10
 15
10
 25
10
 16
0
 26
0
 36
1
 17
0
 27
0
 37
0
 40
112.7937020142479
 41
1.852589641434263
 42
50
 43
0
 44
0
 50
0
 51
0
 71
    0
 72
  100
 73
    1
 74
    3
 75
    0
 76
    1
 77
    0
 78
    0
281
    0
 65
    1
110
0
120
0
130
0
111
1
121
0
131
0
112
0
122
1
132
0
 79
    0
146
0
348
10020
 60
    7
 61
    5
292
1
282
    1
141
0
142
0
 63
  250
421
3358443
  0
ENDTAB
  0
TABLE
  2
LTYPE
  5
5
330
0
100
AcDbSymbolTable
 70
    4
  0
LTYPE
  5
14
330
5
100
AcDbSymbolTableRecord
100
AcDbLinetypeTableRecord
  2
ByBlock
 70
    0
  3

 72
   65
 73
    0
 40
0
  0
LTYPE
  5
15
330
5
100
AcDbSymbolTableRecord
100
AcDbLinetypeTableRecord
  2
ByLayer
 70
    0
  3

 72
   65
 73
    0
 40
0
  0
LTYPE
  5
16
330
5
100
AcDbSymbolTableRecord
100
AcDbLinetypeTableRecord
  2
Continuous
 70
    0
  3
Solid line
 72
   65
 73
    0
 40
0
  0
LTYPE
  5
32
330
5
100
AcDbSymbolTableRecord
100
AcDbLinetypeTableRecord
  2
DOT
 70
    0
  3
Dot . . . . . . . . . . . . . . . . . . . . . .
 72
   65
 73
    2
 40
6.35
 49
0
 74
    0
 49
-6.35
 74
    0
  0
LTYPE
  5
33
330
5
100
AcDbSymbolTableRecord
100
AcDbLinetypeTableRecord
  2
DOTTINY
 70
    0
  3
Dot (.15x) .....................................
 72
   65
 73
    2
 40
0.9525
 49
0
 74
    0
 49
-0.9525
 74
    0
  0
LTYPE
  5
34
330
5
100
AcDbSymbolTableRecord
100
AcDbLinetypeTableRecord
  2
DOT2
 70
    0
  3
Dot (.5x) .....................................
 72
   65
 73
    2
 40
3.175
 49
0
 74
    0
 49
-3.175
 74
    0
  0
LTYPE
  5
35
330
5
100
AcDbSymbolTableRecord
100
AcDbLinetypeTableRecord
  2
DOTX2
 70
    0
  3
Dot (2x) .  .  .  .  .  .  .  .  .  .  .  .  .
 72
   65
 73
    2
 40
12.7
 49
0
 74
    0
 49
-12.7
 74
    0
  0
LTYPE
  5
36
330
5
100
AcDbSymbolTableRecord
100
AcDbLinetypeTableRecord
  2
DASHED
 70
    0
  3
Dashed _ _ _ _ _ _ _ _ _ _ _ _ _ _ _ _ _
 72
   65
 73
    2
 40
19.05
 49
12.7
 74
    0
 49
-6.35
 74
    0
  0
LTYPE
  5
37
330
5
100
AcDbSymbolTableRecord
100
AcDbLinetypeTableRecord
  2
DASHEDTINY
 70
    0
  3
Dashed (.15x) _ _ _ _ _ _ _ _ _ _ _ _ _ _ _ _ _
 72
   65
 73
    2
 40
2.8575
 49
1.905
 74
    0
 49
-0.9525
 74
    0
  0
LTYPE
  5
38
330
5
100
AcDbSymbolTableRecord
100
AcDbLinetypeTableRecord
  2
DASHED2
 70
    0
  3
Dashed (.5x) _ _ _ _ _ _ _ _ _ _ _ _ _ _ _ _ _
 72
   65
 73
    2
 40
9.524999999999999
 49
6.35
 74
    0
 49
-3.175
 74
    0
  0
LTYPE
  5
39
330
5
100
AcDbSymbolTableRecord
100
AcDbLinetypeTableRecord
  2
DASHEDX2
 70
    0
  3
Dashed (2x) ____  ____  ____  ____  ____  ___
 72
   65
 73
    2
 40
38.09999999999999
 49
25.4
 74
    0
 49
-12.7
 74
    0
  0
LTYPE
  5
3A
330
5
100
AcDbSymbolTableRecord
100
AcDbLinetypeTableRecord
  2
DASHDOT
 70
    0
  3
Dash dot __ . __ . __ . __ . __ . __ . __ . __
 72
   65
 73
    4
 40
25.4
 49
12.7
 74
    0
 49
-6.35
 74
    0
 49
0
 74
    0
 49
-6.35
 74
    0
  0
LTYPE
  5
3B
330
5
100
AcDbSymbolTableRecord
100
AcDbLinetypeTableRecord
  2
DASHDOTTINY
 70
    0
  3
Dash dot (.15x) _._._._._._._._._._._._._._._.
 72
   65
 73
    4
 40
3.81
 49
1.905
 74
    0
 49
-0.9525
 74
    0
 49
0
 74
    0
 49
-0.9525
 74
    0
  0
LTYPE
  5
3C
330
5
100
AcDbSymbolTableRecord
100
AcDbLinetypeTableRecord
  2
DASHDOT2
 70
    0
  3
Dash dot (.5x) _._._._._._._._._._._._._._._.
 72
   65
 73
    4
 40
12.7
 49
6.35
 74
    0
 49
-3.175
 74
    0
 49
0
 74
    0
 49
-3.175
 74
    0
  0
LTYPE
  5
3D
330
5
100
AcDbSymbolTableRecord
100
AcDbLinetypeTableRecord
  2
DASHDOTX2
 70
    0
  3
Dash dot (2x) ____  .  ____  .  ____  .  ___
 72
   65
 73
    4
 40
50.8
 49
25.4
 74
    0
 49
-12.7
 74
    0
 49
0
 74
    0
 49
-12.7
 74
    0
  0
LTYPE
  5
3E
330
5
100
AcDbSymbolTableRecord
100
AcDbLinetypeTableRecord
  2
DIVIDE
 70
    0
  3
Divide ____ . . ____ . . ____ . . ____ . . ____
 72
   65
 73
    6
 40
31.75
 49
12.7
 74
    0
 49
-6.35
 74
    0
 49
0
 74
    0
 49
-6.35
 74
    0
 49
0
 74
    0
 49
-6.35
 74
    0
  0
LTYPE
  5
3F
330
5
100
AcDbSymbolTableRecord
100
AcDbLinetypeTableRecord
  2
DIVIDETINY
 70
    0
  3
Divide (.15x) __..__..__..__..__..__..__..__.._
 72
   65
 73
    6
 40
4.7625
 49
1.905
 74
    0
 49
-0.9525
 74
    0
 49
0
 74
    0
 49
-0.9525
 74
    0
 49
0
 74
    0
 49
-0.9525
 74
    0
  0
LTYPE
  5
40
330
5
100
AcDbSymbolTableRecord
100
AcDbLinetypeTableRecord
  2
DIVIDE2
 70
    0
  3
Divide (.5x) __..__..__..__..__..__..__..__.._
 72
   65
 73
    6
 40
15.875
 49
6.35
 74
    0
 49
-3.175
 74
    0
 49
0
 74
    0
 49
-3.175
 74
    0
 49
0
 74
    0
 49
-3.175
 74
    0
  0
LTYPE
  5
41
330
5
100
AcDbSymbolTableRecord
100
AcDbLinetypeTableRecord
  2
DIVIDEX2
 70
    0
  3
Divide (2x) ________  .  .  ________  .  .  _
 72
   65
 73
    6
 40
63.5
 49
25.4
 74
    0
 49
-12.7
 74
    0
 49
0
 74
    0
 49
-12.7
 74
    0
 49
0
 74
    0
 49
-12.7
 74
    0
  0
LTYPE
  5
42
330
5
100
AcDbSymbolTableRecord
100
AcDbLinetypeTableRecord
  2
BORDER
 70
    0
  3
Border __ __ . __ __ . __ __ . __ __ . __ __ .
 72
   65
 73
    6
 40
44.45
 49
12.7
 74
    0
 49
-6.35
 74
    0
 49
12.7
 74
    0
 49
-6.35
 74
    0
 49
0
 74
    0
 49
-6.35
 74
    0
  0
LTYPE
  5
43
330
5
100
AcDbSymbolTableRecord
100
AcDbLinetypeTableRecord
  2
BORDERTINY
 70
    0
  3
Border (.15x) __.__.__.__.__.__.__.__.__.__.__.
 72
   65
 73
    6
 40
6.6675
 49
1.905
 74
    0
 49
-0.9525
 74
    0
 49
1.905
 74
    0
 49
-0.9525
 74
    0
 49
0
 74
    0
 49
-0.9525
 74
    0
  0
LTYPE
  5
44
330
5
100
AcDbSymbolTableRecord
100
AcDbLinetypeTableRecord
  2
BORDER2
 70
    0
  3
Border (.5x) __.__.__.__.__.__.__.__.__.__.__.
 72
   65
 73
    6
 40
22.225
 49
6.35
 74
    0
 49
-3.175
 74
    0
 49
6.35
 74
    0
 49
-3.175
 74
    0
 49
0
 74
    0
 49
-3.175
 74
    0
  0
LTYPE
  5
45
330
5
100
AcDbSymbolTableRecord
100
AcDbLinetypeTableRecord
  2
BORDERX2
 70
    0
  3
Border (2x) ____  ____  .  ____  ____  .  ___
 72
   65
 73
    6
 40
88.89999999999999
 49
25.4
 74
    0
 49
-12.7
 74
    0
 49
25.4
 74
    0
 49
-12.7
 74
    0
 49
0
 74
    0
 49
-12.7
 74
    0
  0
LTYPE
  5
46
330
5
100
AcDbSymbolTableRecord
100
AcDbLinetypeTableRecord
  2
CENTER
 70
    0
  3
Center ____ _ ____ _ ____ _ ____ _ ____ _ ____
 72
   65
 73
    4
 40
50.8
 49
31.75
 74
    0
 49
-6.35
 74
    0
 49
6.35
 74
    0
 49
-6.35
 74
    0
  0
LTYPE
  5
47
330
5
100
AcDbSymbolTableRecord
100
AcDbLinetypeTableRecord
  2
CENTERTINY
 70
    0
  3
Center (.15x) ___ _ ___ _ ___ _ ___ _ ___ _ ___
 72
   65
 73
    4
 40
7.619999999999999
 49
4.7625
 74
    0
 49
-0.9525
 74
    0
 49
0.9525
 74
    0
 49
-0.9525
 74
    0
  0
LTYPE
  5
48
330
5
100
AcDbSymbolTableRecord
100
AcDbLinetypeTableRecord
  2
CENTER2
 70
    0
  3
Center (.5x) ___ _ ___ _ ___ _ ___ _ ___ _ ___
 72
   65
 73
    4
 40
28.575
 49
19.05
 74
    0
 49
-3.175
 74
    0
 49
3.175
 74
    0
 49
-3.175
 74
    0
  0
LTYPE
  5
49
330
5
100
AcDbSymbolTableRecord
100
AcDbLinetypeTableRecord
  2
CENTERX2
 70
    0
  3
Center (2x) ________  __  ________  __  _____
 72
   65
 73
    4
 40
101.6
 49
63.5
 74
    0
 49
-12.7
 74
    0
 49
12.7
 74
    0
 49
-12.7
 74
    0
  0
ENDTAB
  0
TABLE
  2
LAYER
  5
2
330
0
100
AcDbSymbolTable
 70
    1
  0
LAYER
  5
10
330
2
100
AcDbSymbolTableRecord
100
AcDbLayerTableRecord
  2
0
 70
    0
 62
    7
  6
CONTINUOUS
370
   -3
390
F
  0
LAYER
  5
4A
330
2
100
AcDbSymbolTableRecord
100
AcDbLayerTableRecord
  2
bathtub
 70
    0
 62
    7
  6
CONTINUOUS
370
    0
390
F
  0
LAYER
  5
4B
330
2
100
AcDbSymbolTableRecord
100
AcDbLayerTableRecord
  2
colmns details
 70
    0
 62
    7
  6
CONTINUOUS
370
    0
390
F
  0
LAYER
  5
4C
330
2
100
AcDbSymbolTableRecord
100
AcDbLayerTableRecord
  2
columns
 70
    0
 62
    7
  6
CONTINUOUS
370
    0
390
F
  0
LAYER
  5
4D
330
2
100
AcDbSymbolTableRecord
100
AcDbLayerTableRecord
  2
text
 70
    0
 62
    7
  6
CONTINUOUS
370
    0
390
F
  0
ENDTAB
  0
TABLE
  2
STYLE
  5
3
330
0
100
AcDbSymbolTable
 70
    3
  0
STYLE
  5
4E
330
2
100
AcDbSymbolTableRecord
100
AcDbTextStyleTableRecord
  2
Standard
 70
    0
 40
0
 41
1
 50
0
 71
    0
 42
1
  3
txt
  4

  0
ENDTAB
  0
TABLE
  2
VIEW
  5
6
330
0
100
AcDbSymbolTable
 70
    0
  0
ENDTAB
  0
TABLE
  2
UCS
  5
7
330
0
100
AcDbSymbolTable
 70
    0
  0
ENDTAB
  0
TABLE
  2
APPID
  5
9
330
0
100
AcDbSymbolTable
 70
    1
  0
APPID
  5
12
330
9
100
AcDbSymbolTableRecord
100
AcDbRegAppTableRecord
  2
ACAD
 70
    0
  0
APPID
  5
4F
330
9
100
AcDbSymbolTableRecord
100
AcDbRegAppTableRecord
  2
LibreCad
 70
    0
  0
ENDTAB
  0
TABLE
  2
DIMSTYLE
  5
A
330
0
100
AcDbSymbolTable
 70
    1
100
AcDbDimStyleTable
 71
    1
  0
DIMSTYLE
105
50
330
A
100
AcDbSymbolTableRecord
100
AcDbDimStyleTableRecord
  2
Standard
 70
    0
 40
2.5
 41
2.5
 42
0.625
 43
0.38
 44
1.25
 45
0
 46
0
 47
0
 48
0
 49
1
140
2.5
141
0.09
142
0
143
25.4
144
1
145
0
146
1
147
0.625
148
0
 71
    0
 72
    0
 73
    0
 74
    1
 75
    0
 76
    0
 77
    0
 78
    8
 79
    0
170
    0
171
    2
172
    0
173
    0
174
    0
175
    0
176
    0
177
    0
178
    0
179
    0
271
    2
272
    4
273
    2
274
    2
275
    0
276
    0
277
    2
278
   44
279
    0
280
    0
281
    0
282
    0
283
    1
284
    0
285
    0
286
    0
288
    0
289
    3
340
STANDARD
341

371
   -2
372
   -2
  0
ENDTAB
  0
TABLE
  2
BLOCK_RECORD
  5
1
330
0
100
AcDbSymbolTable
 70
    2
  0
BLOCK_RECORD
  5
1F
330
1
100
AcDbSymbolTableRecord
100
AcDbBlockTableRecord
  2
*Model_Space
 70
    0
280
    1
281
    0
  0
BLOCK_RECORD
  5
1E
330
1
100
AcDbSymbolTableRecord
100
AcDbBlockTableRecord
  2
*Paper_Space
 70
    0
280
    1
281
    0
  0
ENDTAB
  0
ENDSEC
  0
SECTION
  2
BLOCKS
  0
BLOCK
  5
20
330
1F
100
AcDbEntity
  8
0
100
AcDbBlockBegin
  2
*Model_Space
 70
    0
 10
0
 20
0
 30
0
  3
*Model_Space
  1

  0
ENDBLK
  5
21
330
1F
100
AcDbEntity
  8
0
100
AcDbBlockEnd
  0
BLOCK
  5
1C
330
1B
100
AcDbEntity
  8
0
100
AcDbBlockBegin
  2
*Paper_Space
 70
    0
 10
0
 20
0
 30
0
  3
*Paper_Space
  1

  0
ENDBLK
  5
1D
330
1F
100
AcDbEntity
  8
0
100
AcDbBlockEnd
  0
ENDSEC
  0
SECTION
  2
ENTITIES
  0
LINE
  5
51
100
AcDbEntity
  8
text
  6
ByLayer
 62
  256
370
   -1
100
AcDbLine
 10
31.18576116115381
 20
8.078029757556745
 11
31.18680602824385
 21
7.339353710122842
  0
LINE
  5
52
100
AcDbEntity
  8
text
  6
ByLayer
 62
  256
370
   -1
100
AcDbLine
 10
-9.459817463414542
 20
1.351539716026577
 11
-9.464381358390472
 21
4.578016972191921
  0
SPLINE
  5
53
100
AcDbEntity
  8
text
  6
ByLayer
 62
  256
370
   -1
100
AcDbSpline
210
0
220
0
230
0
 70
    8
 71
    3
 72
    9
 73
    5
 74
    0
 42
1e-07
 43
1e-07
 40
0
 40
0
 40
0
 40
0
 40
0.06672317114752557
 40
0.1460237340629479
 40
0.1460237340629479
 40
0.1460237340629479
 40
0.1460237340629479
 10
-23.03709073876623
 20
-1.915056175508432
 30
0
 10
-23.25806422933444
 20
-1.941740128240523
 30
0
 10
-23.74166495853763
 20
-2.000137988391453
 30
0
 10
-24.2288388768511
 20
-2.005043910833804
 30
0
 10
-24.49340659392726
 20
-2.007708151779246
 30
0
  0
LINE
  5
54
100
AcDbEntity
  8
text
  6
ByLayer
 62
  256
370
   -1
100
AcDbLine
 10
-24.49340659392726
 20
-2.007708151779247
 11
-28.65376032567079
 21
-1.957843555321741
  0
SPLINE
  5
55
100
AcDbEntity
  8
text
  6
ByLayer
 62
  256
370
   -1
100
AcDbSpline
210
0
220
0
230
0
 70
    8
 71
    3
 72
    9
 73
    5
 74
    0
 42
1e-07
 43
1e-07
 40
0
 40
0
 40
0
 40
0
 40
0.05019371091154686
 40
0.1826638009851436
 40
0.1826638009851436
 40
0.1826638009851436
 40
0.1826638009851436
 10
-28.65376032567079
 20
-1.957843555321741
 30
0
 10
-28.82100415049516
 20
-1.962638882219143
 30
0
 10
-29.42963404015504
 20
-1.980089925828752
 30
0
 10
-30.03815616979849
 20
-2.001006526979943
 30
0
 10
-30.47946408571229
 20
-2.016175509688001
 30
0
  0
LINE
  5
56
100
AcDbEntity
  8
text
  6
ByLayer
 62
  256
370
   -1
100
AcDbLine
 10
-30.47946408571229
 20
-2.016175509688001
 11
-30.48008509033576
 21
-1.577151977339817
  0
SPLINE
  5
57
100
AcDbEntity
  8
text
  6
ByLayer
 62
  256
370
   -1
100
AcDbSpline
210
0
220
0
230
0
 70
    8
 71
    3
 72
    9
 73
    5
 74
    0
 42
1e-07
 43
1e-07
 40
0
 40
0
 40
0
 40
0
 40
0.06070827000012573
 40
0.09714070884623152
 40
0.09714070884623152
 40
0.09714070884623152
 40
0.09714070884623152
 10
-30.48008509033576
 20
-1.577151977339817
 30
0
 10
-30.27652994827993
 20
-1.577053854815764
 30
0
 10
-29.95081665108733
 20
-1.576896846692488
 30
0
 10
-29.63646681840196
 20
-1.495005974447721
 30
0
 10
-29.51857050910364
 20
-1.464292957932321
 30
0
  0
SPLINE
  5
58
100
AcDbEntity
  8
text
  6
ByLayer
 62
  256
370
   -1
100
AcDbSpline
210
0
220
0
230
0
 70
    8
 71
    3
 72
    9
 73
    5
 74
    0
 42
1e-07
 43
1e-07
 40
0
 40
0
 40
0
 40
0
 40
0.009954649736800981
 40
0.0195745469013102
 40
0.0195745469013102
 40
0.0195745469013102
 40
0.0195745469013102
 10
-29.51857050910364
 20
-1.464292957932321
 30
0
 10
-29.48852035361775
 20
-1.448546850615875
 30
0
 10
-29.42943056206278
 20
-1.417584142300843
 30
0
 10
-29.39587596866262
 20
-1.35999401022318
 30
0
 10
-29.3793855875808
 20
-1.331691380738533
 30
0
  0
SPLINE
  5
59
100
AcDbEntity
  8
text
  6
ByLayer
 62
  256
370
   -1
100
AcDbSpline
210
0
220
0
230
0
 70
    8
 71
    3
 72
    9
 73
    5
 74
    0
 42
1e-07
 43
1e-07
 40
0
 40
0
 40
0
 40
0
 40
0.02594643629227188
 40
0.07400888611993636
 40
0.07400888611993636
 40
0.07400888611993636
 40
0.07400888611993636
 10
-29.3793855875808
 20
-1.331691380738533
 30
0
 10
-29.3575079787121
 20
-1.247808131182957
 30
0
 10
-29.29510490165358
 20
-1.00854190618783
 30
0
 10
-29.28768100018665
 20
-0.7607604095052967
 30
0
 10
-29.28285981032032
 20
-0.5998474924641162
 30
0
  0
SPLINE
  5
5A
100
AcDbEntity
  8
text
  6
ByLayer
 62
  256
370
   -1
100
AcDbSpline
210
0
220
0
230
0
 70
    8
 71
    3
 72
    9
 73
    5
 74
    0
 42
1e-07
 43
1e-07
 40
0
 40
0
 40
0
 40
0
 40
0.08577168594113224
 40
0.1589498129075702
 40
0.1589498129075702
 40
0.1589498129075702
 40
0.1589498129075702
 10
-29.28285981032032
 20
-0.5998474924641162
 30
0
 10
-29.27109233525171
 20
-0.3141597992628942
 30
0
 10
-29.2492851626396
 20
0.2152690546306379
 30
0
 10
-29.24518396396364
 20
0.7451231477109488
 30
0
 10
-29.24329583316351
 20
0.9890600821926832
 30
0
  0
LINE
  5
5B
100
AcDbEntity
  8
text
  6
ByLayer
 62
  256
370
   -1
100
AcDbLine
 10
-29.24329583316351
 20
0.9890600821926832
 11
-29.24833287572369
 21
4.550032309736434
  0
SPLINE
  5
5C
100
AcDbEntity
  8
text
  6
ByLayer
 62
  256
370
   -1
100
AcDbSpline
210
0
220
0
230
0
 70
    8
 71
    3
 72
    9
 73
    5
 74
    0
 42
1e-07
 43
1e-07
 40
0
 40
0
 40
0
 40
0
 40
0.09372970129756301
 40
0.1853807259454062
 40
0.1853807259454062
 40
0.1853807259454062
 40
0.1853807259454062
 10
-29.24833287572369
 20
4.550032309736434
 30
0
 10
-29.24960601000529
 20
4.862468634090074
 30
0
 10
-29.25212404382044
 20
5.480412272217268
 30
0
 10
-29.26533111828871
 20
6.098219545127535
 30
0
 10
-29.27186060996831
 20
6.403659440825162
 30
0
  0
SPLINE
  5
5D
100
AcDbEntity
  8
text
  6
ByLayer
 62
  256
370
   -1
100
AcDbSpline
210
0
220
0
230
0
 70
    8
 71
    3
 72
    9
 73
    5
 74
    0
 42
1e-07
 43
1e-07
 40
0
 40
0
 40
0
 40
0
 40
0.05274030545857755
 40
0.07906766040603283
 40
0.07906766040603283
 40
0.07906766040603283
 40
0.07906766040603283
 10
-29.27186060996831
 20
6.403659440825162
 30
0
 10
-29.27324212527358
 20
6.580880131891749
 30
0
 10
-29.27531327715738
 20
6.846567357180584
 30
0
 10
-29.35196984471081
 20
7.099709193070161
 30
0
 10
-29.37749437209241
 20
7.183998457875664
 30
0
  0
SPLINE
  5
5E
100
AcDbEntity
  8
text
  6
ByLayer
 62
  256
370
   -1
100
AcDbSpline
210
0
220
0
230
0
 70
    8
 71
    3
 72
    9
 73
    5
 74
    0
 42
1e-07
 43
1e-07
 40
0
 40
0
 40
0
 40
0
 40
0.01491055011674208
 40
0.03205544027840872
 40
0.03205544027840872
 40
0.03205544027840872
 40
0.03205544027840872
 10
-29.37749437209241
 20
7.183998457875664
 30
0
 10
-29.4093277244657
 20
7.223398608996749
 30
0
 10
-29.4777646444904
 20
7.30810300832029
 30
0
 10
-29.58059202227563
 20
7.345054837742362
 30
0
 10
-29.63558936695186
 20
7.36481856743104
 30
0
  0
SPLINE
  5
5F
100
AcDbEntity
  8
text
  6
ByLayer
 62
  256
370
   -1
100
AcDbSpline
210
0
220
0
230
0
 70
    8
 71
    3
 72
    9
 73
    5
 74
    0
 42
1e-07
 43
1e-07
 40
0
 40
0
 40
0
 40
0
 40
0.03417350397329805
 40
0.1007752842018697
 40
0.1007752842018697
 40
0.1007752842018697
 40
0.1007752842018697
 10
-29.63558936695186
 20
7.36481856743104
 30
0
 10
-29.74807860923706
 20
7.38359779436764
 30
0
 10
-30.07980155370896
 20
7.438976427273003
 30
0
 10
-30.41659605447938
 20
7.439624979089614
 30
0
 10
-30.63918151777186
 20
7.440053603091017
 30
0
  0
LINE
  5
60
100
AcDbEntity
  8
text
  6
ByLayer
 62
  256
370
   -1
100
AcDbLine
 10
-30.63918151777186
 20
7.440053603091017
 11
-30.63981238009335
 21
7.886046103534423
  0
LINE
  5
61
100
AcDbEntity
  8
text
  6
ByLayer
 62
  256
370
   -1
100
AcDbLine
 10
-30.63981238009335
 20
7.886046103534423
 11
-28.65369269747628
 21
7.847043988185396
  0
LINE
  5
62
100
AcDbEntity
  8
text
  6
ByLayer
 62
  256
370
   -1
100
AcDbLine
 10
-28.65369269747628
 20
7.847043988185396
 11
-26.54921375438375
 21
7.88486392368434
  0
SPLINE
  5
63
100
AcDbEntity
  8
text
  6
ByLayer
 62
  256
370
   -1
100
AcDbSpline
210
0
220
0
230
0
 70
    8
 71
    3
 72
    9
 73
    5
 74
    0
 42
1e-07
 43
1e-07
 40
0
 40
0
 40
0
 40
0
 40
0.1304971001585317
 40
0.2195230588617442
 40
0.2195230588617442
 40
0.2195230588617442
 40
0.2195230588617442
 10
-26.54921375438375
 20
7.88486392368434
 30
0
 10
-26.11427087597156
 20
7.891500011120676
 30
0
 10
-25.38260717629406
 20
7.902663279968252
 30
0
 10
-24.6508736221773
 20
7.907082484750592
 30
0
 10
-24.35412447195895
 20
7.908874660681877
 30
0
  0
SPLINE
  5
64
100
AcDbEntity
  8
text
  6
ByLayer
 62
  256
370
   -1
100
AcDbSpline
210
0
220
0
230
0
 70
    8
 71
    3
 72
    9
 73
    5
 74
    0
 42
1e-07
 43
1e-07
 40
0
 40
0
 40
0
 40
0
 40
0.06710059681588314
 40
0.1306017886996167
 40
0.1306017886996167
 40
0.1306017886996167
 40
0.1306017886996167
 10
-24.35412447195895
 20
7.908874660681877
 30
0
 10
-24.13033074875747
 20
7.906364347664794
 30
0
 10
-23.69474802763712
 20
7.901478379643878
 30
0
 10
-23.26152342962391
 20
7.856118407868835
 30
0
 10
-23.05088099814494
 20
7.834063485802241
 30
0
  0
SPLINE
  5
65
100
AcDbEntity
  8
text
  6
ByLayer
 62
  256
370
   -1
100
AcDbSpline
210
0
220
0
230
0
 70
    8
 71
    3
 72
    9
 73
    5
 74
    0
 42
1e-07
 43
1e-07
 40
0
 40
0
 40
0
 40
0
 40
0.03828199271879998
 40
0.07070911502343966
 40
0.07070911502343966
 40
0.07070911502343966
 40
0.07070911502343966
 10
-23.05088099814494
 20
7.834063485802241
 30
0
 10
-23.08424438978815
 20
7.710800764824715
 30
0
 10
-23.14586855639305
 20
7.483127195694612
 30
0
 10
-23.18518486302093
 20
7.250591967366584
 30
0
 10
-23.20321527795635
 20
7.143951567658138
 30
0
  0
SPLINE
  5
66
100
AcDbEntity
  8
text
  6
ByLayer
 62
  256
370
   -1
100
AcDbSpline
210
0
220
0
230
0
 70
    8
 71
    3
 72
    9
 73
    5
 74
    0
 42
1e-07
 43
1e-07
 40
0
 40
0
 40
0
 40
0
 40
0.03955890662053718
 40
0.145492564411183
 40
0.145492564411183
 40
0.145492564411183
 40
0.145492564411183
 10
-23.20321527795635
 20
7.143951567658138
 30
0
 10
-23.21606805282471
 20
7.012714209241659
 30
0
 10
-23.26333890369362
 20
6.530040104880808
 30
0
 10
-23.29994639499758
 20
6.046422339789403
 30
0
 10
-23.32660044066694
 20
5.694298511083749
 30
0
  0
LINE
  5
67
100
AcDbEntity
  8
text
  6
ByLayer
 62
  256
370
   -1
100
AcDbLine
 10
-23.32660044066694
 20
5.694298511083749
 11
-23.76562397301512
 21
5.693677506460277
  0
SPLINE
  5
68
100
AcDbEntity
  8
text
  6
ByLayer
 62
  256
370
   -1
100
AcDbSpline
210
0
220
0
230
0
 70
    8
 71
    3
 72
    9
 73
    5
 74
    0
 42
1e-07
 43
1e-07
 40
0
 40
0
 40
0
 40
0
 40
0.06797124665269133
 40
0.1300559631308146
 40
0.1300559631308146
 40
0.1300559631308146
 40
0.1300559631308146
 10
-23.76562397301512
 20
5.693677506460277
 30
0
 10
-23.7671899184636
 20
5.9205259009142
 30
0
 10
-23.77018619341133
 20
6.354576883914893
 30
0
 10
-23.82965882713738
 20
6.784488338852421
 30
0
 10
-23.85804923319185
 20
6.989714844027328
 30
0
  0
SPLINE
  5
69
100
AcDbEntity
  8
text
  6
ByLayer
 62
  256
370
   -1
100
AcDbSpline
210
0
220
0
230
0
 70
    8
 71
    3
 72
    9
 73
    5
 74
    0
 42
1e-07
 43
1e-07
 40
0
 40
0
 40
0
 40
0
 40
0.04242087051656083
 40
0.08725166622697095
 40
0.08725166622697095
 40
0.08725166622697095
 40
0.08725166622697095
 10
-23.85804923319185
 20
6.989714844027328
 30
0
 10
-23.99107971189606
 20
7.038833861184615
 30
0
 10
-24.26469811681266
 20
7.139862341699437
 30
0
 10
-24.55328283660405
 20
7.182594022898967
 30
0
 10
-24.70156060799307
 20
7.204549996384162
 30
0
  0
SPLINE
  5
6A
100
AcDbEntity
  8
text
  6
ByLayer
 62
  256
370
   -1
100
AcDbSpline
210
0
220
0
230
0
 70
    8
 71
    3
 72
    9
 73
    5
 74
    0
 42
1e-07
 43
1e-07
 40
0
 40
0
 40
0
 40
0
 40
0.07839106188051101
 40
0.1564778683553612
 40
0.1564778683553612
 40
0.1564778683553612
 40
0.1564778683553612
 10
-24.70156060799307
 20
7.204549996384162
 30
0
 10
-24.9615095334301
 20
7.232637550258922
 30
0
 10
-25.4803984572165
 20
7.288703643155308
 30
0
 10
-26.00225262368794
 20
7.296174565353031
 30
0
 10
-26.26267236057244
 20
7.29990276322519
 30
0
  0
SPLINE
  5
6B
100
AcDbEntity
  8
text
  6
ByLayer
 62
  256
370
   -1
100
AcDbSpline
210
0
220
0
230
0
 70
    8
 71
    3
 72
    9
 73
    5
 74
    0
 42
1e-07
 43
1e-07
 40
0
 40
0
 40
0
 40
0
 40
0.02701251706462286
 40
0.07461937274549697
 40
0.07461937274549697
 40
0.07461937274549697
 40
0.07461937274549697
 10
-26.26267236057244
 20
7.29990276322519
 30
0
 10
-26.35269145587261
 20
7.297747784659445
 30
0
 10
-26.60136019008743
 20
7.29179487221995
 30
0
 10
-26.84978361947153
 20
7.279083294567248
 30
0
 10
-27.00827675490399
 20
7.270973359834181
 30
0
  0
SPLINE
  5
6C
100
AcDbEntity
  8
text
  6
ByLayer
 62
  256
370
   -1
100
AcDbSpline
210
0
220
0
230
0
 70
    8
 71
    3
 72
    9
 73
    5
 74
    0
 42
1e-07
 43
1e-07
 40
0
 40
0
 40
0
 40
0
 40
0.04972034337285484
 40
0.08307257689914924
 40
0.08307257689914924
 40
0.08307257689914924
 40
0.08307257689914924
 10
-27.00827675490399
 20
7.270973359834181
 30
0
 10
-27.17381668882585
 20
7.262789694049903
 30
0
 10
-27.45040023507127
 20
7.249116453700717
 30
0
 10
-27.72659007342587
 20
7.229068764725142
 30
0
 10
-27.83747561869522
 20
7.221019956931598
 30
0
  0
SPLINE
  5
6D
100
AcDbEntity
  8
text
  6
ByLayer
 62
  256
370
   -1
100
AcDbSpline
210
0
220
0
230
0
 70
    8
 71
    3
 72
    9
 73
    5
 74
    0
 42
1e-07
 43
1e-07
 40
0
 40
0
 40
0
 40
0
 40
0.07495260014173044
 40
0.1450090665352694
 40
0.1450090665352694
 40
0.1450090665352694
 40
0.1450090665352694
 10
-27.83747561869522
 20
7.221019956931598
 30
0
 10
-27.84574795521238
 20
6.971312548133373
 30
0
 10
-27.86175225385113
 20
6.488209384423227
 30
0
 10
-27.87219275042769
 20
6.004954325751739
 30
0
 10
-27.87723674053827
 20
5.771485187674825
 30
0
  0
LINE
  5
6E
100
AcDbEntity
  8
text
  6
ByLayer
 62
  256
370
   -1
100
AcDbLine
 10
-27.87723674053826
 20
5.771485187674824
 11
-27.90177967824354
 21
3.41604719505062
  0
SPLINE
  5
6F
100
AcDbEntity
  8
text
  6
ByLayer
 62
  256
370
   -1
100
AcDbSpline
210
0
220
0
230
0
 70
    8
 71
    3
 72
    9
 73
    5
 74
    0
 42
1e-07
 43
1e-07
 40
0
 40
0
 40
0
 40
0
 40
0.07828582111661052
 40
0.1498962718168122
 40
0.1498962718168122
 40
0.1498962718168122
 40
0.1498962718168122
 10
-27.90177967824354
 20
3.41604719505062
 30
0
 10
-27.64106683015548
 20
3.40422818582145
 30
0
 10
-27.14187191355707
 20
3.381597964987693
 30
0
 10
-26.64218231503116
 20
3.378050037777784
 30
0
 10
-26.40346392045779
 20
3.376355074564401
 30
0
  0
SPLINE
  5
70
100
AcDbEntity
  8
text
  6
ByLayer
 62
  256
370
   -1
100
AcDbSpline
210
0
220
0
230
0
 70
    8
 71
    3
 72
    9
 73
    5
 74
    0
 42
1e-07
 43
1e-07
 40
0
 40
0
 40
0
 40
0
 40
0.07685309103123701
 40
0.1417424832692431
 40
0.1417424832692431
 40
0.1417424832692431
 40
0.1417424832692431
 10
-26.40346392045779
 20
3.376355074564401
 30
0
 10
-26.14711811258698
 20
3.3786840373579
 30
0
 10
-25.67433177574986
 20
3.382979413970117
 30
0
 10
-25.20417602740514
 20
3.432390760052
 30
0
 10
-24.98893977597484
 20
3.455011163920787
 30
0
  0
SPLINE
  5
71
100
AcDbEntity
  8
text
  6
ByLayer
 62
  256
370
   -1
100
AcDbSpline
210
0
220
0
230
0
 70
    8
 71
    3
 72
    9
 73
    5
 74
    0
 42
1e-07
 43
1e-07
 40
0
 40
0
 40
0
 40
0
 40
0.01876453993089725
 40
0.03118283973684221
 40
0.03118283973684221
 40
0.03118283973684221
 40
0.03118283973684221
 10
-24.98893977597484
 20
3.455011163920787
 30
0
 10
-24.92520524371022
 20
3.462671073852981
 30
0
 10
-24.81929144499045
 20
3.475400282492997
 30
0
 10
-24.73639551094616
 20
3.54084903068471
 30
0
 10
-24.70338291265994
 20
3.566913436102159
 30
0
  0
SPLINE
  5
72
100
AcDbEntity
  8
text
  6
ByLayer
 62
  256
370
   -1
100
AcDbSpline
210
0
220
0
230
0
 70
    8
 71
    3
 72
    9
 73
    5
 74
    0
 42
1e-07
 43
1e-07
 40
0
 40
0
 40
0
 40
0
 40
0.01939358560191785
 40
0.05842109397466001
 40
0.05842109397466001
 40
0.05842109397466001
 40
0.05842109397466001
 10
-24.70338291265994
 20
3.566913436102159
 30
0
 10
-24.68188493932601
 20
3.628084143593457
 30
0
 10
-24.61712460329606
 20
3.812354330870846
 30
0
 10
-24.60247809773144
 20
4.007880328307891
 30
0
 10
-24.59269367604975
 20
4.13849911653827
 30
0
  0
LINE
  5
73
100
AcDbEntity
  8
text
  6
ByLayer
 62
  256
370
   -1
100
AcDbLine
 10
-24.59269367604974
 20
4.13849911653827
 11
-24.55157106470732
 21
4.626362185871513
  0
LINE
  5
74
100
AcDbEntity
  8
text
  6
ByLayer
 62
  256
370
   -1
100
AcDbLine
 10
-24.55157106470732
 20
4.626362185871513
 11
-24.13345443664479
 21
4.626953617400904
  0
LINE
  5
75
100
AcDbEntity
  8
text
  6
ByLayer
 62
  256
370
   -1
100
AcDbLine
 10
-24.13345443664479
 20
4.626953617400904
 11
-24.13326714965657
 21
4.494549780096095
  0
LINE
  5
76
100
AcDbEntity
  8
text
  6
ByLayer
 62
  256
370
   -1
100
AcDbLine
 10
-24.13326714965657
 20
4.494549780096095
 11
-24.1660593034044
 21
3.045024868537349
  0
LINE
  5
77
100
AcDbEntity
  8
text
  6
ByLayer
 62
  256
370
   -1
100
AcDbLine
 10
-24.1660593034044
 20
3.045024868537349
 11
-24.12892011307671
 21
1.421382073429522
  0
LINE
  5
78
100
AcDbEntity
  8
text
  6
ByLayer
 62
  256
370
   -1
100
AcDbLine
 10
-24.12892011307671
 20
1.421382073429522
 11
-24.61672403790802
 21
1.420692068292331
  0
LINE
  5
79
100
AcDbEntity
  8
text
  6
ByLayer
 62
  256
370
   -1
100
AcDbLine
 10
-24.61672403790802
 20
1.420692068292331
 11
-24.63830004152935
 21
1.894529677617065
  0
SPLINE
  5
7A
100
AcDbEntity
  8
text
  6
ByLayer
 62
  256
370
   -1
100
AcDbSpline
210
0
220
0
230
0
 70
    8
 71
    3
 72
    9
 73
    5
 74
    0
 42
1e-07
 43
1e-07
 40
0
 40
0
 40
0
 40
0
 40
0.04192925714573362
 40
0.06519083285606599
 40
0.06519083285606599
 40
0.06519083285606599
 40
0.06519083285606599
 10
-24.63830004152935
 20
1.894529677617065
 30
0
 10
-24.63952264030674
 20
2.035633612419265
 30
0
 10
-24.64142351425427
 20
2.25501939826926
 30
0
 10
-24.7116936898484
 20
2.461742301270178
 30
0
 10
-24.73676769087199
 20
2.535505746965567
 30
0
  0
SPLINE
  5
7B
100
AcDbEntity
  8
text
  6
ByLayer
 62
  256
370
   -1
100
AcDbSpline
210
0
220
0
230
0
 70
    8
 71
    3
 72
    9
 73
    5
 74
    0
 42
1e-07
 43
1e-07
 40
0
 40
0
 40
0
 40
0
 40
0.01552970249002953
 40
0.03537044131217247
 40
0.03537044131217247
 40
0.03537044131217247
 40
0.03537044131217247
 10
-24.73676769087199
 20
2.535505746965567
 30
0
 10
-24.77217963965794
 20
2.574764753179077
 30
0
 10
-24.85283387350995
 20
2.664181042779008
 30
0
 10
-24.97060356757682
 20
2.693084566053798
 30
0
 10
-25.03666544451303
 20
2.709297743923798
 30
0
  0
SPLINE
  5
7C
100
AcDbEntity
  8
text
  6
ByLayer
 62
  256
370
   -1
100
AcDbSpline
210
0
220
0
230
0
 70
    8
 71
    3
 72
    9
 73
    5
 74
    0
 42
1e-07
 43
1e-07
 40
0
 40
0
 40
0
 40
0
 40
0.05869839510283813
 40
0.1543658332026921
 40
0.1543658332026921
 40
0.1543658332026921
 40
0.1543658332026921
 10
-25.03666544451303
 20
2.709297743923798
 30
0
 10
-25.23103643173425
 20
2.733090862981324
 30
0
 10
-25.74219588235073
 20
2.795662329226194
 30
0
 10
-26.25749671030371
 20
2.792625436720733
 30
0
 10
-26.57685177118861
 20
2.790743338073938
 30
0
  0
SPLINE
  5
7D
100
AcDbEntity
  8
text
  6
ByLayer
 62
  256
370
   -1
100
AcDbSpline
210
0
220
0
230
0
 70
    8
 71
    3
 72
    9
 73
    5
 74
    0
 42
1e-07
 43
1e-07
 40
0
 40
0
 40
0
 40
0
 40
0.05645267777593253
 40
0.1324558691348171
 40
0.1324558691348171
 40
0.1324558691348171
 40
0.1324558691348171
 10
-26.57685177118861
 20
2.790743338073938
 30
0
 10
-26.76502067405782
 20
2.788333422779505
 30
0
 10
-27.20652454164427
 20
2.782678997915342
 30
0
 10
-27.64769791469666
 20
2.764473266815837
 30
0
 10
-27.9008432416162
 20
2.754026816434876
 30
0
  0
SPLINE
  5
7E
100
AcDbEntity
  8
text
  6
ByLayer
 62
  256
370
   -1
100
AcDbSpline
210
0
220
0
230
0
 70
    8
 71
    3
 72
    9
 73
    5
 74
    0
 42
1e-07
 43
1e-07
 40
0
 40
0
 40
0
 40
0
 40
0.08662476751941096
 40
0.2070111815035763
 40
0.2070111815035763
 40
0.2070111815035763
 40
0.2070111815035763
 10
-27.9008432416162
 20
2.754026816434876
 30
0
 10
-27.91053100721196
 20
2.465420928869531
 30
0
 10
-27.93368230515522
 20
1.775726197389855
 30
0
 10
-27.93309793829403
 20
1.085621060192663
 30
0
 10
-27.93275810239551
 20
0.684293546694148
 30
0
  0
SPLINE
  5
7F
100
AcDbEntity
  8
text
  6
ByLayer
 62
  256
370
   -1
100
AcDbSpline
210
0
220
0
230
0
 70
    8
 71
    3
 72
    9
 73
    5
 74
    0
 42
1e-07
 43
1e-07
 40
0
 40
0
 40
0
 40
0
 40
0.1134180497728897
 40
0.1958636105008298
 40
0.1958636105008298
 40
0.1958636105008298
 40
0.1958636105008298
 10
-27.93275810239551
 20
0.684293546694148
 30
0
 10
-27.93194852724289
 20
0.3061935281197492
 30
0
 10
-27.93055045777614
 20
-0.3467539958123211
 30
0
 10
-27.90563395624224
 20
-0.9992050845899403
 30
0
 10
-27.89514576532669
 20
-1.273843623746238
 30
0
  0
SPLINE
  5
80
100
AcDbEntity
  8
text
  6
ByLayer
 62
  256
370
   -1
100
AcDbSpline
210
0
220
0
230
0
 70
    8
 71
    3
 72
    9
 73
    5
 74
    0
 42
1e-07
 43
1e-07
 40
0
 40
0
 40
0
 40
0
 40
0.1066011681430185
 40
0.2252577830696283
 40
0.2252577830696283
 40
0.2252577830696283
 40
0.2252577830696283
 10
-27.89514576532669
 20
-1.273843623746238
 30
0
 10
-27.54040582483545
 20
-1.295682102688436
 30
0
 10
-26.79080866794404
 20
-1.341828757906436
 30
0
 10
-26.03977948076637
 20
-1.345422025152274
 30
0
 10
-25.6441679292044
 20
-1.347314811816993
 30
0
  0
SPLINE
  5
81
100
AcDbEntity
  8
text
  6
ByLayer
 62
  256
370
   -1
100
AcDbSpline
210
0
220
0
230
0
 70
    8
 71
    3
 72
    9
 73
    5
 74
    0
 42
1e-07
 43
1e-07
 40
0
 40
0
 40
0
 40
0
 40
0.07579678400889137
 40
0.1263184969384984
 40
0.1263184969384984
 40
0.1263184969384984
 40
0.1263184969384984
 10
-25.6441679292044
 20
-1.347314811816993
 30
0
 10
-25.39130740627289
 20
-1.34719062144304
 30
0
 10
-24.96990481499613
 20
-1.346983653013227
 30
0
 10
-24.5506195799983
 20
-1.306123511359365
 30
0
 10
-24.38292435885823
 20
-1.289781293893744
 30
0
  0
SPLINE
  5
82
100
AcDbEntity
  8
text
  6
ByLayer
 62
  256
370
   -1
100
AcDbSpline
210
0
220
0
230
0
 70
    8
 71
    3
 72
    9
 73
    5
 74
    0
 42
1e-07
 43
1e-07
 40
0
 40
0
 40
0
 40
0
 40
0.0370032270648302
 40
0.0723175285081173
 40
0.0723175285081173
 40
0.0723175285081173
 40
0.0723175285081173
 10
-24.38292435885823
 20
-1.289781293893744
 30
0
 10
-24.26115152442749
 20
-1.26836882398544
 30
0
 10
-24.02316389134807
 20
-1.226521206200375
 30
0
 10
-23.79684416644901
 20
-1.141943166538151
 30
0
 10
-23.68632707394702
 20
-1.100641777376614
 30
0
  0
SPLINE
  5
83
100
AcDbEntity
  8
text
  6
ByLayer
 62
  256
370
   -1
100
AcDbSpline
210
0
220
0
230
0
 70
    8
 71
    3
 72
    9
 73
    5
 74
    0
 42
1e-07
 43
1e-07
 40
0
 40
0
 40
0
 40
0
 40
0.02677483784014043
 40
0.06091586254365972
 40
0.06091586254365972
 40
0.06091586254365972
 40
0.06091586254365972
 10
-23.68632707394702
 20
-1.100641777376614
 30
0
 10
-23.65724998217978
 20
-1.016199470839201
 30
0
 10
-23.591096224841
 20
-0.8240834263419528
 30
0
 10
-23.5454763792708
 20
-0.6260376319399086
 30
0
 10
-23.5199081904683
 20
-0.5150404946300258
 30
0
  0
SPLINE
  5
84
100
AcDbEntity
  8
text
  6
ByLayer
 62
  256
370
   -1
100
AcDbSpline
210
0
220
0
230
0
 70
    8
 71
    3
 72
    9
 73
    5
 74
    0
 42
1e-07
 43
1e-07
 40
0
 40
0
 40
0
 40
0
 40
0.05582336564682551
 40
0.09556031455713378
 40
0.09556031455713378
 40
0.09556031455713378
 40
0.09556031455713378
 10
-23.5199081904683
 20
-0.5150404946300258
 30
0
 10
-23.47563564256565
 20
-0.3342477538709332
 30
0
 10
-23.39984840625694
 20
-0.02476066049343917
 30
0
 10
-23.34284309920207
 20
0.2886969637024084
 30
0
 10
-23.31913852074235
 20
0.4190423864434534
 30
0
  0
LINE
  5
85
100
AcDbEntity
  8
text
  6
ByLayer
 62
  256
370
   -1
100
AcDbLine
 10
-23.31913852074235
 20
0.4190423864434533
 11
-22.8592080841085
 21
0.4196929641610003
  0
SPLINE
  5
86
100
AcDbEntity
  8
text
  6
ByLayer
 62
  256
370
   -1
100
AcDbSpline
210
0
220
0
230
0
 70
    8
 71
    3
 72
    9
 73
    5
 74
    0
 42
1e-07
 43
1e-07
 40
0
 40
0
 40
0
 40
0
 40
0.1294607609056892
 40
0.2342626008664578
 40
0.2342626008664578
 40
0.2342626008664578
 40
0.2342626008664578
 10
-22.8592080841085
 20
0.4196929641610003
 30
0
 10
-22.91125993321611
 20
-0.00898588763545316
 30
0
 10
-23.0054491027108
 20
-0.784691375968265
 30
0
 10
-23.02731058703493
 20
-1.56567034628472
 30
0
 10
-23.03709073876623
 20
-1.915056175508432
 30
0
  0
SPLINE
  5
87
100
AcDbEntity
  8
text
  6
ByLayer
 62
  256
370
   -1
100
AcDbSpline
210
0
220
0
230
0
 70
    8
 71
    3
 72
    9
 73
    5
 74
    0
 42
1e-07
 43
1e-07
 40
0
 40
0
 40
0
 40
0
 40
0.05287043906076169
 40
0.07953521390778859
 40
0.07953521390778859
 40
0.07953521390778859
 40
0.07953521390778859
 10
10.16646710547458
 20
-0.4673906689023521
 30
0
 10
10.1664761708071
 20
-0.6448091360374075
 30
0
 10
10.16648980816615
 20
-0.9117071604431004
 30
0
 10
10.23515474067469
 20
-1.168594402387981
 30
0
 10
10.25817517244656
 20
-1.254717770025815
 30
0
  0
SPLINE
  5
88
100
AcDbEntity
  8
text
  6
ByLayer
 62
  256
370
   -1
100
AcDbSpline
210
0
220
0
230
0
 70
    8
 71
    3
 72
    9
 73
    5
 74
    0
 42
1e-07
 43
1e-07
 40
0
 40
0
 40
0
 40
0
 40
0.01539909712047934
 40
0.03292920720413228
 40
0.03292920720413228
 40
0.03292920720413228
 40
0.03292920720413228
 10
10.25817517244656
 20
-1.254717770025815
 30
0
 10
10.29191938119157
 20
-1.294442260296158
 30
0
 10
10.36407751052929
 20
-1.379388537402946
 30
0
 10
10.46795032842748
 20
-1.420572435212399
 30
0
 10
10.52324780100755
 20
-1.44249699166461
 30
0
  0
SPLINE
  5
89
100
AcDbEntity
  8
text
  6
ByLayer
 62
  256
370
   -1
100
AcDbSpline
210
0
220
0
230
0
 70
    8
 71
    3
 72
    9
 73
    5
 74
    0
 42
1e-07
 43
1e-07
 40
0
 40
0
 40
0
 40
0
 40
0.03444542996803251
 40
0.1006925076899966
 40
0.1006925076899966
 40
0.1006925076899966
 40
0.1006925076899966
 10
10.52324780100755
 20
-1.44249699166461
 30
0
 10
10.63693547753341
 20
-1.459294318230988
 30
0
 10
10.96927266285699
 20
-1.508397056563053
 30
0
 10
11.30557310281783
 20
-1.509824511641709
 30
0
 10
11.52683009497264
 20
-1.510763655275218
 30
0
  0
LINE
  5
8A
100
AcDbEntity
  8
text
  6
ByLayer
 62
  256
370
   -1
100
AcDbLine
 10
11.52683009497264
 20
-1.510763655275218
 11
11.52746095729413
 21
-1.956756155718624
  0
LINE
  5
8B
100
AcDbEntity
  8
text
  6
ByLayer
 62
  256
370
   -1
100
AcDbLine
 10
11.52746095729413
 20
-1.956756155718624
 11
9.422853870029089
 21
-1.903983678300678
  0
SPLINE
  5
8C
100
AcDbEntity
  8
text
  6
ByLayer
 62
  256
370
   -1
100
AcDbSpline
210
0
220
0
230
0
 70
    8
 71
    3
 72
    9
 73
    5
 74
    0
 42
1e-07
 43
1e-07
 40
0
 40
0
 40
0
 40
0
 40
0.06012100541362209
 40
0.1972925924048237
 40
0.1972925924048237
 40
0.1972925924048237
 40
0.1972925924048237
 10
9.422853870029089
 20
-1.903983678300678
 30
0
 10
9.222504855740672
 20
-1.908690222472007
 30
0
 10
8.565041193202561
 20
-1.924135178763766
 30
0
 10
7.907780954347112
 20
-1.946779041394415
 30
0
 10
7.450807740446486
 20
-1.962522635894319
 30
0
  0
LINE
  5
8D
100
AcDbEntity
  8
text
  6
ByLayer
 62
  256
370
   -1
100
AcDbLine
 10
7.450807740446487
 20
-1.962522635894319
 11
7.450176878124992
 21
-1.516530135450909
  0
SPLINE
  5
8E
100
AcDbEntity
  8
text
  6
ByLayer
 62
  256
370
   -1
100
AcDbSpline
210
0
220
0
230
0
 70
    8
 71
    3
 72
    9
 73
    5
 74
    0
 42
1e-07
 43
1e-07
 40
0
 40
0
 40
0
 40
0
 40
0.0662470777219641
 40
0.1006925076899966
 40
0.1006925076899966
 40
0.1006925076899966
 40
0.1006925076899966
 10
7.450176878124992
 20
-1.516530135450909
 30
0
 10
7.671430328021422
 20
-1.514965054913788
 30
0
 10
8.007725383912607
 20
-1.51258620456387
 30
0
 10
8.339922326652109
 20
-1.462543473872464
 30
0
 10
8.453562028246946
 20
-1.445424589707347
 30
0
  0
SPLINE
  5
8F
100
AcDbEntity
  8
text
  6
ByLayer
 62
  256
370
   -1
100
AcDbSpline
210
0
220
0
230
0
 70
    8
 71
    3
 72
    9
 73
    5
 74
    0
 42
1e-07
 43
1e-07
 40
0
 40
0
 40
0
 40
0
 40
0.01698790717587069
 40
0.03054094886777848
 40
0.03054094886777848
 40
0.03054094886777848
 40
0.03054094886777848
 10
8.453562028246946
 20
-1.445424589707347
 30
0
 10
8.507513862670404
 20
-1.42510594776919
 30
0
 10
8.604508754353715
 20
-1.38857698642795
 30
0
 10
8.673557338528086
 20
-1.311864191854046
 30
0
 10
8.704198768305993
 20
-1.27782164433321
 30
0
  0
SPLINE
  5
90
100
AcDbEntity
  8
text
  6
ByLayer
 62
  256
370
   -1
100
AcDbSpline
210
0
220
0
230
0
 70
    8
 71
    3
 72
    9
 73
    5
 74
    0
 42
1e-07
 43
1e-07
 40
0
 40
0
 40
0
 40
0
 40
0.02481575237742474
 40
0.06869674401793419
 40
0.06869674401793419
 40
0.06869674401793419
 40
0.06869674401793419
 10
8.704198768305993
 20
-1.27782164433321
 30
0
 10
8.72958021230934
 20
-1.198746270899829
 30
0
 10
8.799842944423357
 20
-0.9798441556523585
 30
0
 10
8.804680153654161
 20
-0.7491050468383431
 30
0
 10
8.807769987690044
 20
-0.6017172623115741
 30
0
  0
SPLINE
  5
91
100
AcDbEntity
  8
text
  6
ByLayer
 62
  256
370
   -1
100
AcDbSpline
210
0
220
0
230
0
 70
    8
 71
    3
 72
    9
 73
    5
 74
    0
 42
1e-07
 43
1e-07
 40
0
 40
0
 40
0
 40
0
 40
0.05680408178506229
 40
0.1979298477361314
 40
0.1979298477361314
 40
0.1979298477361314
 40
0.1979298477361314
 10
8.807769987690044
 20
-0.6017172623115741
 30
0
 10
8.811150790041626
 20
-0.4123999380042465
 30
0
 10
8.822930959241564
 20
0.2472630298040901
 30
0
 10
8.828719281258692
 20
0.9070096464219946
 30
0
 10
8.832846407043826
 20
1.377414932278391
 30
0
  0
LINE
  5
92
100
AcDbEntity
  8
text
  6
ByLayer
 62
  256
370
   -1
100
AcDbLine
 10
8.832846407043828
 20
1.377414932278391
 11
8.828282512067887
 21
4.603892188443734
  0
SPLINE
  5
93
100
AcDbEntity
  8
text
  6
ByLayer
 62
  256
370
   -1
100
AcDbSpline
210
0
220
0
230
0
 70
    8
 71
    3
 72
    9
 73
    5
 74
    0
 42
1e-07
 43
1e-07
 40
0
 40
0
 40
0
 40
0
 40
0.09372970395750141
 40
0.1853807265659973
 40
0.1853807265659973
 40
0.1853807265659973
 40
0.1853807265659973
 10
8.828282512067887
 20
4.603892188443734
 30
0
 10
8.827007283874746
 20
4.916328505837386
 30
0
 10
8.824485108737079
 20
5.53427211473112
 30
0
 10
8.811279813446671
 20
6.152079413707932
 30
0
 10
8.804751201548164
 20
6.457519314473772
 30
0
  0
SPLINE
  5
94
100
AcDbEntity
  8
text
  6
ByLayer
 62
  256
370
   -1
100
AcDbSpline
210
0
220
0
230
0
 70
    8
 71
    3
 72
    9
 73
    5
 74
    0
 42
1e-07
 43
1e-07
 40
0
 40
0
 40
0
 40
0
 40
0.05274028892029682
 40
0.0790676438677521
 40
0.0790676438677521
 40
0.0790676438677521
 40
0.0790676438677521
 10
8.804751201548164
 20
6.457519314473772
 30
0
 10
8.803370740098275
 20
6.634740024601418
 30
0
 10
8.801301167926283
 20
6.900427306207684
 30
0
 10
8.724644417289626
 20
7.153569074851696
 30
0
 10
8.699119823607475
 20
7.237858334896732
 30
0
  0
SPLINE
  5
95
100
AcDbEntity
  8
text
  6
ByLayer
 62
  256
370
   -1
100
AcDbSpline
210
0
220
0
230
0
 70
    8
 71
    3
 72
    9
 73
    5
 74
    0
 42
1e-07
 43
1e-07
 40
0
 40
0
 40
0
 40
0
 40
0.01491046793820343
 40
0.03205557371532171
 40
0.03205557371532171
 40
0.03205557371532171
 40
0.03205557371532171
 10
8.699119823607475
 20
7.237858334896732
 30
0
 10
8.667286908555862
 20
7.277258542582494
 30
0
 10
8.598850266644984
 20
7.361963882958427
 30
0
 10
8.496021947523502
 20
7.398914952971984
 30
0
 10
8.441023636656322
 20
7.418678442765878
 30
0
  0
SPLINE
  5
96
100
AcDbEntity
  8
text
  6
ByLayer
 62
  256
370
   -1
100
AcDbSpline
210
0
220
0
230
0
 70
    8
 71
    3
 72
    9
 73
    5
 74
    0
 42
1e-07
 43
1e-07
 40
0
 40
0
 40
0
 40
0
 40
0.0341737397719695
 40
0.1007752817655579
 40
0.1007752817655579
 40
0.1007752817655579
 40
0.1007752817655579
 10
8.441023636656322
 20
7.418678442765878
 30
0
 10
8.328533599310806
 20
7.437457675162165
 30
0
 10
7.996810607184237
 20
7.492835940716498
 30
0
 10
7.660016137666021
 20
7.49348471133978
 30
0
 10
7.437431485836319
 20
7.493913478425855
 30
0
  0
LINE
  5
97
100
AcDbEntity
  8
text
  6
ByLayer
 62
  256
370
   -1
100
AcDbLine
 10
7.43743148583632
 20
7.493913478425855
 11
7.436800623514825
 21
7.939905978869262
  0
SPLINE
  5
98
100
AcDbEntity
  8
text
  6
ByLayer
 62
  256
370
   -1
100
AcDbSpline
210
0
220
0
230
0
 70
    8
 71
    3
 72
    9
 73
    5
 74
    0
 42
1e-07
 43
1e-07
 40
0
 40
0
 40
0
 40
0
 40
0.1193792291592465
 40
0.2070162119374304
 40
0.2070162119374304
 40
0.2070162119374304
 40
0.2070162119374304
 10
7.436800623514825
 20
7.939905978869262
 30
0
 10
7.83457936084611
 20
7.92837037282426
 30
0
 10
8.524369770547384
 20
7.908366411643928
 30
0
 10
9.214422723331088
 20
7.903206512719549
 30
0
 10
9.506545539091125
 20
7.90102215252408
 30
0
  0
SPLINE
  5
99
100
AcDbEntity
  8
text
  6
ByLayer
 62
  256
370
   -1
100
AcDbSpline
210
0
220
0
230
0
 70
    8
 71
    3
 72
    9
 73
    5
 74
    0
 42
1e-07
 43
1e-07
 40
0
 40
0
 40
0
 40
0
 40
0.08572071361007758
 40
0.2007460719699741
 40
0.2007460719699741
 40
0.2007460719699741
 40
0.2007460719699741
 10
9.506545539091125
 20
7.90102215252408
 30
0
 10
9.792274231629676
 20
7.903991356480331
 30
0
 10
10.46141136617501
 20
7.910944822054664
 30
0
 10
11.13022866233789
 20
7.93302229976478
 30
0
 10
11.51345384036247
 20
7.945672459044952
 30
0
  0
LINE
  5
9A
100
AcDbEntity
  8
text
  6
ByLayer
 62
  256
370
   -1
100
AcDbLine
 10
11.51345384036247
 20
7.945672459044953
 11
11.51408470268397
 21
7.499679958601546
  0
SPLINE
  5
9B
100
AcDbEntity
  8
text
  6
ByLayer
 62
  256
370
   -1
100
AcDbSpline
210
0
220
0
230
0
 70
    8
 71
    3
 72
    9
 73
    5
 74
    0
 42
1e-07
 43
1e-07
 40
0
 40
0
 40
0
 40
0
 40
0.06625372032686522
 40
0.1007717645466996
 40
0.1007717645466996
 40
0.1007717645466996
 40
0.1007717645466996
 10
11.51408470268397
 20
7.499679958601546
 30
0
 10
11.29268704061013
 20
7.498418437205312
 30
0
 10
10.95594167803089
 20
7.496499665904848
 30
0
 10
10.62430663655643
 20
7.440714512366262
 30
0
 10
10.51070940941693
 20
7.42160604080861
 30
0
  0
SPLINE
  5
9C
100
AcDbEntity
  8
text
  6
ByLayer
 62
  256
370
   -1
100
AcDbSpline
210
0
220
0
230
0
 70
    8
 71
    3
 72
    9
 73
    5
 74
    0
 42
1e-07
 43
1e-07
 40
0
 40
0
 40
0
 40
0
 40
0.01660998295144082
 40
0.02966808814448005
 40
0.02966808814448005
 40
0.02966808814448005
 40
0.02966808814448005
 10
10.51070940941693
 20
7.42160604080861
 30
0
 10
10.45702900670536
 20
7.403501302736166
 30
0
 10
10.36114721537939
 20
7.371163342695133
 30
0
 10
10.29579727222769
 20
7.294655894486439
 30
0
 10
10.26703416393848
 20
7.260981924600181
 30
0
  0
SPLINE
  5
9D
100
AcDbEntity
  8
text
  6
ByLayer
 62
  256
370
   -1
100
AcDbSpline
210
0
220
0
230
0
 70
    8
 71
    3
 72
    9
 73
    5
 74
    0
 42
1e-07
 43
1e-07
 40
0
 40
0
 40
0
 40
0
 40
0.0249639596600271
 40
0.06885984550546762
 40
0.06885984550546762
 40
0.06885984550546762
 40
0.06885984550546762
 10
10.26703416393848
 20
7.260981924600181
 30
0
 10
10.23965157794392
 20
7.181989486607696
 30
0
 10
10.16412026533147
 20
6.964099089798088
 30
0
 10
10.15946144059881
 20
6.732502372571996
 30
0
 10
10.15649159311892
 20
6.584867085462207
 30
0
  0
SPLINE
  5
9E
100
AcDbEntity
  8
text
  6
ByLayer
 62
  256
370
   -1
100
AcDbSpline
210
0
220
0
230
0
 70
    8
 71
    3
 72
    9
 73
    5
 74
    0
 42
1e-07
 43
1e-07
 40
0
 40
0
 40
0
 40
0
 40
0.05645032065561514
 40
0.1979291644314392
 40
0.1979291644314392
 40
0.1979291644314392
 40
0.1979291644314392
 10
10.15649159311892
 20
6.584867085462207
 30
0
 10
10.15449905771527
 20
6.396709809603291
 30
0
 10
10.14751272242141
 20
5.736982602389507
 30
0
 10
10.13812527591231
 20
5.077284566643687
 30
0
 10
10.13141517292202
 20
4.605735486918094
 30
0
  0
LINE
  5
9F
100
AcDbEntity
  8
text
  6
ByLayer
 62
  256
370
   -1
100
AcDbLine
 10
10.13141517292202
 20
4.605735486918094
 11
10.13344576175706
 21
3.170196604575755
  0
SPLINE
  5
A0
100
AcDbEntity
  8
text
  6
ByLayer
 62
  256
370
   -1
100
AcDbSpline
210
0
220
0
230
0
 70
    8
 71
    3
 72
    9
 73
    5
 74
    0
 42
1e-07
 43
1e-07
 40
0
 40
0
 40
0
 40
0
 40
0.04957596972336429
 40
0.1138709003966384
 40
0.1138709003966384
 40
0.1138709003966384
 40
0.1138709003966384
 10
10.13344576175706
 20
3.170196604575755
 30
0
 10
10.27330253257835
 20
3.258947719055056
 30
0
 10
10.59453914194477
 20
3.462799895287936
 30
0
 10
10.86929805000701
 20
3.726434635320648
 30
0
 10
11.02443518235773
 20
3.875290728268252
 30
0
  0
LINE
  5
A1
100
AcDbEntity
  8
text
  6
ByLayer
 62
  256
370
   -1
100
AcDbLine
 10
11.02443518235773
 20
3.875290728268252
 11
11.90128443443674
 21
4.726705724713165
  0
LINE
  5
A2
100
AcDbEntity
  8
text
  6
ByLayer
 62
  256
370
   -1
100
AcDbLine
 10
11.90128443443674
 20
4.726705724713165
 11
13.45308748034801
 21
6.282909259584248
  0
SPLINE
  5
A3
100
AcDbEntity
  8
text
  6
ByLayer
 62
  256
370
   -1
100
AcDbSpline
210
0
220
0
230
0
 70
    8
 71
    3
 72
    9
 73
    5
 74
    0
 42
1e-07
 43
1e-07
 40
0
 40
0
 40
0
 40
0
 40
0.1036058110278792
 40
0.1602090750474804
 40
0.1602090750474804
 40
0.1602090750474804
 40
0.1602090750474804
 10
13.45308748034801
 20
6.282909259584248
 30
0
 10
13.69793415960906
 20
6.526609767948095
 30
0
 10
14.0765486371532
 20
6.903451883715777
 30
0
 10
14.43339138422311
 20
7.300861536581147
 30
0
 10
14.55946704017388
 20
7.441269834290933
 30
0
  0
LINE
  5
A4
100
AcDbEntity
  8
text
  6
ByLayer
 62
  256
370
   -1
100
AcDbLine
 10
14.55946704017388
 20
7.441269834290933
 11
14.55874746278573
 21
7.949980067362064
  0
SPLINE
  5
A5
100
AcDbEntity
  8
text
  6
ByLayer
 62
  256
370
   -1
100
AcDbSpline
210
0
220
0
230
0
 70
    8
 71
    3
 72
    9
 73
    5
 74
    0
 42
1e-07
 43
1e-07
 40
0
 40
0
 40
0
 40
0
 40
0.07407135080888584
 40
0.1303472185082145
 40
0.1303472185082145
 40
0.1303472185082145
 40
0.1303472185082145
 10
14.55874746278573
 20
7.949980067362064
 30
0
 10
14.80554222168677
 20
7.942249344498871
 30
0
 10
15.23983982816833
 20
7.928645188353878
 30
0
 10
15.6743324910372
 20
7.925365324125502
 30
0
 10
15.86191955190261
 20
7.923949281593101
 30
0
  0
SPLINE
  5
A6
100
AcDbEntity
  8
text
  6
ByLayer
 62
  256
370
   -1
100
AcDbSpline
210
0
220
0
230
0
 70
    8
 71
    3
 72
    9
 73
    5
 74
    0
 42
1e-07
 43
1e-07
 40
0
 40
0
 40
0
 40
0
 40
0.05279238014691755
 40
0.1094510823626213
 40
0.1094510823626213
 40
0.1094510823626213
 40
0.1094510823626213
 10
15.86191955190261
 20
7.923949281593101
 30
0
 10
16.03790198336762
 20
7.925515342123912
 30
0
 10
16.40275516003908
 20
7.928762155767584
 30
0
 10
16.76726502241117
 20
7.944977091966319
 30
0
 10
16.95595804673783
 20
7.953370953604777
 30
0
  0
LINE
  5
A7
100
AcDbEntity
  8
text
  6
ByLayer
 62
  256
370
   -1
100
AcDbLine
 10
16.95595804673783
 20
7.953370953604777
 11
16.95659876591424
 21
7.500410081112001
  0
SPLINE
  5
A8
100
AcDbEntity
  8
text
  6
ByLayer
 62
  256
370
   -1
100
AcDbSpline
210
0
220
0
230
0
 70
    8
 71
    3
 72
    9
 73
    5
 74
    0
 42
1e-07
 43
1e-07
 40
0
 40
0
 40
0
 40
0
 40
0.05541837692114686
 40
0.08947376970853235
 40
0.08947376970853235
 40
0.08947376970853235
 40
0.08947376970853235
 10
16.95659876591424
 20
7.500410081112001
 30
0
 10
16.77151340183109
 20
7.501087603186187
 30
0
 10
16.47269040912672
 20
7.502181472357496
 30
0
 10
16.17717233713055
 20
7.459604564556757
 30
0
 10
16.06469262323916
 20
7.443398995890655
 30
0
  0
SPLINE
  5
A9
100
AcDbEntity
  8
text
  6
ByLayer
 62
  256
370
   -1
100
AcDbSpline
210
0
220
0
230
0
 70
    8
 71
    3
 72
    9
 73
    5
 74
    0
 42
1e-07
 43
1e-07
 40
0
 40
0
 40
0
 40
0
 40
0.02418850821248329
 40
0.05009749723314162
 40
0.05009749723314162
 40
0.05009749723314162
 40
0.05009749723314162
 10
16.06469262323916
 20
7.443398995890655
 30
0
 10
15.98716988012526
 20
7.419812800754491
 30
0
 10
15.82661035431497
 20
7.370962771013319
 30
0
 10
15.68517380098837
 20
7.280489531134511
 30
0
 10
15.61202687130834
 20
7.23369936579402
 30
0
  0
SPLINE
  5
AA
100
AcDbEntity
  8
text
  6
ByLayer
 62
  256
370
   -1
100
AcDbSpline
210
0
220
0
230
0
 70
    8
 71
    3
 72
    9
 73
    5
 74
    0
 42
1e-07
 43
1e-07
 40
0
 40
0
 40
0
 40
0
 40
0.0725919226650112
 40
0.1799437083186574
 40
0.1799437083186574
 40
0.1799437083186574
 40
0.1799437083186574
 10
15.61202687130834
 20
7.23369936579402
 30
0
 10
15.42256988463375
 20
7.083068313001668
 30
0
 10
14.9529364667888
 20
6.709678144615028
 30
0
 10
14.51130061813641
 20
6.303410230819448
 30
0
 10
14.24782712742932
 20
6.061036732978096
 30
0
  0
LINE
  5
AB
100
AcDbEntity
  8
text
  6
ByLayer
 62
  256
370
   -1
100
AcDbLine
 10
14.24782712742932
 20
6.061036732978097
 11
11.47094264283155
 21
3.513552538340474
  0
LINE
  5
AC
100
AcDbEntity
  8
text
  6
ByLayer
 62
  256
370
   -1
100
AcDbLine
 10
11.47094264283155
 20
3.513552538340474
 11
15.6576629884233
 21
-0.3969048451552393
  0
SPLINE
  5
AD
100
AcDbEntity
  8
text
  6
ByLayer
 62
  256
370
   -1
100
AcDbSpline
210
0
220
0
230
0
 70
    8
 71
    3
 72
    9
 73
    5
 74
    0
 42
1e-07
 43
1e-07
 40
0
 40
0
 40
0
 40
0
 40
0.1078770191013586
 40
0.1544968799230068
 40
0.1544968799230068
 40
0.1544968799230068
 40
0.1544968799230068
 10
15.6576629884233
 20
-0.3969048451552393
 30
0
 10
15.91831684067818
 20
-0.6448987695239339
 30
0
 10
16.29161420510996
 20
-1.000065123525866
 30
0
 10
16.68902649919281
 20
-1.327755367454619
 30
0
 10
16.80894675808857
 20
-1.426636804880301
 30
0
  0
SPLINE
  5
AE
100
AcDbEntity
  8
text
  6
ByLayer
 62
  256
370
   -1
100
AcDbSpline
210
0
220
0
230
0
 70
    8
 71
    3
 72
    9
 73
    5
 74
    0
 42
1e-07
 43
1e-07
 40
0
 40
0
 40
0
 40
0
 40
0.02137785796159071
 40
0.0547559133799902
 40
0.0547559133799902
 40
0.0547559133799902
 40
0.0547559133799902
 10
16.80894675808857
 20
-1.426636804880301
 30
0
 10
16.87631967807369
 20
-1.45113356537018
 30
0
 10
17.04888447747922
 20
-1.513878041354833
 30
0
 10
17.23326482760964
 20
-1.515488136125587
 30
0
 10
17.34565921873244
 20
-1.516469616100435
 30
0
  0
LINE
  5
AF
100
AcDbEntity
  8
text
  6
ByLayer
 62
  256
370
   -1
100
AcDbLine
 10
17.34565921873243
 20
-1.516469616100435
 11
17.34627036734411
 21
-1.948525372445107
  0
SPLINE
  5
B0
100
AcDbEntity
  8
text
  6
ByLayer
 62
  256
370
   -1
100
AcDbSpline
210
0
220
0
230
0
 70
    8
 71
    3
 72
    9
 73
    5
 74
    0
 42
1e-07
 43
1e-07
 40
0
 40
0
 40
0
 40
0
 40
0.05700655830510228
 40
0.0913344642589685
 40
0.0913344642589685
 40
0.0913344642589685
 40
0.0913344642589685
 10
17.34627036734411
 20
-1.948525372445107
 30
0
 10
17.15639295476388
 20
-1.94085453206303
 30
0
 10
16.85217617219514
 20
-1.928564505835464
 30
0
 10
16.54775689464026
 20
-1.923751097870547
 30
0
 10
16.43334141724917
 20
-1.921941986520537
 30
0
  0
SPLINE
  5
B1
100
AcDbEntity
  8
text
  6
ByLayer
 62
  256
370
   -1
100
AcDbSpline
210
0
220
0
230
0
 70
    8
 71
    3
 72
    9
 73
    5
 74
    0
 42
1e-07
 43
1e-07
 40
0
 40
0
 40
0
 40
0
 40
0.04007563783189275
 40
0.1087491322775976
 40
0.1087491322775976
 40
0.1087491322775976
 40
0.1087491322775976
 10
16.43334141724917
 20
-1.921941986520537
 30
0
 10
16.29977142605314
 20
-1.924132124034221
 30
0
 10
15.93731629304129
 20
-1.930075274712966
 30
0
 10
15.57504105066577
 20
-1.943118066834737
 30
0
 10
15.34626950716888
 20
-1.951354400252501
 30
0
  0
SPLINE
  5
B2
100
AcDbEntity
  8
text
  6
ByLayer
 62
  256
370
   -1
100
AcDbSpline
210
0
220
0
230
0
 70
    8
 71
    3
 72
    9
 73
    5
 74
    0
 42
1e-07
 43
1e-07
 40
0
 40
0
 40
0
 40
0
 40
0.05174440785719591
 40
0.1616517912061785
 40
0.1616517912061785
 40
0.1616517912061785
 40
0.1616517912061785
 10
15.34626950716888
 20
-1.951354400252501
 30
0
 10
15.22252103959589
 20
-1.831203127096614
 30
0
 10
14.83592541949721
 20
-1.455845299542489
 30
0
 10
14.44602114188469
 20
-1.08392184766287
 30
0
 10
14.18092442635057
 20
-0.8310503323075302
 30
0
  0
LINE
  5
B3
100
AcDbEntity
  8
text
  6
ByLayer
 62
  256
370
   -1
100
AcDbLine
 10
14.18092442635057
 20
-0.8310503323075301
 11
13.46217584203713
 21
-0.1421711685031113
  0
LINE
  5
B4
100
AcDbEntity
  8
text
  6
ByLayer
 62
  256
370
   -1
100
AcDbLine
 10
13.46217584203713
 20
-0.1421711685031113
 11
10.29421773584784
 21
2.821992202081671
  0
LINE
  5
B5
100
AcDbEntity
  8
text
  6
ByLayer
 62
  256
370
   -1
100
AcDbLine
 10
10.29421773584784
 20
2.821992202081671
 11
10.13406676638052
 21
2.731173072227562
  0
LINE
  5
B6
100
AcDbEntity
  8
text
  6
ByLayer
 62
  256
370
   -1
100
AcDbLine
 10
10.13406676638052
 20
2.731173072227562
 11
10.13597906789796
 21
1.379258230752751
  0
SPLINE
  5
B7
100
AcDbEntity
  8
text
  6
ByLayer
 62
  256
370
   -1
100
AcDbSpline
210
0
220
0
230
0
 70
    8
 71
    3
 72
    9
 73
    5
 74
    0
 42
1e-07
 43
1e-07
 40
0
 40
0
 40
0
 40
0
 40
0.0935566173137044
 40
0.1846955926978147
 40
0.1846955926978147
 40
0.1846955926978147
 40
0.1846955926978147
 10
10.13597906789796
 20
1.379258230752751
 30
0
 10
10.13752087720561
 20
1.067394779592759
 30
0
 10
10.14056465317871
 20
0.4517268919900852
 30
0
 10
10.1579086315364
 20
-0.1637034503648982
 30
0
 10
10.16646710547458
 20
-0.4673906689023521
 30
0
  0
LINE
  5
B8
100
AcDbEntity
  8
text
  6
ByLayer
 62
  256
370
   -1
100
AcDbLine
 10
20.94141595184488
 20
-1.469571862348449
 11
20.94208624327225
 21
-1.943439043081039
  0
SPLINE
  5
B9
100
AcDbEntity
  8
text
  6
ByLayer
 62
  256
370
   -1
100
AcDbSpline
210
0
220
0
230
0
 70
    8
 71
    3
 72
    9
 73
    5
 74
    0
 42
1e-07
 43
1e-07
 40
0
 40
0
 40
0
 40
0
 40
0.1030694053366292
 40
0.1764308707973042
 40
0.1764308707973042
 40
0.1764308707973042
 40
0.1764308707973042
 10
20.94208624327225
 20
-1.943439043081039
 30
0
 10
20.59893587534278
 20
-1.925810256150537
 30
0
 10
20.01154218629918
 20
-1.895633869480893
 30
0
 10
19.42346116649986
 20
-1.886862850706743
 30
0
 10
19.17893204737734
 20
-1.883215786063532
 30
0
  0
SPLINE
  5
BA
100
AcDbEntity
  8
text
  6
ByLayer
 62
  256
370
   -1
100
AcDbSpline
210
0
220
0
230
0
 70
    8
 71
    3
 72
    9
 73
    5
 74
    0
 42
1e-07
 43
1e-07
 40
0
 40
0
 40
0
 40
0
 40
0.07074901678090698
 40
0.1478960266920268
 40
0.1478960266920268
 40
0.1478960266920268
 40
0.1478960266920268
 10
19.17893204737734
 20
-1.883215786063532
 30
0
 10
18.94307335684054
 20
-1.886586841631521
 30
0
 10
18.45002674250809
 20
-1.893633804924413
 30
0
 10
17.95821488727641
 20
-1.929377610709975
 30
0
 10
17.70167105091646
 20
-1.948022653453023
 30
0
  0
LINE
  5
BB
100
AcDbEntity
  8
text
  6
ByLayer
 62
  256
370
   -1
100
AcDbLine
 10
17.70167105091647
 20
-1.948022653453023
 11
17.7010007594891
 21
-1.474155472720442
  0
SPLINE
  5
BC
100
AcDbEntity
  8
text
  6
ByLayer
 62
  256
370
   -1
100
AcDbSpline
210
0
220
0
230
0
 70
    8
 71
    3
 72
    9
 73
    5
 74
    0
 42
1e-07
 43
1e-07
 40
0
 40
0
 40
0
 40
0
 40
0.04462130302103617
 40
0.06847779599372801
 40
0.06847779599372801
 40
0.06847779599372801
 40
0.06847779599372801
 10
17.7010007594891
 20
-1.474155472720442
 30
0
 10
17.84997330836472
 20
-1.473447816930671
 30
0
 10
18.07859307336262
 20
-1.472361817519516
 30
0
 10
18.30499318469135
 20
-1.441967056165385
 30
0
 10
18.38386711143726
 20
-1.431378041140463
 30
0
  0
SPLINE
  5
BD
100
AcDbEntity
  8
text
  6
ByLayer
 62
  256
370
   -1
100
AcDbSpline
210
0
220
0
230
0
 70
    8
 71
    3
 72
    9
 73
    5
 74
    0
 42
1e-07
 43
1e-07
 40
0
 40
0
 40
0
 40
0
 40
0.01443463744611164
 40
0.02924288691999051
 40
0.02924288691999051
 40
0.02924288691999051
 40
0.02924288691999051
 10
18.38386711143726
 20
-1.431378041140463
 30
0
 10
18.42937035259267
 20
-1.414545429249601
 30
0
 10
18.52155459626127
 20
-1.380444526616609
 30
0
 10
18.59655124630978
 20
-1.316873577771558
 30
0
 10
18.63452865622357
 20
-1.284682006796904
 30
0
  0
SPLINE
  5
BE
100
AcDbEntity
  8
text
  6
ByLayer
 62
  256
370
   -1
100
AcDbSpline
210
0
220
0
230
0
 70
    8
 71
    3
 72
    9
 73
    5
 74
    0
 42
1e-07
 43
1e-07
 40
0
 40
0
 40
0
 40
0
 40
0.0243235293017578
 40
0.06577870340138513
 40
0.06577870340138513
 40
0.06577870340138513
 40
0.06577870340138513
 10
18.63452865622357
 20
-1.284682006796904
 30
0
 10
18.68393023885361
 20
-1.220150388414374
 30
0
 10
18.81752812306957
 20
-1.045635985798903
 30
0
 10
18.90996846366495
 20
-0.8457323198079525
 30
0
 10
18.96822638325068
 20
-0.719748667831106
 30
0
  0
SPLINE
  5
BF
100
AcDbEntity
  8
text
  6
ByLayer
 62
  256
370
   -1
100
AcDbSpline
210
0
220
0
230
0
 70
    8
 71
    3
 72
    9
 73
    5
 74
    0
 42
1e-07
 43
1e-07
 40
0
 40
0
 40
0
 40
0
 40
0.06827409840028474
 40
0.2157599017085484
 40
0.2157599017085484
 40
0.2157599017085484
 40
0.2157599017085484
 10
18.96822638325068
 20
-0.719748667831106
 30
0
 10
19.0645290296336
 20
-0.513547443085054
 30
0
 10
19.36886478806473
 20
0.1380899571270966
 30
0
 10
19.66734735921818
 20
0.7924329851844103
 30
0
 10
19.87137944039492
 20
1.239718631720144
 30
0
  0
LINE
  5
C0
100
AcDbEntity
  8
text
  6
ByLayer
 62
  256
370
   -1
100
AcDbLine
 10
19.87137944039492
 20
1.239718631720144
 11
21.60797615833516
 21
5.172492590032824
  0
SPLINE
  5
C1
100
AcDbEntity
  8
text
  6
ByLayer
 62
  256
370
   -1
100
AcDbSpline
210
0
220
0
230
0
 70
    8
 71
    3
 72
    9
 73
    5
 74
    0
 42
1e-07
 43
1e-07
 40
0
 40
0
 40
0
 40
0
 40
0.1137150589772811
 40
0.313219908399187
 40
0.313219908399187
 40
0.313219908399187
 40
0.313219908399187
 10
21.60797615833516
 20
5.172492590032824
 30
0
 10
21.75720257563045
 20
5.520935199708563
 30
0
 10
22.16823595305946
 20
6.480695175797693
 30
0
 10
22.56847702595612
 20
7.445012168542648
 30
0
 10
22.82340984740038
 20
8.059232118404132
 30
0
  0
LINE
  5
C2
100
AcDbEntity
  8
text
  6
ByLayer
 62
  256
370
   -1
100
AcDbLine
 10
22.82340984740038
 20
8.059232118404132
 11
23.276371315939
 21
8.059872838423651
  0
LINE
  5
C3
100
AcDbEntity
  8
text
  6
ByLayer
 62
  256
370
   -1
100
AcDbLine
 10
23.276371315939
 20
8.059872838423651
 11
26.26186205469906
 21
1.074541848023669
  0
SPLINE
  5
C4
100
AcDbEntity
  8
text
  6
ByLayer
 62
  256
370
   -1
100
AcDbSpline
210
0
220
0
230
0
 70
    8
 71
    3
 72
    9
 73
    5
 74
    0
 42
1e-07
 43
1e-07
 40
0
 40
0
 40
0
 40
0
 40
0.1508908096269165
 40
0.233956482335025
 40
0.233956482335025
 40
0.233956482335025
 40
0.233956482335025
 10
26.26186205469906
 20
1.074541848023669
 30
0
 10
26.45816617430902
 20
0.6113127927448758
 30
0
 10
26.76253607864832
 20
-0.1069247232202475
 30
0
 10
27.10496849344866
 20
-0.8076933867024882
 30
0
 10
27.22654827875131
 20
-1.056499574348782
 30
0
  0
SPLINE
  5
C5
100
AcDbEntity
  8
text
  6
ByLayer
 62
  256
370
   -1
100
AcDbSpline
210
0
220
0
230
0
 70
    8
 71
    3
 72
    9
 73
    5
 74
    0
 42
1e-07
 43
1e-07
 40
0
 40
0
 40
0
 40
0
 40
0.0244507385524608
 40
0.04341453364835106
 40
0.04341453364835106
 40
0.04341453364835106
 40
0.04341453364835106
 10
27.22654827875131
 20
-1.056499574348782
 30
0
 10
27.26752578411531
 20
-1.128437263190518
 30
0
 10
27.34028511126755
 20
-1.256169241760552
 30
0
 10
27.46029587636403
 20
-1.340024049535673
 30
0
 10
27.51271748192647
 20
-1.376652460780003
 30
0
  0
SPLINE
  5
C6
100
AcDbEntity
  8
text
  6
ByLayer
 62
  256
370
   -1
100
AcDbSpline
210
0
220
0
230
0
 70
    8
 71
    3
 72
    9
 73
    5
 74
    0
 42
1e-07
 43
1e-07
 40
0
 40
0
 40
0
 40
0
 40
0.02645566134154307
 40
0.07181747186160321
 40
0.07181747186160321
 40
0.07181747186160321
 40
0.07181747186160321
 10
27.51271748192647
 20
-1.376652460780003
 30
0
 10
27.59830708793933
 20
-1.399039415719594
 30
0
 10
27.8306516527611
 20
-1.459811833603419
 30
0
 10
28.07150671979016
 20
-1.459480403600057
 30
0
 10
28.22363713638882
 20
-1.459271063663365
 30
0
  0
LINE
  5
C7
100
AcDbEntity
  8
text
  6
ByLayer
 62
  256
370
   -1
100
AcDbLine
 10
28.22363713638881
 20
-1.459271063663365
 11
28.22430742781618
 21
-1.933138244395947
  0
SPLINE
  5
C8
100
AcDbEntity
  8
text
  6
ByLayer
 62
  256
370
   -1
100
AcDbSpline
210
0
220
0
230
0
 70
    8
 71
    3
 72
    9
 73
    5
 74
    0
 42
1e-07
 43
1e-07
 40
0
 40
0
 40
0
 40
0
 40
0.09248254856710618
 40
0.1520897689060715
 40
0.1520897689060715
 40
0.1520897689060715
 40
0.1520897689060715
 10
28.22430742781618
 20
-1.933138244395947
 30
0
 10
27.9166067353584
 20
-1.913594320384684
 30
0
 10
27.41058556776281
 20
-1.881453868673026
 30
0
 10
26.90370329660606
 20
-1.870064681706065
 30
0
 10
26.7050453366389
 20
-1.865601016714633
 30
0
  0
LINE
  5
C9
100
AcDbEntity
  8
text
  6
ByLayer
 62
  256
370
   -1
100
AcDbLine
 10
26.7050453366389
 20
-1.865601016714633
 11
24.4612458543364
 21
-1.938461145022794
  0
LINE
  5
CA
100
AcDbEntity
  8
text
  6
ByLayer
 62
  256
370
   -1
100
AcDbLine
 10
24.4612458543364
 20
-1.938461145022794
 11
24.46057556290902
 21
-1.464593964290204
  0
SPLINE
  5
CB
100
AcDbEntity
  8
text
  6
ByLayer
 62
  256
370
   -1
100
AcDbSpline
210
0
220
0
230
0
 70
    8
 71
    3
 72
    9
 73
    5
 74
    0
 42
1e-07
 43
1e-07
 40
0
 40
0
 40
0
 40
0
 40
0.06274718663904184
 40
0.0949390884396063
 40
0.0949390884396063
 40
0.0949390884396063
 40
0.0949390884396063
 10
24.46057556290902
 20
-1.464593964290204
 30
0
 10
24.66989292309661
 20
-1.462157691833861
 30
0
 10
24.98659874586299
 20
-1.458471510849741
 30
0
 10
25.30147159943668
 20
-1.425614225355778
 30
0
 10
25.40823853967707
 20
-1.4144729923248
 30
0
  0
SPLINE
  5
CC
100
AcDbEntity
  8
text
  6
ByLayer
 62
  256
370
   -1
100
AcDbSpline
210
0
220
0
230
0
 70
    8
 71
    3
 72
    9
 73
    5
 74
    0
 42
1e-07
 43
1e-07
 40
0
 40
0
 40
0
 40
0
 40
0.01455115616909337
 40
0.02460135981720044
 40
0.02460135981720044
 40
0.02460135981720044
 40
0.02460135981720044
 10
25.40823853967707
 20
-1.4144729923248
 30
0
 10
25.4564866033293
 20
-1.404302149473104
 30
0
 10
25.53805867640709
 20
-1.387106501118351
 30
0
 10
25.60411322574407
 20
-1.337047139248493
 30
0
 10
25.63109798096303
 20
-1.316596774511556
 30
0
  0
SPLINE
  5
CD
100
AcDbEntity
  8
text
  6
ByLayer
 62
  256
370
   -1
100
AcDbSpline
210
0
220
0
230
0
 70
    8
 71
    3
 72
    9
 73
    5
 74
    0
 42
1e-07
 43
1e-07
 40
0
 40
0
 40
0
 40
0
 40
0.00899376016430079
 40
0.01818762013274648
 40
0.01818762013274648
 40
0.01818762013274648
 40
0.01818762013274648
 10
25.63109798096303
 20
-1.316596774511556
 30
0
 10
25.6493560444658
 20
-1.292005326395769
 30
0
 10
25.68627839032359
 20
-1.242275301503692
 30
0
 10
25.69112816884672
 20
-1.180492457645066
 30
0
 10
25.6935797366876
 20
-1.149261168958433
 30
0
  0
SPLINE
  5
CE
100
AcDbEntity
  8
text
  6
ByLayer
 62
  256
370
   -1
100
AcDbSpline
210
0
220
0
230
0
 70
    8
 71
    3
 72
    9
 73
    5
 74
    0
 42
1e-07
 43
1e-07
 40
0
 40
0
 40
0
 40
0
 40
0.01776393969392074
 40
0.04106808984942742
 40
0.04106808984942742
 40
0.04106808984942742
 40
0.04106808984942742
 10
25.6935797366876
 20
-1.149261168958433
 30
0
 10
25.68763075960733
 20
-1.090090491668345
 30
0
 10
25.67387744083601
 20
-0.9532950097385884
 30
0
 10
25.62384696158811
 20
-0.8249925106259592
 30
0
 10
25.59545708991356
 20
-0.752187062025591
 30
0
  0
LINE
  5
CF
100
AcDbEntity
  8
text
  6
ByLayer
 62
  256
370
   -1
100
AcDbLine
 10
25.59545708991356
 20
-0.752187062025591
 11
24.73529823389629
 21
1.379002811745713
  0
LINE
  5
D0
100
AcDbEntity
  8
text
  6
ByLayer
 62
  256
370
   -1
100
AcDbLine
 10
24.73529823389629
 20
1.379002811745713
 11
20.70045882561995
 21
1.37329547775817
  0
LINE
  5
D1
100
AcDbEntity
  8
text
  6
ByLayer
 62
  256
370
   -1
100
AcDbLine
 10
20.70045882561995
 20
1.37329547775817
 11
19.94341037213299
 21
-0.4187173345627127
  0
SPLINE
  5
D2
100
AcDbEntity
  8
text
  6
ByLayer
 62
  256
370
   -1
100
AcDbSpline
210
0
220
0
230
0
 70
    8
 71
    3
 72
    9
 73
    5
 74
    0
 42
1e-07
 43
1e-07
 40
0
 40
0
 40
0
 40
0
 40
0.04431051342140926
 40
0.07349674434891092
 40
0.07349674434891092
 40
0.07349674434891092
 40
0.07349674434891092
 10
19.94341037213299
 20
-0.4187173345627127
 30
0
 10
19.88555868036503
 20
-0.5555778784622234
 30
0
 10
19.78960152095269
 20
-0.7825850519240163
 30
0
 10
19.75575754977714
 20
-1.026124029477922
 30
0
 10
19.74231779857478
 20
-1.122835589992666
 30
0
  0
SPLINE
  5
D3
100
AcDbEntity
  8
text
  6
ByLayer
 62
  256
370
   -1
100
AcDbSpline
210
0
220
0
230
0
 70
    8
 71
    3
 72
    9
 73
    5
 74
    0
 42
1e-07
 43
1e-07
 40
0
 40
0
 40
0
 40
0
 40
0.008993683959911054
 40
0.01727021911100364
 40
0.01727021911100364
 40
0.01727021911100364
 40
0.01727021911100364
 10
19.74231779857478
 20
-1.122835589992666
 30
0
 10
19.74427358477214
 20
-1.153424477827851
 30
0
 10
19.74802920441736
 20
-1.21216312126144
 30
0
 10
19.78200771726716
 20
-1.26007478631724
 30
0
 10
19.79829149190693
 20
-1.283035848793217
 30
0
  0
SPLINE
  5
D4
100
AcDbEntity
  8
text
  6
ByLayer
 62
  256
370
   -1
100
AcDbSpline
210
0
220
0
230
0
 70
    8
 71
    3
 72
    9
 73
    5
 74
    0
 42
1e-07
 43
1e-07
 40
0
 40
0
 40
0
 40
0
 40
0.01240731145181237
 40
0.02717377603974614
 40
0.02717377603974614
 40
0.02717377603974614
 40
0.02717377603974614
 10
19.79829149190693
 20
-1.283035848793217
 30
0
 10
19.82936425805512
 20
-1.311257930170475
 30
0
 10
19.89741803356689
 20
-1.373068300749116
 30
0
 10
19.98682161969996
 20
-1.395789350914214
 30
0
 10
20.03540430054408
 20
-1.408136165805627
 30
0
  0
SPLINE
  5
D5
100
AcDbEntity
  8
text
  6
ByLayer
 62
  256
370
   -1
100
AcDbSpline
210
0
220
0
230
0
 70
    8
 71
    3
 72
    9
 73
    5
 74
    0
 42
1e-07
 43
1e-07
 40
0
 40
0
 40
0
 40
0
 40
0.03580597329269668
 40
0.0908915993832967
 40
0.0908915993832967
 40
0.0908915993832967
 40
0.0908915993832967
 10
20.03540430054408
 20
-1.408136165805627
 30
0
 10
20.15373428810438
 20
-1.424528198048431
 30
0
 10
20.45410880205607
 20
-1.466138518636888
 30
0
 10
20.75752685984851
 20
-1.468276263755444
 30
0
 10
20.94141595184488
 20
-1.469571862348453
 30
0
  0
SPLINE
  5
D6
100
AcDbEntity
  8
text
  6
ByLayer
 62
  256
370
   -1
100
AcDbSpline
210
0
220
0
230
0
 70
    8
 71
    3
 72
    9
 73
    5
 74
    0
 42
1e-07
 43
1e-07
 40
0
 40
0
 40
0
 40
0
 40
0.06672352691637069
 40
0.1460243281531241
 40
0.1460243281531241
 40
0.1460243281531241
 40
0.1460243281531241
 10
6.314797402181416
 20
-1.873537539489947
 30
0
 10
6.093822718429296
 20
-1.900221495237795
 30
0
 10
5.610219989002285
 20
-1.958619288199657
 30
0
 10
5.123044095188432
 20
-1.96352525952971
 30
0
 10
4.858475586561859
 20
-1.966189524191906
 30
0
  0
LINE
  5
D7
100
AcDbEntity
  8
text
  6
ByLayer
 62
  256
370
   -1
100
AcDbLine
 10
4.858475586561859
 20
-1.966189524191906
 11
0.698125431093457
 21
-1.916324922675718
  0
SPLINE
  5
D8
100
AcDbEntity
  8
text
  6
ByLayer
 62
  256
370
   -1
100
AcDbSpline
210
0
220
0
230
0
 70
    8
 71
    3
 72
    9
 73
    5
 74
    0
 42
1e-07
 43
1e-07
 40
0
 40
0
 40
0
 40
0
 40
0.05019359174822621
 40
0.182663681821823
 40
0.182663681821823
 40
0.182663681821823
 40
0.182663681821823
 10
0.698125431093457
 20
-1.916324922675718
 30
0
 10
0.5308820036883155
 20
-1.921120250883668
 30
0
 10
-0.07774748757340078
 20
-1.938571329308232
 30
0
 10
-0.6862692206467091
 20
-1.959487902806352
 30
0
 10
-1.127577136856344
 20
-1.974656875355745
 30
0
  0
LINE
  5
D9
100
AcDbEntity
  8
text
  6
ByLayer
 62
  256
370
   -1
100
AcDbLine
 10
-1.127577136856344
 20
-1.974656875355745
 11
-1.128198141479819
 21
-1.535633343007556
  0
SPLINE
  5
DA
100
AcDbEntity
  8
text
  6
ByLayer
 62
  256
370
   -1
100
AcDbSpline
210
0
220
0
230
0
 70
    8
 71
    3
 72
    9
 73
    5
 74
    0
 42
1e-07
 43
1e-07
 40
0
 40
0
 40
0
 40
0
 40
0.06070827000012573
 40
0.09714047626724508
 40
0.09714047626724508
 40
0.09714047626724508
 40
0.09714047626724508
 10
-1.128198141479819
 20
-1.535633343007556
 30
0
 10
-0.9246429757338603
 20
-1.535535334726825
 30
0
 10
-0.5989304204727741
 20
-1.535378509782404
 30
0
 10
-0.2845814572723704
 20
-1.453487334578814
 30
0
 10
-0.1666859444311086
 20
-1.422774326972522
 30
0
  0
SPLINE
  5
DB
100
AcDbEntity
  8
text
  6
ByLayer
 62
  256
370
   -1
100
AcDbSpline
210
0
220
0
230
0
 70
    8
 71
    3
 72
    9
 73
    5
 74
    0
 42
1e-07
 43
1e-07
 40
0
 40
0
 40
0
 40
0
 40
0.009954649736800981
 40
0.0195745469013102
 40
0.0195745469013102
 40
0.0195745469013102
 40
0.0195745469013102
 10
-0.1666859444311086
 20
-1.422774326972522
 30
0
 10
-0.1366357889452097
 20
-1.407028219656077
 30
0
 10
-0.07754599739025814
 20
-1.376065511341045
 30
0
 10
-0.04399140399009127
 20
-1.318475379263382
 30
0
 10
-0.02750102290827172
 20
-1.290172749778735
 30
0
  0
SPLINE
  5
DC
100
AcDbEntity
  8
text
  6
ByLayer
 62
  256
370
   -1
100
AcDbSpline
210
0
220
0
230
0
 70
    8
 71
    3
 72
    9
 73
    5
 74
    0
 42
1e-07
 43
1e-07
 40
0
 40
0
 40
0
 40
0
 40
0.02594643629227188
 40
0.07400888611993636
 40
0.07400888611993636
 40
0.07400888611993636
 40
0.07400888611993636
 10
-0.02750102290827172
 20
-1.290172749778735
 30
0
 10
-0.005623414039561681
 20
-1.206289500223159
 30
0
 10
0.05677966301895765
 20
-0.9670232752280317
 30
0
 10
0.0642035644859007
 20
-0.7192417785454985
 30
0
 10
0.06902475435221156
 20
-0.558328861504318
 30
0
  0
SPLINE
  5
DD
100
AcDbEntity
  8
text
  6
ByLayer
 62
  256
370
   -1
100
AcDbSpline
210
0
220
0
230
0
 70
    8
 71
    3
 72
    9
 73
    5
 74
    0
 42
1e-07
 43
1e-07
 40
0
 40
0
 40
0
 40
0
 40
0.08577169465834311
 40
0.1589498216247811
 40
0.1589498216247811
 40
0.1589498216247811
 40
0.1589498216247811
 10
0.06902475435221156
 20
-0.558328861504318
 30
0
 10
0.08079323855163523
 20
-0.2726411747168145
 30
0
 10
0.1026022802377469
 20
0.2567876425189031
 30
0
 10
0.1067031407030239
 20
0.78664177656246
 30
0
 10
0.108591115692418
 20
1.030578716524944
 30
0
  0
LINE
  5
DE
100
AcDbEntity
  8
text
  6
ByLayer
 62
  256
370
   -1
100
AcDbLine
 10
0.108591115692418
 20
1.030578716524944
 11
0.103554073132246
 21
4.591550944068694
  0
SPLINE
  5
DF
100
AcDbEntity
  8
text
  6
ByLayer
 62
  256
370
   -1
100
AcDbSpline
210
0
220
0
230
0
 70
    8
 71
    3
 72
    9
 73
    5
 74
    0
 42
1e-07
 43
1e-07
 40
0
 40
0
 40
0
 40
0
 40
0.09372970129756301
 40
0.1853807320643781
 40
0.1853807320643781
 40
0.1853807320643781
 40
0.1853807320643781
 10
0.103554073132246
 20
4.591550944068694
 30
0
 10
0.1022812469225887
 20
4.903987274130261
 30
0
 10
0.09976382233602976
 20
5.521930943943567
 30
0
 10
0.08655374105916991
 20
6.139738181546379
 30
0
 10
0.08002276261252383
 20
6.445178070098732
 30
0
  0
SPLINE
  5
E0
100
AcDbEntity
  8
text
  6
ByLayer
 62
  256
370
   -1
100
AcDbSpline
210
0
220
0
230
0
 70
    8
 71
    3
 72
    9
 73
    5
 74
    0
 42
1e-07
 43
1e-07
 40
0
 40
0
 40
0
 40
0
 40
0.05274028892029682
 40
0.0790676438677521
 40
0.0790676438677521
 40
0.0790676438677521
 40
0.0790676438677521
 10
0.08002276261252383
 20
6.445178070098732
 30
0
 10
0.07864230116264359
 20
6.622398780226373
 30
0
 10
0.07657272899066925
 20
6.888086061832643
 30
0
 10
-8.402164601406525e-05
 20
7.141227830476651
 30
0
 10
-0.02560861532816538
 20
7.225517090521691
 30
0
  0
SPLINE
  5
E1
100
AcDbEntity
  8
text
  6
ByLayer
 62
  256
370
   -1
100
AcDbSpline
210
0
220
0
230
0
 70
    8
 71
    3
 72
    9
 73
    5
 74
    0
 42
1e-07
 43
1e-07
 40
0
 40
0
 40
0
 40
0
 40
0.01491046793820343
 40
0.03205557371532171
 40
0.03205557371532171
 40
0.03205557371532171
 40
0.03205557371532171
 10
-0.02560861532816538
 20
7.225517090521691
 30
0
 10
-0.05744153037977817
 20
7.264917298207454
 30
0
 10
-0.1258781722906388
 20
7.349622638583386
 30
0
 10
-0.2287064914121384
 20
7.386573708596944
 30
0
 10
-0.2837048022793276
 20
7.406337198390838
 30
0
  0
SPLINE
  5
E2
100
AcDbEntity
  8
text
  6
ByLayer
 62
  256
370
   -1
100
AcDbSpline
210
0
220
0
230
0
 70
    8
 71
    3
 72
    9
 73
    5
 74
    0
 42
1e-07
 43
1e-07
 40
0
 40
0
 40
0
 40
0
 40
0.03417326817466296
 40
0.1007750484032346
 40
0.1007750484032346
 40
0.1007750484032346
 40
0.1007750484032346
 10
-0.2837048022793276
 20
7.406337198390838
 30
0
 10
-0.3961932491472631
 20
7.425116422116127
 30
0
 10
-0.7279153607106892
 20
7.480495298090721
 30
0
 10
-1.064709092814731
 20
7.481143706919187
 30
0
 10
-1.287294568915911
 20
7.481572237423273
 30
0
  0
LINE
  5
E3
100
AcDbEntity
  8
text
  6
ByLayer
 62
  256
370
   -1
100
AcDbLine
 10
-1.287294568915911
 20
7.481572237423273
 11
-1.287925431237404
 21
7.927564737866679
  0
LINE
  5
E4
100
AcDbEntity
  8
text
  6
ByLayer
 62
  256
370
   -1
100
AcDbLine
 10
-1.287925431237404
 20
7.927564737866679
 11
0.6981942513796646
 21
7.888562622517652
  0
LINE
  5
E5
100
AcDbEntity
  8
text
  6
ByLayer
 62
  256
370
   -1
100
AcDbLine
 10
0.6981942513796646
 20
7.888562622517652
 11
2.802673194472192
 21
7.926382558016596
  0
SPLINE
  5
E6
100
AcDbEntity
  8
text
  6
ByLayer
 62
  256
370
   -1
100
AcDbSpline
210
0
220
0
230
0
 70
    8
 71
    3
 72
    9
 73
    5
 74
    0
 42
1e-07
 43
1e-07
 40
0
 40
0
 40
0
 40
0
 40
0.1304968617571625
 40
0.2195229396676103
 40
0.2195229396676103
 40
0.2195229396676103
 40
0.2195229396676103
 10
2.802673194472192
 20
7.926382558016596
 30
0
 10
3.237615278136659
 20
7.933018645711796
 30
0
 10
3.969278580269195
 20
7.944181929327412
 30
0
 10
4.701011737189509
 20
7.948601119819205
 30
0
 10
4.997761284805282
 20
7.950393293327904
 30
0
  0
SPLINE
  5
E7
100
AcDbEntity
  8
text
  6
ByLayer
 62
  256
370
   -1
100
AcDbSpline
210
0
220
0
230
0
 70
    8
 71
    3
 72
    9
 73
    5
 74
    0
 42
1e-07
 43
1e-07
 40
0
 40
0
 40
0
 40
0
 40
0.0671007159765464
 40
0.1306020265800087
 40
0.1306020265800087
 40
0.1306020265800087
 40
0.1306020265800087
 10
4.997761284805282
 20
7.950393293327904
 30
0
 10
5.221555404938458
 20
7.947882980222518
 30
0
 10
5.657138918477997
 20
7.942997011807087
 30
0
 10
6.090364313607575
 20
7.897637043340575
 30
0
 10
6.301007142802701
 20
7.875582121820726
 30
0
  0
SPLINE
  5
E8
100
AcDbEntity
  8
text
  6
ByLayer
 62
  256
370
   -1
100
AcDbSpline
210
0
220
0
230
0
 70
    8
 71
    3
 72
    9
 73
    5
 74
    0
 42
1e-07
 43
1e-07
 40
0
 40
0
 40
0
 40
0
 40
0.03828208060592164
 40
0.07070918113507704
 40
0.07070918113507704
 40
0.07070918113507704
 40
0.07070918113507704
 10
6.301007142802701
 20
7.875582121820726
 30
0
 10
6.267642124993582
 20
7.752319499969373
 30
0
 10
6.20601503862579
 20
7.524646423748864
 30
0
 10
6.166700194209778
 20
7.292110669761334
 30
0
 10
6.148670478807885
 20
7.185470200304165
 30
0
  0
SPLINE
  5
E9
100
AcDbEntity
  8
text
  6
ByLayer
 62
  256
370
   -1
100
AcDbSpline
210
0
220
0
230
0
 70
    8
 71
    3
 72
    9
 73
    5
 74
    0
 42
1e-07
 43
1e-07
 40
0
 40
0
 40
0
 40
0
 40
0.03955891817040717
 40
0.145492575961053
 40
0.145492575961053
 40
0.145492575961053
 40
0.145492575961053
 10
6.148670478807885
 20
7.185470200304165
 30
0
 10
6.135817252921845
 20
7.054232846470971
 30
0
 10
6.08854475331726
 20
6.5715588615745
 30
0
 10
6.051937786024588
 20
6.087941007549129
 30
0
 10
6.025284124005603
 20
5.735817142043547
 30
0
  0
LINE
  5
EA
100
AcDbEntity
  8
text
  6
ByLayer
 62
  256
370
   -1
100
AcDbLine
 10
6.025284124005602
 20
5.735817142043547
 11
5.586260591657419
 21
5.735196137420076
  0
SPLINE
  5
EB
100
AcDbEntity
  8
text
  6
ByLayer
 62
  256
370
   -1
100
AcDbSpline
210
0
220
0
230
0
 70
    8
 71
    3
 72
    9
 73
    5
 74
    0
 42
1e-07
 43
1e-07
 40
0
 40
0
 40
0
 40
0
 40
0.06797123657115532
 40
0.1300559667645255
 40
0.1300559667645255
 40
0.1300559667645255
 40
0.1300559667645255
 10
5.586260591657419
 20
5.735196137420076
 30
0
 10
5.584696260042836
 20
5.962044555807422
 30
0
 10
5.581703072472051
 20
6.396095661108179
 30
0
 10
5.522228874107542
 20
6.826006992539662
 30
0
 10
5.493837715664096
 20
7.031233478359584
 30
0
  0
SPLINE
  5
EC
100
AcDbEntity
  8
text
  6
ByLayer
 62
  256
370
   -1
100
AcDbSpline
210
0
220
0
230
0
 70
    8
 71
    3
 72
    9
 73
    5
 74
    0
 42
1e-07
 43
1e-07
 40
0
 40
0
 40
0
 40
0
 40
0.04242098360847305
 40
0.08725201372696068
 40
0.08725201372696068
 40
0.08725201372696068
 40
0.08725201372696068
 10
5.493837715664096
 20
7.031233478359584
 30
0
 10
5.360806837620311
 20
7.080352504995635
 30
0
 10
5.087187251042238
 20
7.181381138038638
 30
0
 10
4.798601335248609
 20
7.224112690805606
 30
0
 10
4.650322764587758
 20
7.246068625657731
 30
0
  0
SPLINE
  5
ED
100
AcDbEntity
  8
text
  6
ByLayer
 62
  256
370
   -1
100
AcDbSpline
210
0
220
0
230
0
 70
    8
 71
    3
 72
    9
 73
    5
 74
    0
 42
1e-07
 43
1e-07
 40
0
 40
0
 40
0
 40
0
 40
0.07839094319166148
 40
0.1564777496665117
 40
0.1564777496665117
 40
0.1564777496665117
 40
0.1564777496665117
 10
4.650322764587758
 20
7.246068625657731
 30
0
 10
4.390374236805732
 20
7.274156180118978
 30
0
 10
3.871485714734959
 20
7.330222316547341
 30
0
 10
3.349631942018778
 20
7.337693208552114
 30
0
 10
3.0892122041001
 20
7.341421394184988
 30
0
  0
SPLINE
  5
EE
100
AcDbEntity
  8
text
  6
ByLayer
 62
  256
370
   -1
100
AcDbSpline
210
0
220
0
230
0
 70
    8
 71
    3
 72
    9
 73
    5
 74
    0
 42
1e-07
 43
1e-07
 40
0
 40
0
 40
0
 40
0
 40
0.02701227872539556
 40
0.07461937259485205
 40
0.07461937259485205
 40
0.07461937259485205
 40
0.07461937259485205
 10
3.0892122041001
 20
7.341421394184988
 30
0
 10
2.999193903980242
 20
7.339266404244076
 30
0
 10
2.750525172797484
 20
7.333313407868847
 30
0
 10
2.502101740413973
 20
7.320601913185198
 30
0
 10
2.343607809768553
 20
7.312491990793979
 30
0
  0
SPLINE
  5
EF
100
AcDbEntity
  8
text
  6
ByLayer
 62
  256
370
   -1
100
AcDbSpline
210
0
220
0
230
0
 70
    8
 71
    3
 72
    9
 73
    5
 74
    0
 42
1e-07
 43
1e-07
 40
0
 40
0
 40
0
 40
0
 40
0.04972034337285484
 40
0.08307245796503128
 40
0.08307245796503128
 40
0.08307245796503128
 40
0.08307245796503128
 10
2.343607809768553
 20
7.312491990793979
 30
0
 10
2.178067874944922
 20
7.304308338108556
 30
0
 10
1.901484723174551
 20
7.290635139220694
 30
0
 10
1.625295285719579
 20
7.270587400260435
 30
0
 10
1.514410138069016
 20
7.262538589577625
 30
0
  0
SPLINE
  5
F0
100
AcDbEntity
  8
text
  6
ByLayer
 62
  256
370
   -1
100
AcDbSpline
210
0
220
0
230
0
 70
    8
 71
    3
 72
    9
 73
    5
 74
    0
 42
1e-07
 43
1e-07
 40
0
 40
0
 40
0
 40
0
 40
0.07495260014173044
 40
0.1450090724645331
 40
0.1450090724645331
 40
0.1450090724645331
 40
0.1450090724645331
 10
1.514410138069016
 20
7.262538589577625
 30
0
 10
1.506138021188628
 20
7.012831175626317
 30
0
 10
1.490134146821687
 20
6.52972798219305
 30
0
 10
1.479691608686995
 20
6.046472951649617
 30
0
 10
1.474646632042562
 20
5.813003816948394
 30
0
  0
LINE
  5
F1
100
AcDbEntity
  8
text
  6
ByLayer
 62
  256
370
   -1
100
AcDbLine
 10
1.474646632042562
 20
5.813003816948394
 11
1.450107270612397
 21
3.457565829382876
  0
SPLINE
  5
F2
100
AcDbEntity
  8
text
  6
ByLayer
 62
  256
370
   -1
100
AcDbSpline
210
0
220
0
230
0
 70
    8
 71
    3
 72
    9
 73
    5
 74
    0
 42
1e-07
 43
1e-07
 40
0
 40
0
 40
0
 40
0
 40
0.07828558288938334
 40
0.149896033589585
 40
0.149896033589585
 40
0.149896033589585
 40
0.149896033589585
 10
1.450107270612397
 20
3.457565829382876
 30
0
 10
1.710819323853672
 20
3.445746818524693
 30
0
 10
2.210013444245975
 20
3.423116561672712
 30
0
 10
2.709702249312773
 20
3.419568659479859
 30
0
 10
2.948420644214744
 20
3.417873705524199
 30
0
  0
SPLINE
  5
F3
100
AcDbEntity
  8
text
  6
ByLayer
 62
  256
370
   -1
100
AcDbSpline
210
0
220
0
230
0
 70
    8
 71
    3
 72
    9
 73
    5
 74
    0
 42
1e-07
 43
1e-07
 40
0
 40
0
 40
0
 40
0
 40
0.07685285268678986
 40
0.141742363665276
 40
0.141742363665276
 40
0.141742363665276
 40
0.141742363665276
 10
2.948420644214744
 20
3.417873705524199
 30
0
 10
3.204765654817319
 20
3.420202707514002
 30
0
 10
3.677551588537851
 20
3.424498166114098
 30
0
 10
4.147706947813159
 20
3.473909386423712
 30
0
 10
4.362943596605993
 20
3.496529793194356
 30
0
  0
SPLINE
  5
F4
100
AcDbEntity
  8
text
  6
ByLayer
 62
  256
370
   -1
100
AcDbSpline
210
0
220
0
230
0
 70
    8
 71
    3
 72
    9
 73
    5
 74
    0
 42
1e-07
 43
1e-07
 40
0
 40
0
 40
0
 40
0
 40
0.01876465614319064
 40
0.03118295594913559
 40
0.03118295594913559
 40
0.03118295594913559
 40
0.03118295594913559
 10
4.362943596605993
 20
3.496529793194356
 30
0
 10
4.426678556266683
 20
3.504189622621405
 30
0
 10
4.532592804007383
 20
3.516918666083697
 30
0
 10
4.615489051807318
 20
3.582367660660606
 30
0
 10
4.6485016520126
 20
3.608432067061957
 30
0
  0
SPLINE
  5
F5
100
AcDbEntity
  8
text
  6
ByLayer
 62
  256
370
   -1
100
AcDbSpline
210
0
220
0
230
0
 70
    8
 71
    3
 72
    9
 73
    5
 74
    0
 42
1e-07
 43
1e-07
 40
0
 40
0
 40
0
 40
0
 40
0.01939358560191785
 40
0.05842110993912988
 40
0.05842110993912988
 40
0.05842110993912988
 40
0.05842110993912988
 10
4.6485016520126
 20
3.608432067061957
 30
0
 10
4.669999592650784
 20
3.669602778970305
 30
0
 10
4.734759847885082
 20
3.853873029908264
 30
0
 10
4.74940713535899
 20
4.049398976909835
 30
0
 10
4.759192080714492
 20
4.180017749184293
 30
0
  0
LINE
  5
F6
100
AcDbEntity
  8
text
  6
ByLayer
 62
  256
370
   -1
100
AcDbLine
 10
4.759192080714492
 20
4.180017749184293
 11
4.800311115781808
 21
4.667880813458849
  0
LINE
  5
F7
100
AcDbEntity
  8
text
  6
ByLayer
 62
  256
370
   -1
100
AcDbLine
 10
4.800311115781808
 20
4.667880813458849
 11
5.218430128027745
 21
4.668472248360702
  0
LINE
  5
F8
100
AcDbEntity
  8
text
  6
ByLayer
 62
  256
370
   -1
100
AcDbLine
 10
5.218430128027745
 20
4.668472248360702
 11
5.218617415015965
 21
4.536068411055894
  0
LINE
  5
F9
100
AcDbEntity
  8
text
  6
ByLayer
 62
  256
370
   -1
100
AcDbLine
 10
5.218617415015965
 20
4.536068411055894
 11
5.185825261268135
 21
3.086543499497147
  0
LINE
  5
FA
100
AcDbEntity
  8
text
  6
ByLayer
 62
  256
370
   -1
100
AcDbLine
 10
5.185825261268135
 20
3.086543499497147
 11
5.222964451595837
 21
1.462900704389321
  0
LINE
  5
FB
100
AcDbEntity
  8
text
  6
ByLayer
 62
  256
370
   -1
100
AcDbLine
 10
5.222964451595837
 20
1.462900704389321
 11
4.735160526764508
 21
1.462210699252129
  0
LINE
  5
FC
100
AcDbEntity
  8
text
  6
ByLayer
 62
  256
370
   -1
100
AcDbLine
 10
4.735160526764508
 20
1.462210699252129
 11
4.713585715234885
 21
1.936048310263097
  0
SPLINE
  5
FD
100
AcDbEntity
  8
text
  6
ByLayer
 62
  256
370
   -1
100
AcDbSpline
210
0
220
0
230
0
 70
    8
 71
    3
 72
    9
 73
    5
 74
    0
 42
1e-07
 43
1e-07
 40
0
 40
0
 40
0
 40
0
 40
0.04192923931490912
 40
0.06519088287951547
 40
0.06519088287951547
 40
0.06519088287951547
 40
0.06519088287951547
 10
4.713585715234885
 20
1.936048310263097
 30
0
 10
4.712364573235925
 20
2.077152389070429
 30
0
 10
4.710465961996269
 20
2.296538660456475
 30
0
 10
4.640193084808839
 20
2.503260982609357
 30
0
 10
4.615118065892245
 20
2.577024379611594
 30
0
  0
SPLINE
  5
FE
100
AcDbEntity
  8
text
  6
ByLayer
 62
  256
370
   -1
100
AcDbSpline
210
0
220
0
230
0
 70
    8
 71
    3
 72
    9
 73
    5
 74
    0
 42
1e-07
 43
1e-07
 40
0
 40
0
 40
0
 40
0
 40
0.01552961556444963
 40
0.0353706903916936
 40
0.0353706903916936
 40
0.0353706903916936
 40
0.0353706903916936
 10
4.615118065892245
 20
2.577024379611594
 30
0
 10
4.579706535691823
 20
2.616283424997876
 30
0
 10
4.499052235795116
 20
2.705700933993436
 30
0
 10
4.381281207170886
 20
2.734603546066054
 30
0
 10
4.315217928067803
 20
2.750816373197367
 30
0
  0
SPLINE
  5
FF
100
AcDbEntity
  8
text
  6
ByLayer
 62
  256
370
   -1
100
AcDbSpline
210
0
220
0
230
0
 70
    8
 71
    3
 72
    9
 73
    5
 74
    0
 42
1e-07
 43
1e-07
 40
0
 40
0
 40
0
 40
0
 40
0.05869803952229193
 40
0.1543658351646154
 40
0.1543658351646154
 40
0.1543658351646154
 40
0.1543658351646154
 10
4.315217928067803
 20
2.750816373197367
 30
0
 10
4.120848133133022
 20
2.774609482709769
 30
0
 10
3.609688715032071
 20
2.837181303692833
 30
0
 10
3.094387865273234
 20
2.834144202399895
 30
0
 10
2.775031601392222
 20
2.832261967347507
 30
0
  0
SPLINE
  5
100
100
AcDbEntity
  8
text
  6
ByLayer
 62
  256
370
   -1
100
AcDbSpline
210
0
220
0
230
0
 70
    8
 71
    3
 72
    9
 73
    5
 74
    0
 42
1e-07
 43
1e-07
 40
0
 40
0
 40
0
 40
0
 40
0.05645279697102844
 40
0.1324555117747024
 40
0.1324555117747024
 40
0.1324555117747024
 40
0.1324555117747024
 10
2.775031601392222
 20
2.832261967347507
 30
0
 10
2.586862300688946
 20
2.829852066701992
 30
0
 10
2.145359623014178
 20
2.824197703402831
 30
0
 10
1.704187444459508
 20
2.805991903379232
 30
0
 10
1.451043707239732
 20
2.795545450767132
 30
0
  0
SPLINE
  5
101
100
AcDbEntity
  8
text
  6
ByLayer
 62
  256
370
   -1
100
AcDbSpline
210
0
220
0
230
0
 70
    8
 71
    3
 72
    9
 73
    5
 74
    0
 42
1e-07
 43
1e-07
 40
0
 40
0
 40
0
 40
0
 40
0.08662477830861544
 40
0.2070111897056766
 40
0.2070111897056766
 40
0.2070111897056766
 40
0.2070111897056766
 10
1.451043707239732
 20
2.795545450767132
 30
0
 10
1.441354320597528
 20
2.506939569733735
 30
0
 10
1.41819915073178
 20
1.817244912439158
 30
0
 10
1.418786990771537
 20
1.127139708697698
 30
0
 10
1.419128846460431
 20
0.725812181026404
 30
0
  0
SPLINE
  5
102
100
AcDbEntity
  8
text
  6
ByLayer
 62
  256
370
   -1
100
AcDbSpline
210
0
220
0
230
0
 70
    8
 71
    3
 72
    9
 73
    5
 74
    0
 42
1e-07
 43
1e-07
 40
0
 40
0
 40
0
 40
0
 40
0.1134180506884919
 40
0.1958636076380715
 40
0.1958636076380715
 40
0.1958636076380715
 40
0.1958636076380715
 10
1.419128846460431
 20
0.725812181026404
 30
0
 10
1.419939092043174
 20
0.3477121692962992
 30
0
 10
1.421338319255661
 20
-0.3052353280015829
 30
0
 10
1.446253534417972
 20
-0.9576864463728674
 30
0
 10
1.456741183529244
 20
-1.232324989413982
 30
0
  0
SPLINE
  5
103
100
AcDbEntity
  8
text
  6
ByLayer
 62
  256
370
   -1
100
AcDbSpline
210
0
220
0
230
0
 70
    8
 71
    3
 72
    9
 73
    5
 74
    0
 42
1e-07
 43
1e-07
 40
0
 40
0
 40
0
 40
0
 40
0.106600930071419
 40
0.2252573066105477
 40
0.2252573066105477
 40
0.2252573066105477
 40
0.2252573066105477
 10
1.456741183529244
 20
-1.232324989413982
 30
0
 10
1.811480329051651
 20
-1.254163469409963
 30
0
 10
2.561075894645386
 20
-1.300310132305569
 30
0
 10
3.312103494092513
 20
-1.303903398118749
 30
0
 10
3.707714251284724
 20
-1.305796184229653
 30
0
  0
SPLINE
  5
104
100
AcDbEntity
  8
text
  6
ByLayer
 62
  256
370
   -1
100
AcDbSpline
210
0
220
0
230
0
 70
    8
 71
    3
 72
    9
 73
    5
 74
    0
 42
1e-07
 43
1e-07
 40
0
 40
0
 40
0
 40
0
 40
0.07579702238715778
 40
0.1263190917178201
 40
0.1263190917178201
 40
0.1263190917178201
 40
0.1263190917178201
 10
3.707714251284724
 20
-1.305796184229653
 30
0
 10
3.960575565695041
 20
-1.305671960581405
 30
0
 10
4.381980134910641
 20
-1.305464936374894
 30
0
 10
4.801267368296918
 20
-1.264604879692257
 30
0
 10
4.968963782089411
 20
-1.248262657875259
 30
0
  0
SPLINE
  5
105
100
AcDbEntity
  8
text
  6
ByLayer
 62
  256
370
   -1
100
AcDbSpline
210
0
220
0
230
0
 70
    8
 71
    3
 72
    9
 73
    5
 74
    0
 42
1e-07
 43
1e-07
 40
0
 40
0
 40
0
 40
0
 40
0.03700299358321495
 40
0.0723170691984979
 40
0.0723170691984979
 40
0.0723170691984979
 40
0.0723170691984979
 10
4.968963782089411
 20
-1.248262657875259
 30
0
 10
5.090735829018032
 20
-1.226850190096331
 30
0
 10
5.328721913154055
 20
-1.185002578210637
 30
0
 10
5.555040007283027
 20
-1.100424536478313
 30
0
 10
5.665556298633811
 20
-1.059123148103049
 30
0
  0
SPLINE
  5
106
100
AcDbEntity
  8
text
  6
ByLayer
 62
  256
370
   -1
100
AcDbSpline
210
0
220
0
230
0
 70
    8
 71
    3
 72
    9
 73
    5
 74
    0
 42
1e-07
 43
1e-07
 40
0
 40
0
 40
0
 40
0
 40
0.02677494953790199
 40
0.06091597424142128
 40
0.06091597424142128
 40
0.06091597424142128
 40
0.06091597424142128
 10
5.665556298633811
 20
-1.059123148103049
 30
0
 10
5.694634827640241
 20
-0.9746809197633688
 30
0
 10
5.76079170018363
 20
-0.7825655023600042
 30
0
 10
5.806410950233705
 20
-0.5845191223113133
 30
0
 10
5.831978758387644
 20
-0.4735218602977698
 30
0
  0
SPLINE
  5
107
100
AcDbEntity
  8
text
  6
ByLayer
 62
  256
370
   -1
100
AcDbSpline
210
0
220
0
230
0
 70
    8
 71
    3
 72
    9
 73
    5
 74
    0
 42
1e-07
 43
1e-07
 40
0
 40
0
 40
0
 40
0
 40
0.05582336564682551
 40
0.09556026961030969
 40
0.09556026961030969
 40
0.09556026961030969
 40
0.09556026961030969
 10
5.831978758387644
 20
-0.4735218602977698
 30
0
 10
5.87625162188953
 20
-0.2927291796802134
 30
0
 10
5.952039362804822
 20
0.01675766517766242
 30
0
 10
6.009042417665285
 20
0.3302155658300077
 30
0
 10
6.032746043930191
 20
0.4605610174032515
 30
0
  0
LINE
  5
108
100
AcDbEntity
  8
text
  6
ByLayer
 62
  256
370
   -1
100
AcDbLine
 10
6.032746043930191
 20
0.4605610174032514
 11
6.492674096380631
 21
0.4612115917483406
  0
SPLINE
  5
109
100
AcDbEntity
  8
text
  6
ByLayer
 62
  256
370
   -1
100
AcDbSpline
210
0
220
0
230
0
 70
    8
 71
    3
 72
    9
 73
    5
 74
    0
 42
1e-07
 43
1e-07
 40
0
 40
0
 40
0
 40
0
 40
0.1294607233679415
 40
0.2342625530241225
 40
0.2342625530241225
 40
0.2342625530241225
 40
0.2342625530241225
 10
6.492674096380631
 20
0.4612115917483406
 30
0
 10
6.440623497169611
 20
0.03253271884430919
 30
0
 10
6.346436581320605
 20
-0.7431728741839905
 30
0
 10
6.324576795217016
 20
-1.524151726193068
 30
0
 10
6.314797402181416
 20
-1.873537539489947
 30
0
  0
SPLINE
  5
10A
100
AcDbEntity
  8
text
  6
ByLayer
 62
  256
370
   -1
100
AcDbSpline
210
0
220
0
230
0
 70
    8
 71
    3
 72
    9
 73
    5
 74
    0
 42
1e-07
 43
1e-07
 40
0
 40
0
 40
0
 40
0
 40
0.05274030545857755
 40
0.07906766040603283
 40
0.07906766040603283
 40
0.07906766040603283
 40
0.07906766040603283
 10
-20.69347215723347
 20
6.415794281391127
 30
0
 10
-20.69485367253875
 20
6.593014972457714
 30
0
 10
-20.69692482442255
 20
6.858702197746549
 30
0
 10
-20.77358139197598
 20
7.11184403363613
 30
0
 10
-20.79910591935758
 20
7.196133298441629
 30
0
  0
SPLINE
  5
10B
100
AcDbEntity
  8
text
  6
ByLayer
 62
  256
370
   -1
100
AcDbSpline
210
0
220
0
230
0
 70
    8
 71
    3
 72
    9
 73
    5
 74
    0
 42
1e-07
 43
1e-07
 40
0
 40
0
 40
0
 40
0
 40
0.01491046793820343
 40
0.03205557371532171
 40
0.03205557371532171
 40
0.03205557371532171
 40
0.03205557371532171
 10
-20.79910591935758
 20
7.196133298441629
 30
0
 10
-20.83093883440918
 20
7.235533506127392
 30
0
 10
-20.89937547632005
 20
7.320238846503324
 30
0
 10
-21.00220379544154
 20
7.357189916516882
 30
0
 10
-21.05720210630873
 20
7.376953406310776
 30
0
  0
SPLINE
  5
10C
100
AcDbEntity
  8
text
  6
ByLayer
 62
  256
370
   -1
100
AcDbSpline
210
0
220
0
230
0
 70
    8
 71
    3
 72
    9
 73
    5
 74
    0
 42
1e-07
 43
1e-07
 40
0
 40
0
 40
0
 40
0
 40
0.03417326817466296
 40
0.1007751675207266
 40
0.1007751675207266
 40
0.1007751675207266
 40
0.1007751675207266
 10
-21.05720210630873
 20
7.376953406310776
 30
0
 10
-21.16969055335515
 20
7.395732628911795
 30
0
 10
-21.50141305754499
 20
7.451111567029565
 30
0
 10
-21.83820718960861
 20
7.451759937947746
 30
0
 10
-22.06079306503702
 20
7.452188443656982
 30
0
  0
LINE
  5
10D
100
AcDbEntity
  8
text
  6
ByLayer
 62
  256
370
   -1
100
AcDbLine
 10
-22.06079306503702
 20
7.452188443656982
 11
-22.06142392820163
 21
7.898181540146241
  0
SPLINE
  5
10E
100
AcDbEntity
  8
text
  6
ByLayer
 62
  256
370
   -1
100
AcDbSpline
210
0
220
0
230
0
 70
    8
 71
    3
 72
    9
 73
    5
 74
    0
 42
1e-07
 43
1e-07
 40
0
 40
0
 40
0
 40
0
 40
0.109661568195299
 40
0.211239113925195
 40
0.211239113925195
 40
0.211239113925195
 40
0.211239113925195
 10
-22.06142392820163
 20
7.898181540146241
 30
0
 10
-21.69618860415072
 20
7.882444982437762
 30
0
 10
-20.99264234362948
 20
7.852131933287749
 30
0
 10
-20.28846396501673
 20
7.847598762815373
 30
0
 10
-19.94984906493307
 20
7.845418918740084
 30
0
  0
SPLINE
  5
10F
100
AcDbEntity
  8
text
  6
ByLayer
 62
  256
370
   -1
100
AcDbSpline
210
0
220
0
230
0
 70
    8
 71
    3
 72
    9
 73
    5
 74
    0
 42
1e-07
 43
1e-07
 40
0
 40
0
 40
0
 40
0
 40
0.09861595891442557
 40
0.1966146476239728
 40
0.1966146476239728
 40
0.1966146476239728
 40
0.1966146476239728
 10
-19.94984906493307
 20
7.845418918740084
 30
0
 10
-19.62109877108129
 20
7.848177526427054
 30
0
 10
-18.96565594120387
 20
7.85367747475465
 30
0
 10
-18.31104979513281
 20
7.887226277164512
 30
0
 10
-17.98477428762909
 20
7.903948015263245
 30
0
  0
LINE
  5
110
100
AcDbEntity
  8
text
  6
ByLayer
 62
  256
370
   -1
100
AcDbLine
 10
-17.98477428762909
 20
7.903948015263244
 11
-17.98414342446448
 21
7.457954918773986
  0
SPLINE
  5
111
100
AcDbEntity
  8
text
  6
ByLayer
 62
  256
370
   -1
100
AcDbSpline
210
0
220
0
230
0
 70
    8
 71
    3
 72
    9
 73
    5
 74
    0
 42
1e-07
 43
1e-07
 40
0
 40
0
 40
0
 40
0
 40
0.06625348209381687
 40
0.1007715263136512
 40
0.1007715263136512
 40
0.1007715263136512
 40
0.1007715263136512
 10
-17.98414342446448
 20
7.457954918773986
 30
0
 10
-18.20554028783494
 20
7.456693350738282
 30
0
 10
-18.54228485035172
 20
7.454774506135879
 30
0
 10
-18.87391910676683
 20
7.398989478096958
 30
0
 10
-18.98751633354811
 20
7.379881004353503
 30
0
  0
SPLINE
  5
112
100
AcDbEntity
  8
text
  6
ByLayer
 62
  256
370
   -1
100
AcDbSpline
210
0
220
0
230
0
 70
    8
 71
    3
 72
    9
 73
    5
 74
    0
 42
1e-07
 43
1e-07
 40
0
 40
0
 40
0
 40
0
 40
0.01661020051063941
 40
0.02966830570367864
 40
0.02966830570367864
 40
0.02966830570367864
 40
0.02966830570367864
 10
-18.98751633354811
 20
7.379881004353503
 30
0
 10
-19.04119762850368
 20
7.361776435196425
 30
0
 10
-19.13708046076034
 20
7.329438963289232
 30
0
 10
-19.2024308635421
 20
7.252930885032915
 30
0
 10
-19.23119396320998
 20
7.219256884772616
 30
0
  0
SPLINE
  5
113
100
AcDbEntity
  8
text
  6
ByLayer
 62
  256
370
   -1
100
AcDbSpline
210
0
220
0
230
0
 70
    8
 71
    3
 72
    9
 73
    5
 74
    0
 42
1e-07
 43
1e-07
 40
0
 40
0
 40
0
 40
0
 40
0.02496388977934437
 40
0.06885977562478487
 40
0.06885977562478487
 40
0.06885977562478487
 40
0.06885977562478487
 10
-19.23119396320998
 20
7.219256884772616
 30
0
 10
-19.25857560850623
 20
7.140264404969305
 30
0
 10
-19.33410446110103
 20
6.922373504016766
 30
0
 10
-19.33876390478859
 20
6.690777213761119
 30
0
 10
-19.34173414984612
 20
6.543142049007105
 30
0
  0
SPLINE
  5
114
100
AcDbEntity
  8
text
  6
ByLayer
 62
  256
370
   -1
100
AcDbSpline
210
0
220
0
230
0
 70
    8
 71
    3
 72
    9
 73
    5
 74
    0
 42
1e-07
 43
1e-07
 40
0
 40
0
 40
0
 40
0
 40
0.05645569238979467
 40
0.1979298180657186
 40
0.1979298180657186
 40
0.1979298180657186
 40
0.1979298180657186
 10
-19.34173414984612
 20
6.543142049007105
 30
0
 10
-19.34511849219941
 20
6.354986252646593
 30
0
 10
-19.35698376632685
 20
5.69532482675327
 30
0
 10
-19.36271306207187
 20
5.035577489883174
 30
0
 10
-19.36680818585962
 20
4.56401045383545
 30
0
  0
LINE
  5
115
100
AcDbEntity
  8
text
  6
ByLayer
 62
  256
370
   -1
100
AcDbLine
 10
-19.36680818585962
 20
4.56401045383545
 11
-19.36316101211496
 21
1.985615640095411
  0
SPLINE
  5
116
100
AcDbEntity
  8
text
  6
ByLayer
 62
  256
370
   -1
100
AcDbSpline
210
0
220
0
230
0
 70
    8
 71
    3
 72
    9
 73
    5
 74
    0
 42
1e-07
 43
1e-07
 40
0
 40
0
 40
0
 40
0
 40
0.1244791479818917
 40
0.1993403304129771
 40
0.1993403304129771
 40
0.1993403304129771
 40
0.1993403304129771
 10
-19.36316101211496
 20
1.985615640095411
 30
0
 10
-19.366417279061
 20
1.568746544889703
 30
0
 10
-19.37163184985022
 20
0.9011743086999591
 30
0
 10
-19.22665617317202
 20
0.2509702349055543
 30
0
 10
-19.17221134227709
 20
0.006789613327788935
 30
0
  0
SPLINE
  5
117
100
AcDbEntity
  8
text
  6
ByLayer
 62
  256
370
   -1
100
AcDbSpline
210
0
220
0
230
0
 70
    8
 71
    3
 72
    9
 73
    5
 74
    0
 42
1e-07
 43
1e-07
 40
0
 40
0
 40
0
 40
0
 40
0.05011173773312554
 40
0.1007461550018926
 40
0.1007461550018926
 40
0.1007461550018926
 40
0.1007461550018926
 10
-19.17221134227709
 20
0.006789613327788935
 30
0
 10
-19.09730540249285
 20
-0.1446504099311774
 30
0
 10
-18.94671223287947
 20
-0.4491100185360652
 30
0
 10
-18.68792288016968
 20
-0.6691886064876762
 30
0
 10
-18.55785689333798
 20
-0.7797987935866679
 30
0
  0
SPLINE
  5
118
100
AcDbEntity
  8
text
  6
ByLayer
 62
  256
370
   -1
100
AcDbSpline
210
0
220
0
230
0
 70
    8
 71
    3
 72
    9
 73
    5
 74
    0
 42
1e-07
 43
1e-07
 40
0
 40
0
 40
0
 40
0
 40
0.04330428497846021
 40
0.09492896225587436
 40
0.09492896225587436
 40
0.09492896225587436
 40
0.09492896225587436
 10
-18.55785689333798
 20
-0.7797987935866679
 30
0
 10
-18.43481177578829
 20
-0.8565680092527828
 30
0
 10
-18.16507991610154
 20
-1.024856712784237
 30
0
 10
-17.85942552208664
 20
-1.113594237297741
 30
0
 10
-17.69320323255069
 20
-1.161851860224856
 30
0
  0
SPLINE
  5
119
100
AcDbEntity
  8
text
  6
ByLayer
 62
  256
370
   -1
100
AcDbSpline
210
0
220
0
230
0
 70
    8
 71
    3
 72
    9
 73
    5
 74
    0
 42
1e-07
 43
1e-07
 40
0
 40
0
 40
0
 40
0
 40
0.05843384955140817
 40
0.122292116226037
 40
0.122292116226037
 40
0.122292116226037
 40
0.122292116226037
 10
-17.69320323255069
 20
-1.161851860224856
 30
0
 10
-17.50218957514073
 20
-1.202210387058447
 30
0
 10
-17.10243045312382
 20
-1.286673924753372
 30
0
 10
-16.69382676434416
 20
-1.295105911907575
 30
0
 10
-16.48046286054107
 20
-1.299508911061622
 30
0
  0
SPLINE
  5
11A
100
AcDbEntity
  8
text
  6
ByLayer
 62
  256
370
   -1
100
AcDbSpline
210
0
220
0
230
0
 70
    8
 71
    3
 72
    9
 73
    5
 74
    0
 42
1e-07
 43
1e-07
 40
0
 40
0
 40
0
 40
0
 40
0.07384347869693397
 40
0.1403404645362917
 40
0.1403404645362917
 40
0.1403404645362917
 40
0.1403404645362917
 10
-16.48046286054107
 20
-1.299508911061622
 30
0
 10
-16.23348319619358
 20
-1.29309773549966
 30
0
 10
-15.76409522264214
 20
-1.280913215316328
 30
0
 10
-15.3094119486888
 20
-1.16453687717982
 30
0
 10
-15.09397111108456
 20
-1.109394721746111
 30
0
  0
SPLINE
  5
11B
100
AcDbEntity
  8
text
  6
ByLayer
 62
  256
370
   -1
100
AcDbSpline
210
0
220
0
230
0
 70
    8
 71
    3
 72
    9
 73
    5
 74
    0
 42
1e-07
 43
1e-07
 40
0
 40
0
 40
0
 40
0
 40
0.05713264657771753
 40
0.1024559003666798
 40
0.1024559003666798
 40
0.1024559003666798
 40
0.1024559003666798
 10
-15.09397111108456
 20
-1.109394721746111
 30
0
 10
-14.91238317085969
 20
-1.047388654956043
 30
0
 10
-14.58674175520844
 20
-0.9361932564979814
 30
0
 10
-14.31078372472538
 20
-0.7316828294962541
 30
0
 10
-14.18870860942287
 20
-0.6412138769780018
 30
0
  0
SPLINE
  5
11C
100
AcDbEntity
  8
text
  6
ByLayer
 62
  256
370
   -1
100
AcDbSpline
210
0
220
0
230
0
 70
    8
 71
    3
 72
    9
 73
    5
 74
    0
 42
1e-07
 43
1e-07
 40
0
 40
0
 40
0
 40
0
 40
0.03971594380257489
 40
0.07725050512680538
 40
0.07725050512680538
 40
0.07725050512680538
 40
0.07725050512680538
 10
-14.18870860942287
 20
-0.6412138769780018
 30
0
 10
-14.09405197183631
 20
-0.5472479653789186
 30
0
 10
-13.90993767498071
 20
-0.364477182647085
 30
0
 10
-13.7932976290562
 20
-0.1328890824151463
 30
0
 10
-13.73662443385277
 20
-0.02036479877649988
 30
0
  0
SPLINE
  5
11D
100
AcDbEntity
  8
text
  6
ByLayer
 62
  256
370
   -1
100
AcDbSpline
210
0
220
0
230
0
 70
    8
 71
    3
 72
    9
 73
    5
 74
    0
 42
1e-07
 43
1e-07
 40
0
 40
0
 40
0
 40
0
 40
0.0424776228413172
 40
0.09612283938243371
 40
0.09612283938243371
 40
0.09612283938243371
 40
0.09612283938243371
 10
-13.73662443385277
 20
-0.02036479877649988
 30
0
 10
-13.6886150645717
 20
0.1133122201513315
 30
0
 10
-13.57997440665411
 20
0.415810659565512
 30
0
 10
-13.54271392340134
 20
0.7353859501912208
 30
0
 10
-13.52191921211979
 20
0.9137377943205749
 30
0
  0
SPLINE
  5
11E
100
AcDbEntity
  8
text
  6
ByLayer
 62
  256
370
   -1
100
AcDbSpline
210
0
220
0
230
0
 70
    8
 71
    3
 72
    9
 73
    5
 74
    0
 42
1e-07
 43
1e-07
 40
0
 40
0
 40
0
 40
0
 40
0.06797131035854355
 40
0.1514389759376145
 40
0.1514389759376145
 40
0.1514389759376145
 40
0.1514389759376145
 10
-13.52191921211979
 20
0.9137377943205749
 30
0
 10
-13.50196797494545
 20
1.139526986320196
 30
0
 10
-13.45751694243729
 20
1.642581640318146
 30
0
 10
-13.4554887821333
 20
2.147653210221376
 30
0
 10
-13.45437093380563
 20
2.426030323043018
 30
0
  0
LINE
  5
11F
100
AcDbEntity
  8
text
  6
ByLayer
 62
  256
370
   -1
100
AcDbLine
 10
-13.45437093380563
 20
2.426030323043018
 11
-13.45740695893861
 21
4.572369380438386
  0
SPLINE
  5
120
100
AcDbEntity
  8
text
  6
ByLayer
 62
  256
370
   -1
100
AcDbSpline
210
0
220
0
230
0
 70
    8
 71
    3
 72
    9
 73
    5
 74
    0
 42
1e-07
 43
1e-07
 40
0
 40
0
 40
0
 40
0
 40
0.09373077548646691
 40
0.1853922872758738
 40
0.1853922872758738
 40
0.1853922872758738
 40
0.1853922872758738
 10
-13.45740695893861
 20
4.572369380438386
 30
0
 10
-13.45895788285032
 20
4.884813141052629
 30
0
 10
-13.46202549143344
 20
5.502802943491782
 30
0
 10
-13.47934123339279
 20
6.120557114433676
 30
0
 10
-13.48790246918675
 20
6.425986655515317
 30
0
  0
SPLINE
  5
121
100
AcDbEntity
  8
text
  6
ByLayer
 62
  256
370
   -1
100
AcDbSpline
210
0
220
0
230
0
 70
    8
 71
    3
 72
    9
 73
    5
 74
    0
 42
1e-07
 43
1e-07
 40
0
 40
0
 40
0
 40
0
 40
0.0527066309585667
 40
0.07898960685002909
 40
0.07898960685002909
 40
0.07898960685002909
 40
0.07898960685002909
 10
-13.48790246918675
 20
6.425986655515317
 30
0
 10
-13.48732906855393
 20
6.60315131712228
 30
0
 10
-13.48646973283601
 20
6.868661874589965
 30
0
 10
-13.56157811045101
 20
7.122029924886597
 30
0
 10
-13.58656964739903
 20
7.206335526891383
 30
0
  0
SPLINE
  5
122
100
AcDbEntity
  8
text
  6
ByLayer
 62
  256
370
   -1
100
AcDbSpline
210
0
220
0
230
0
 70
    8
 71
    3
 72
    9
 73
    5
 74
    0
 42
1e-07
 43
1e-07
 40
0
 40
0
 40
0
 40
0
 40
0.01491046793820343
 40
0.03205535809987008
 40
0.03205535809987008
 40
0.03205535809987008
 40
0.03205535809987008
 10
-13.58656964739903
 20
7.206335526891383
 30
0
 10
-13.618402574957
 20
7.245735695661129
 30
0
 10
-13.68683878342925
 20
7.330440382619581
 30
0
 10
-13.78966603304741
 20
7.367391981228266
 30
0
 10
-13.84466345016678
 20
7.387155638132987
 30
0
  0
SPLINE
  5
123
100
AcDbEntity
  8
text
  6
ByLayer
 62
  256
370
   -1
100
AcDbSpline
210
0
220
0
230
0
 70
    8
 71
    3
 72
    9
 73
    5
 74
    0
 42
1e-07
 43
1e-07
 40
0
 40
0
 40
0
 40
0
 40
0.03451804421983438
 40
0.1007717645466996
 40
0.1007717645466996
 40
0.1007717645466996
 40
0.1007717645466996
 10
-13.84466345016678
 20
7.387155638132987
 30
0
 10
-13.95831428099165
 20
7.405942664291314
 30
0
 10
-14.29010581273317
 20
7.460789392121607
 30
0
 10
-14.62685525600681
 20
7.461755496064852
 30
0
 10
-14.84825560098677
 20
7.462390673792965
 30
0
  0
LINE
  5
124
100
AcDbEntity
  8
text
  6
ByLayer
 62
  256
370
   -1
100
AcDbLine
 10
-14.84825560098677
 20
7.462390673792964
 11
-14.84888646415138
 21
7.908383770282224
  0
SPLINE
  5
125
100
AcDbEntity
  8
text
  6
ByLayer
 62
  256
370
   -1
100
AcDbSpline
210
0
220
0
230
0
 70
    8
 71
    3
 72
    9
 73
    5
 74
    0
 42
1e-07
 43
1e-07
 40
0
 40
0
 40
0
 40
0
 40
0.09956512407228467
 40
0.1680462100568751
 40
0.1680462100568751
 40
0.1680462100568751
 40
0.1680462100568751
 10
-14.84888646415138
 20
7.908383770282224
 30
0
 10
-14.51733946983808
 20
7.892787516827808
 30
0
 10
-13.9577538079988
 20
7.866464129913755
 30
0
 10
-13.39762667963099
 20
7.858326282361743
 30
0
 10
-13.16936735722749
 20
7.855010000264393
 30
0
  0
SPLINE
  5
126
100
AcDbEntity
  8
text
  6
ByLayer
 62
  256
370
   -1
100
AcDbSpline
210
0
220
0
230
0
 70
    8
 71
    3
 72
    9
 73
    5
 74
    0
 42
1e-07
 43
1e-07
 40
0
 40
0
 40
0
 40
0
 40
0.06743584041493116
 40
0.1736158952808138
 40
0.1736158952808138
 40
0.1736158952808138
 40
0.1736158952808138
 10
-13.16936735722749
 20
7.855010000264393
 30
0
 10
-12.94461034112765
 20
7.859156874477113
 30
0
 10
-12.36596565707355
 20
7.869833145057101
 30
0
 10
-11.78783183872222
 20
7.896751236298769
 30
0
 10
-11.43425660614874
 20
7.91321380961501
 30
0
  0
LINE
  5
127
100
AcDbEntity
  8
text
  6
ByLayer
 62
  256
370
   -1
100
AcDbLine
 10
-11.43425660614873
 20
7.91321380961501
 11
-11.43362574298413
 21
7.467220713125751
  0
SPLINE
  5
128
100
AcDbEntity
  8
text
  6
ByLayer
 62
  256
370
   -1
100
AcDbSpline
210
0
220
0
230
0
 70
    8
 71
    3
 72
    9
 73
    5
 74
    0
 42
1e-07
 43
1e-07
 40
0
 40
0
 40
0
 40
0
 40
0.06677569211596908
 40
0.1014663886553037
 40
0.1014663886553037
 40
0.1014663886553037
 40
0.1014663886553037
 10
-11.43362574298413
 20
7.467220713125751
 30
0
 10
-11.65676415139016
 20
7.465994769620807
 30
0
 10
-11.99582538391071
 20
7.464131935164131
 30
0
 10
-12.3297897616433
 20
7.408244490484788
 30
0
 10
-12.44397000434639
 20
7.389136937634788
 30
0
  0
SPLINE
  5
129
100
AcDbEntity
  8
text
  6
ByLayer
 62
  256
370
   -1
100
AcDbSpline
210
0
220
0
230
0
 70
    8
 71
    3
 72
    9
 73
    5
 74
    0
 42
1e-07
 43
1e-07
 40
0
 40
0
 40
0
 40
0
 40
0.01629253575067094
 40
0.02959939855929856
 40
0.02959939855929856
 40
0.02959939855929856
 40
0.02959939855929856
 10
-12.44397000434639
 20
7.389136937634788
 30
0
 10
-12.49612644455742
 20
7.370553085311116
 30
0
 10
-12.59088144677843
 20
7.336790946616842
 30
0
 10
-12.65763511585073
 20
7.262093984434941
 30
0
 10
-12.68764524982484
 20
7.228512821426358
 30
0
  0
SPLINE
  5
12A
100
AcDbEntity
  8
text
  6
ByLayer
 62
  256
370
   -1
100
AcDbSpline
210
0
220
0
230
0
 70
    8
 71
    3
 72
    9
 73
    5
 74
    0
 42
1e-07
 43
1e-07
 40
0
 40
0
 40
0
 40
0
 40
0.02481580970445033
 40
0.06869680134495978
 40
0.06869680134495978
 40
0.06869680134495978
 40
0.06869680134495978
 10
-12.68764524982484
 20
7.228512821426358
 30
0
 10
-12.71302669486696
 20
7.149437248583435
 30
0
 10
-12.7832893261763
 20
6.930534904330892
 30
0
 10
-12.78812659734482
 20
6.699795618172555
 30
0
 10
-12.79121646836577
 20
6.552407843358869
 30
0
  0
SPLINE
  5
12B
100
AcDbEntity
  8
text
  6
ByLayer
 62
  256
370
   -1
100
AcDbSpline
210
0
220
0
230
0
 70
    8
 71
    3
 72
    9
 73
    5
 74
    0
 42
1e-07
 43
1e-07
 40
0
 40
0
 40
0
 40
0
 40
0.05645569680440637
 40
0.1979298224803303
 40
0.1979298224803303
 40
0.1979298224803303
 40
0.1979298224803303
 10
-12.79121646836577
 20
6.552407843358869
 30
0
 10
-12.79460171877374
 20
6.364252047812529
 30
0
 10
-12.8064701758158
 20
5.704590661643505
 30
0
 10
-12.81219847626965
 20
5.044843293032271
 30
0
 10
-12.81629288856267
 20
4.573276244814757
 30
0
  0
LINE
  5
12C
100
AcDbEntity
  8
text
  6
ByLayer
 62
  256
370
   -1
100
AcDbLine
 10
-12.81629288856267
 20
4.573276244814756
 11
-12.81299071738661
 21
2.238783393490378
  0
SPLINE
  5
12D
100
AcDbEntity
  8
text
  6
ByLayer
 62
  256
370
   -1
100
AcDbSpline
210
0
220
0
230
0
 70
    8
 71
    3
 72
    9
 73
    5
 74
    0
 42
1e-07
 43
1e-07
 40
0
 40
0
 40
0
 40
0
 40
0.1462944066654018
 40
0.2423040197888822
 40
0.2423040197888822
 40
0.2423040197888822
 40
0.2423040197888822
 10
-12.81299071738661
 20
2.238783393490378
 30
0
 10
-12.81071063534555
 20
1.748993083426749
 30
0
 10
-12.80693418854495
 20
0.9377647959810398
 30
0
 10
-12.98352161416804
 20
0.1474218750002043
 30
0
 10
-13.05349193670465
 20
-0.1657405650796795
 30
0
  0
SPLINE
  5
12E
100
AcDbEntity
  8
text
  6
ByLayer
 62
  256
370
   -1
100
AcDbSpline
210
0
220
0
230
0
 70
    8
 71
    3
 72
    9
 73
    5
 74
    0
 42
1e-07
 43
1e-07
 40
0
 40
0
 40
0
 40
0
 40
0.07262887897511608
 40
0.1506240748250575
 40
0.1506240748250575
 40
0.1506240748250575
 40
0.1506240748250575
 10
-13.05349193670465
 20
-0.1657405650796795
 30
0
 10
-13.15258065118339
 20
-0.3897183795050907
 30
0
 10
-13.35807943010681
 20
-0.8542230167131626
 30
0
 10
-13.73477540105568
 20
-1.195722933714629
 30
0
 10
-13.92983370142476
 20
-1.372556238352036
 30
0
  0
SPLINE
  5
12F
100
AcDbEntity
  8
text
  6
ByLayer
 62
  256
370
   -1
100
AcDbSpline
210
0
220
0
230
0
 70
    8
 71
    3
 72
    9
 73
    5
 74
    0
 42
1e-07
 43
1e-07
 40
0
 40
0
 40
0
 40
0
 40
0.06505917328016428
 40
0.1387708633292294
 40
0.1387708633292294
 40
0.1387708633292294
 40
0.1387708633292294
 10
-13.92983370142476
 20
-1.372556238352036
 30
0
 10
-14.1086020372619
 20
-1.497560036584789
 30
0
 10
-14.48991392687383
 20
-1.764192459432996
 30
0
 10
-14.93367838913464
 20
-1.905515237156505
 30
0
 10
-15.16939522271342
 20
-1.980582441744794
 30
0
  0
SPLINE
  5
130
100
AcDbEntity
  8
text
  6
ByLayer
 62
  256
370
   -1
100
AcDbSpline
210
0
220
0
230
0
 70
    8
 71
    3
 72
    9
 73
    5
 74
    0
 42
1e-07
 43
1e-07
 40
0
 40
0
 40
0
 40
0
 40
0.08107785620418097
 40
0.1690485843311129
 40
0.1690485843311129
 40
0.1690485843311129
 40
0.1690485843311129
 10
-15.16939522271342
 20
-1.980582441744794
 30
0
 10
-15.43292922919555
 20
-2.043934685222935
 30
0
 10
-15.98240170916243
 20
-2.176025092833229
 30
0
 10
-16.5474940696789
 20
-2.191120170670633
 30
0
 10
-16.84156092986763
 20
-2.198975456733772
 30
0
  0
SPLINE
  5
131
100
AcDbEntity
  8
text
  6
ByLayer
 62
  256
370
   -1
100
AcDbSpline
210
0
220
0
230
0
 70
    8
 71
    3
 72
    9
 73
    5
 74
    0
 42
1e-07
 43
1e-07
 40
0
 40
0
 40
0
 40
0
 40
0.1003703344154672
 40
0.188295703277823
 40
0.188295703277823
 40
0.188295703277823
 40
0.188295703277823
 10
-16.84156092986763
 20
-2.198975456733772
 30
0
 10
-17.17737633774668
 20
-2.192053999421146
 30
0
 10
-17.80736924119137
 20
-2.179069279583574
 30
0
 10
-18.41759493309436
 20
-2.023418233389522
 30
0
 10
-18.7025420567719
 20
-1.950736406814695
 30
0
  0
SPLINE
  5
132
100
AcDbEntity
  8
text
  6
ByLayer
 62
  256
370
   -1
100
AcDbSpline
210
0
220
0
230
0
 70
    8
 71
    3
 72
    9
 73
    5
 74
    0
 42
1e-07
 43
1e-07
 40
0
 40
0
 40
0
 40
0
 40
0.07539818597425106
 40
0.1381876620828946
 40
0.1381876620828946
 40
0.1381876620828946
 40
0.1381876620828946
 10
-18.7025420567719
 20
-1.950736406814695
 30
0
 10
-18.94167198346564
 20
-1.866131082945928
 30
0
 10
-19.37994254762944
 20
-1.711068839018948
 30
0
 10
-19.73896268129327
 20
-1.417042355439864
 30
0
 10
-19.90209364223018
 20
-1.28344309927094
 30
0
  0
SPLINE
  5
133
100
AcDbEntity
  8
text
  6
ByLayer
 62
  256
370
   -1
100
AcDbSpline
210
0
220
0
230
0
 70
    8
 71
    3
 72
    9
 73
    5
 74
    0
 42
1e-07
 43
1e-07
 40
0
 40
0
 40
0
 40
0
 40
0.05458408896027686
 40
0.1026567031058405
 40
0.1026567031058405
 40
0.1026567031058405
 40
0.1026567031058405
 10
-19.90209364223018
 20
-1.28344309927094
 30
0
 10
-20.02665789596612
 20
-1.148846879787597
 30
0
 10
-20.26092681676239
 20
-0.8957107662083219
 30
0
 10
-20.40179073456365
 20
-0.5813012696635012
 30
0
 10
-20.46775522166111
 20
-0.4340679575288142
 30
0
  0
SPLINE
  5
134
100
AcDbEntity
  8
text
  6
ByLayer
 62
  256
370
   -1
100
AcDbSpline
210
0
220
0
230
0
 70
    8
 71
    3
 72
    9
 73
    5
 74
    0
 42
1e-07
 43
1e-07
 40
0
 40
0
 40
0
 40
0
 40
0.07786829584488064
 40
0.1931283958886942
 40
0.1931283958886942
 40
0.1931283958886942
 40
0.1931283958886942
 10
-20.46775522166111
 20
-0.4340679575288142
 30
0
 10
-20.52451438889876
 20
-0.1800974670796363
 30
0
 10
-20.66528807351132
 20
0.4497983447052256
 30
0
 10
-20.6654756074275
 20
1.096234052399829
 30
0
 10
-20.66558752871096
 20
1.482030475540603
 30
0
  0
LINE
  5
135
100
AcDbEntity
  8
text
  6
ByLayer
 62
  256
370
   -1
100
AcDbLine
 10
-20.66558752871097
 20
1.482030475540603
 11
-20.66994442298885
 21
4.562167150302403
  0
SPLINE
  5
136
100
AcDbEntity
  8
text
  6
ByLayer
 62
  256
370
   -1
100
AcDbSpline
210
0
220
0
230
0
 70
    8
 71
    3
 72
    9
 73
    5
 74
    0
 42
1e-07
 43
1e-07
 40
0
 40
0
 40
0
 40
0
 40
0.09372964169384476
 40
0.1853807259376095
 40
0.1853807259376095
 40
0.1853807259376095
 40
0.1853807259376095
 10
-20.66994442298885
 20
4.562167150302403
 30
0
 10
-20.67121755930648
 20
4.874603275941074
 30
0
 10
-20.67373559874967
 20
5.492546913976288
 30
0
 10
-20.68694266524807
 20
6.110354187008564
 30
0
 10
-20.69347215723347
 20
6.415794281391127
 30
0
  0
SPLINE
  5
137
100
AcDbEntity
  8
text
  6
ByLayer
 62
  256
370
   -1
100
AcDbSpline
210
0
220
0
230
0
 70
    8
 71
    3
 72
    9
 73
    5
 74
    0
 42
1e-07
 43
1e-07
 40
0
 40
0
 40
0
 40
0
 40
0.03247195018246318
 40
0.06476026269569832
 40
0.06476026269569832
 40
0.06476026269569832
 40
0.06476026269569832
 10
29.78503832499619
 20
-1.756714363473453
 30
0
 10
29.71378108874999
 20
-1.671611034081226
 30
0
 10
29.57166959521964
 20
-1.501885657664035
 30
0
 10
29.55074232072622
 20
-1.281549262762578
 30
0
 10
29.54030835472967
 20
-1.171693464152757
 30
0
  0
SPLINE
  5
138
100
AcDbEntity
  8
text
  6
ByLayer
 62
  256
370
   -1
100
AcDbSpline
210
0
220
0
230
0
 70
    8
 71
    3
 72
    9
 73
    5
 74
    0
 42
1e-07
 43
1e-07
 40
0
 40
0
 40
0
 40
0
 40
0.03280167013668336
 40
0.06541766838024266
 40
0.06541766838024266
 40
0.06541766838024266
 40
0.06541766838024266
 10
29.54030835472967
 20
-1.171693464152757
 30
0
 10
29.550198300675
 20
-1.060007154140772
 30
0
 10
29.56992221111783
 20
-0.8372667277986867
 30
0
 10
29.71235712800415
 20
-0.6649357253993138
 30
0
 10
29.78337245328269
 20
-0.5790147836913606
 30
0
  0
SPLINE
  5
139
100
AcDbEntity
  8
text
  6
ByLayer
 62
  256
370
   -1
100
AcDbSpline
210
0
220
0
230
0
 70
    8
 71
    3
 72
    9
 73
    5
 74
    0
 42
1e-07
 43
1e-07
 40
0
 40
0
 40
0
 40
0
 40
0.03261632935097717
 40
0.0654179551667514
 40
0.0654179551667514
 40
0.0654179551667514
 40
0.0654179551667514
 10
29.78337245328269
 20
-0.5790147836913606
 30
0
 10
29.86909280798066
 20
-0.5077554790121175
 30
0
 10
30.04102050285301
 20
-0.3648320387758552
 30
0
 10
30.26370559085278
 20
-0.3444798648076697
 30
0
 10
30.3753635127903
 20
-0.3342749540405876
 30
0
  0
SPLINE
  5
13A
100
AcDbEntity
  8
text
  6
ByLayer
 62
  256
370
   -1
100
AcDbSpline
210
0
220
0
230
0
 70
    8
 71
    3
 72
    9
 73
    5
 74
    0
 42
1e-07
 43
1e-07
 40
0
 40
0
 40
0
 40
0
 40
0.03263016143244185
 40
0.06481514239354219
 40
0.06481514239354219
 40
0.06481514239354219
 40
0.06481514239354219
 10
30.3753635127903
 20
-0.3342749540405876
 30
0
 10
30.48659839699598
 20
-0.3439981105854528
 30
0
 10
30.70755056340946
 20
-0.363311768511263
 30
0
 10
30.87695351727008
 20
-0.5063306363458953
 30
0
 10
30.96107322515648
 20
-0.5773489102916241
 30
0
  0
SPLINE
  5
13B
100
AcDbEntity
  8
text
  6
ByLayer
 62
  256
370
   -1
100
AcDbSpline
210
0
220
0
230
0
 70
    8
 71
    3
 72
    9
 73
    5
 74
    0
 42
1e-07
 43
1e-07
 40
0
 40
0
 40
0
 40
0
 40
0.0326159982435593
 40
0.06541766838024266
 40
0.06541766838024266
 40
0.06541766838024266
 40
0.06541766838024266
 10
30.96107322515648
 20
-0.5773489102916241
 30
0
 10
31.03233133839629
 20
-0.6630686043292133
 30
0
 10
31.17525321331525
 20
-0.8349959657526718
 30
0
 10
31.19560718215727
 20
-1.057679701401657
 30
0
 10
31.2058130514348
 20
-1.169337585615828
 30
0
  0
SPLINE
  5
13C
100
AcDbEntity
  8
text
  6
ByLayer
 62
  256
370
   -1
100
AcDbSpline
210
0
220
0
230
0
 70
    8
 71
    3
 72
    9
 73
    5
 74
    0
 42
1e-07
 43
1e-07
 40
0
 40
0
 40
0
 40
0
 40
0.03228833952824259
 40
0.06476045983618497
 40
0.06476045983618497
 40
0.06476045983618497
 40
0.06476045983618497
 10
31.2058130514348
 20
-1.169337585615828
 30
0
 10
31.19569220347742
 20
-1.279223142574502
 30
0
 10
31.17539290109058
 20
-1.499619709941307
 30
0
 10
31.03375767834089
 20
-1.669744633421182
 30
0
 10
30.96273909687
 20
-1.755048490073712
 30
0
  0
SPLINE
  5
13D
100
AcDbEntity
  8
text
  6
ByLayer
 62
  256
370
   -1
100
AcDbSpline
210
0
220
0
230
0
 70
    8
 71
    3
 72
    9
 73
    5
 74
    0
 42
1e-07
 43
1e-07
 40
0
 40
0
 40
0
 40
0
 40
0.03247198599737958
 40
0.06476025348503861
 40
0.06476025348503861
 40
0.06476025348503861
 40
0.06476025348503861
 10
30.96273909687
 20
-1.755048490073712
 30
0
 10
30.87763633796991
 20
-1.826306919722427
 30
0
 10
30.70791231064712
 20
-1.968420616352167
 30
0
 10
30.48757533849132
 20
-1.989345631961439
 30
0
 10
30.377719389641
 20
-1.999778458654
 30
0
  0
SPLINE
  5
13E
100
AcDbEntity
  8
text
  6
ByLayer
 62
  256
370
   -1
100
AcDbSpline
210
0
220
0
230
0
 70
    8
 71
    3
 72
    9
 73
    5
 74
    0
 42
1e-07
 43
1e-07
 40
0
 40
0
 40
0
 40
0
 40
0.03280209434188058
 40
0.0654180289101489
 40
0.0654180289101489
 40
0.0654180289101489
 40
0.0654180289101489
 10
30.377719389641
 20
-1.999778458654
 30
0
 10
30.2660311997704
 20
-1.989890014844722
 30
0
 10
30.04328867736538
 20
-1.970169246522744
 30
0
 10
29.87095830921637
 20
-1.827730879095055
 30
0
 10
29.78503832499619
 20
-1.756714363473453
 30
0
  0
SPLINE
  5
13F
100
AcDbEntity
  8
text
  6
ByLayer
 62
  256
370
   -1
100
AcDbSpline
210
0
220
0
230
0
 70
    8
 71
    3
 72
    9
 73
    5
 74
    0
 42
1e-07
 43
1e-07
 40
0
 40
0
 40
0
 40
0
 40
0.04585888577824713
 40
0.08854218635239539
 40
0.08854218635239539
 40
0.08854218635239539
 40
0.08854218635239539
 10
29.65470492060753
 20
6.63335332147228
 30
0
 10
29.64660604326124
 20
6.786037101706461
 30
0
 10
29.63096911063476
 20
7.080831785289807
 30
0
 10
29.63203158169883
 20
7.376033334057173
 30
0
 10
29.63254376435038
 20
7.518340373843193
 30
0
  0
SPLINE
  5
140
100
AcDbEntity
  8
text
  6
ByLayer
 62
  256
370
   -1
100
AcDbSpline
210
0
220
0
230
0
 70
    8
 71
    3
 72
    9
 73
    5
 74
    0
 42
1e-07
 43
1e-07
 40
0
 40
0
 40
0
 40
0
 40
0.06326628302470146
 40
0.1221923226026674
 40
0.1221923226026674
 40
0.1221923226026674
 40
0.1221923226026674
 10
29.63254376435038
 20
7.518340373843193
 30
0
 10
29.82264017652581
 20
7.609752793537656
 30
0
 10
30.1897918568779
 20
7.786306486012919
 30
0
 10
30.54673125863944
 20
7.98267334546122
 30
0
 10
30.71886175642474
 20
8.077369322141173
 30
0
  0
LINE
  5
141
100
AcDbEntity
  8
text
  6
ByLayer
 62
  256
370
   -1
100
AcDbLine
 10
30.71886175642474
 20
8.077369322141173
 11
31.18576116115381
 21
8.078029757556745
  0
LINE
  5
142
100
AcDbEntity
  8
text
  6
ByLayer
 62
  256
370
   -1
100
AcDbLine
 10
31.18680602824385
 20
7.339353710122842
 11
30.82307616970391
 21
3.373678568181315
  0
LINE
  5
143
100
AcDbEntity
  8
text
  6
ByLayer
 62
  256
370
   -1
100
AcDbLine
 10
30.82307616970391
 20
3.373678568181315
 11
30.65196891388714
 21
1.178312692714472
  0
LINE
  5
144
100
AcDbEntity
  8
text
  6
ByLayer
 62
  256
370
   -1
100
AcDbLine
 10
30.65196891388714
 20
1.178312692714472
 11
30.26918521922795
 21
0.8293388274531477
  0
LINE
  5
145
100
AcDbEntity
  8
text
  6
ByLayer
 62
  256
370
   -1
100
AcDbLine
 10
30.26918521922795
 20
0.8293388274531477
 11
30.13668340604744
 21
0.8988376459851288
  0
SPLINE
  5
146
100
AcDbEntity
  8
text
  6
ByLayer
 62
  256
370
   -1
100
AcDbSpline
210
0
220
0
230
0
 70
    8
 71
    3
 72
    9
 73
    5
 74
    0
 42
1e-07
 43
1e-07
 40
0
 40
0
 40
0
 40
0
 40
0.1740398593557616
 40
0.4145746710877822
 40
0.4145746710877822
 40
0.4145746710877822
 40
0.4145746710877822
 10
30.13668340604744
 20
0.8988376459851288
 30
0
 10
30.10262294157892
 20
1.47802578608641
 30
0
 10
30.02148862035844
 20
2.857690959163817
 30
0
 10
29.88342012845283
 20
4.232889210707143
 30
0
 10
29.80331325984097
 20
5.030774551027744
 30
0
  0
SPLINE
  5
147
100
AcDbEntity
  8
text
  6
ByLayer
 62
  256
370
   -1
100
AcDbSpline
210
0
220
0
230
0
 70
    8
 71
    3
 72
    9
 73
    5
 74
    0
 42
1e-07
 43
1e-07
 40
0
 40
0
 40
0
 40
0
 40
0.09730319497234825
 40
0.1609473841523472
 40
0.1609473841523472
 40
0.1609473841523472
 40
0.1609473841523472
 10
29.80331325984097
 20
5.030774551027744
 30
0
 10
29.7710944058351
 20
5.353520845604995
 30
0
 10
29.71780180558589
 20
5.887369419352582
 30
0
 10
29.67258515549189
 20
6.421958299444968
 30
0
 10
29.65470492060753
 20
6.63335332147228
 30
0
  0
SPLINE
  5
148
100
AcDbEntity
  8
text
  6
ByLayer
 62
  256
370
   -1
100
AcDbSpline
210
0
220
0
230
0
 70
    8
 71
    3
 72
    9
 73
    5
 74
    0
 42
1e-07
 43
1e-07
 40
0
 40
0
 40
0
 40
0
 40
0.05274030545857755
 40
0.07906766040603283
 40
0.07906766040603283
 40
0.07906766040603283
 40
0.07906766040603283
 10
-9.487907900543391
 20
6.431644104966874
 30
0
 10
-9.489289415848665
 20
6.60886479603346
 30
0
 10
-9.491360567732476
 20
6.8745520213223
 30
0
 10
-9.568017135285887
 20
7.127693857211876
 30
0
 10
-9.593541662667491
 20
7.211983122017376
 30
0
  0
SPLINE
  5
149
100
AcDbEntity
  8
text
  6
ByLayer
 62
  256
370
   -1
100
AcDbSpline
210
0
220
0
230
0
 70
    8
 71
    3
 72
    9
 73
    5
 74
    0
 42
1e-07
 43
1e-07
 40
0
 40
0
 40
0
 40
0
 40
0.01491046793820343
 40
0.03205557371532171
 40
0.03205557371532171
 40
0.03205557371532171
 40
0.03205557371532171
 10
-9.593541662667491
 20
7.211983122017376
 30
0
 10
-9.625374577719095
 20
7.251383329703138
 30
0
 10
-9.693811219629964
 20
7.336088670079071
 30
0
 10
-9.796639538751455
 20
7.373039740092628
 30
0
 10
-9.851637849618644
 20
7.392803229886522
 30
0
  0
SPLINE
  5
14A
100
AcDbEntity
  8
text
  6
ByLayer
 62
  256
370
   -1
100
AcDbSpline
210
0
220
0
230
0
 70
    8
 71
    3
 72
    9
 73
    5
 74
    0
 42
1e-07
 43
1e-07
 40
0
 40
0
 40
0
 40
0
 40
0.0341737397719695
 40
0.1007752817655579
 40
0.1007752817655579
 40
0.1007752817655579
 40
0.1007752817655579
 10
-9.851637849618644
 20
7.392803229886522
 30
0
 10
-9.96412788696416
 20
7.411582462282809
 30
0
 10
-10.29585087909073
 20
7.466960727837142
 30
0
 10
-10.63264534860895
 20
7.467609498460428
 30
0
 10
-10.85523000043864
 20
7.468038265546499
 30
0
  0
LINE
  5
14B
100
AcDbEntity
  8
text
  6
ByLayer
 62
  256
370
   -1
100
AcDbLine
 10
-10.85523000043865
 20
7.468038265546499
 11
-10.85586086276014
 21
7.914030765989906
  0
SPLINE
  5
14C
100
AcDbEntity
  8
text
  6
ByLayer
 62
  256
370
   -1
100
AcDbSpline
210
0
220
0
230
0
 70
    8
 71
    3
 72
    9
 73
    5
 74
    0
 42
1e-07
 43
1e-07
 40
0
 40
0
 40
0
 40
0
 40
0.03433188329433847
 40
0.08295309839374104
 40
0.08295309839374104
 40
0.08295309839374104
 40
0.08295309839374104
 10
-10.85586086276014
 20
7.914030765989906
 30
0
 10
-10.74145426268221
 20
7.911282185396185
 30
0
 10
-10.46502369603389
 20
7.904641032783619
 30
0
 10
-10.18859026475338
 20
7.898120144272616
 30
0
 10
-10.02656461913905
 20
7.894298062529175
 30
0
  0
LINE
  5
14D
100
AcDbEntity
  8
text
  6
ByLayer
 62
  256
370
   -1
100
AcDbLine
 10
-10.02656461913905
 20
7.894298062529176
 11
-8.688535447664636
 21
7.861347600527577
  0
SPLINE
  5
14E
100
AcDbEntity
  8
text
  6
ByLayer
 62
  256
370
   -1
100
AcDbSpline
210
0
220
0
230
0
 70
    8
 71
    3
 72
    9
 73
    5
 74
    0
 42
1e-07
 43
1e-07
 40
0
 40
0
 40
0
 40
0
 40
0.05070163909158205
 40
0.1233797620573911
 40
0.1233797620573911
 40
0.1233797620573911
 40
0.1233797620573911
 10
-8.688535447664636
 20
7.861347600527577
 30
0
 10
-8.519537575845417
 20
7.863387940921154
 30
0
 10
-8.108290176612494
 20
7.868353001554023
 30
0
 10
-7.697252888053319
 20
7.88258405818508
 30
0
 10
-7.455127128501768
 20
7.890967009055778
 30
0
  0
SPLINE
  5
14F
100
AcDbEntity
  8
text
  6
ByLayer
 62
  256
370
   -1
100
AcDbSpline
210
0
220
0
230
0
 70
    8
 71
    3
 72
    9
 73
    5
 74
    0
 42
1e-07
 43
1e-07
 40
0
 40
0
 40
0
 40
0
 40
0.0859458514600894
 40
0.1262030499333368
 40
0.1262030499333368
 40
0.1262030499333368
 40
0.1262030499333368
 10
-7.455127128501768
 20
7.890967009055778
 30
0
 10
-7.168880303166301
 20
7.902851138430753
 30
0
 10
-6.748554926462731
 20
7.920301816356972
 30
0
 10
-6.328012744418308
 20
7.931113725098555
 30
0
 10
-6.193865034851243
 20
7.934562589102354
 30
0
  0
SPLINE
  5
150
100
AcDbEntity
  8
text
  6
ByLayer
 62
  256
370
   -1
100
AcDbSpline
210
0
220
0
230
0
 70
    8
 71
    3
 72
    9
 73
    5
 74
    0
 42
1e-07
 43
1e-07
 40
0
 40
0
 40
0
 40
0
 40
0.1151353130027188
 40
0.1958608154688728
 40
0.1958608154688728
 40
0.1958608154688728
 40
0.1958608154688728
 10
-6.193865034851243
 20
7.934562589102354
 30
0
 10
-5.807970682918242
 20
7.934391725813126
 30
0
 10
-5.151511943342442
 20
7.934101064136101
 30
0
 10
-4.517544268592992
 20
7.768587119540915
 30
0
 10
-4.256249741819307
 20
7.70036930726123
 30
0
  0
SPLINE
  5
151
100
AcDbEntity
  8
text
  6
ByLayer
 62
  256
370
   -1
100
AcDbSpline
210
0
220
0
230
0
 70
    8
 71
    3
 72
    9
 73
    5
 74
    0
 42
1e-07
 43
1e-07
 40
0
 40
0
 40
0
 40
0
 40
0.06266570491376378
 40
0.1240256099547111
 40
0.1240256099547111
 40
0.1240256099547111
 40
0.1240256099547111
 10
-4.256249741819307
 20
7.70036930726123
 30
0
 10
-4.063924989329708
 20
7.610136670376169
 30
0
 10
-3.68328306134476
 20
7.431551623852046
 30
0
 10
-3.431826020498603
 20
7.094796691543723
 30
0
 10
-3.307421228989549
 20
6.928191982435221
 30
0
  0
SPLINE
  5
152
100
AcDbEntity
  8
text
  6
ByLayer
 62
  256
370
   -1
100
AcDbSpline
210
0
220
0
230
0
 70
    8
 71
    3
 72
    9
 73
    5
 74
    0
 42
1e-07
 43
1e-07
 40
0
 40
0
 40
0
 40
0
 40
0.06081615156041445
 40
0.1216721395484156
 40
0.1216721395484156
 40
0.1216721395484156
 40
0.1216721395484156
 10
-3.307421228989549
 20
6.928191982435221
 30
0
 10
-3.209604733354467
 20
6.747691852030155
 30
0
 10
-3.013907669306848
 20
6.386573358148881
 30
0
 10
-2.985499756921408
 20
5.976817076400351
 30
0
 10
-2.971291150240294
 20
5.771871856790942
 30
0
  0
SPLINE
  5
153
100
AcDbEntity
  8
text
  6
ByLayer
 62
  256
370
   -1
100
AcDbSpline
210
0
220
0
230
0
 70
    8
 71
    3
 72
    9
 73
    5
 74
    0
 42
1e-07
 43
1e-07
 40
0
 40
0
 40
0
 40
0
 40
0.0588865831762865
 40
0.1214866080332911
 40
0.1214866080332911
 40
0.1214866080332911
 40
0.1214866080332911
 10
-2.971291150240294
 20
5.771871856790942
 30
0
 10
-2.985604234404491
 20
5.574248430564239
 30
0
 10
-3.015132998883781
 20
5.166539264482624
 30
0
 10
-3.192062859161657
 20
4.797715027933753
 30
0
 10
-3.283231868080767
 20
4.607666044349505
 30
0
  0
SPLINE
  5
154
100
AcDbEntity
  8
text
  6
ByLayer
 62
  256
370
   -1
100
AcDbSpline
210
0
220
0
230
0
 70
    8
 71
    3
 72
    9
 73
    5
 74
    0
 42
1e-07
 43
1e-07
 40
0
 40
0
 40
0
 40
0
 40
0.06547777035622569
 40
0.1336922835191023
 40
0.1336922835191023
 40
0.1336922835191023
 40
0.1336922835191023
 10
-3.283231868080767
 20
4.607666044349505
 30
0
 10
-3.401376657974611
 20
4.421581344724084
 30
0
 10
-3.642604278598514
 20
4.041634252977651
 30
0
 10
-4.008215665990402
 20
3.778807241804656
 30
0
 10
-4.194763476688683
 20
3.644703641048537
 30
0
  0
SPLINE
  5
155
100
AcDbEntity
  8
text
  6
ByLayer
 62
  256
370
   -1
100
AcDbSpline
210
0
220
0
230
0
 70
    8
 71
    3
 72
    9
 73
    5
 74
    0
 42
1e-07
 43
1e-07
 40
0
 40
0
 40
0
 40
0
 40
0.07627595156257574
 40
0.1663037040941436
 40
0.1663037040941436
 40
0.1663037040941436
 40
0.1663037040941436
 10
-4.194763476688683
 20
3.644703641048537
 30
0
 10
-4.418472282692951
 20
3.521538176313421
 30
0
 10
-4.906222383672887
 20
3.253001729604899
 30
0
 10
-5.447788350609768
 20
3.121414960590823
 30
0
 10
-5.740962619436107
 20
3.050181062694461
 30
0
  0
SPLINE
  5
156
100
AcDbEntity
  8
text
  6
ByLayer
 62
  256
370
   -1
100
AcDbSpline
210
0
220
0
230
0
 70
    8
 71
    3
 72
    9
 73
    5
 74
    0
 42
1e-07
 43
1e-07
 40
0
 40
0
 40
0
 40
0
 40
0.0490598358395054
 40
0.1363105266861135
 40
0.1363105266861135
 40
0.1363105266861135
 40
0.1363105266861135
 10
-5.740962619436107
 20
3.050181062694461
 30
0
 10
-5.643521624892944
 20
2.91884488787689
 30
0
 10
-5.372786245132408
 20
2.553933288480406
 30
0
 10
-5.094958758897672
 20
2.194381637675749
 30
0
 10
-4.917124803593698
 20
1.964237050236921
 30
0
  0
LINE
  5
157
100
AcDbEntity
  8
text
  6
ByLayer
 62
  256
370
   -1
100
AcDbLine
 10
-4.917124803593698
 20
1.964237050236921
 11
-3.157758075275847
 21
-0.346865474353768
  0
SPLINE
  5
158
100
AcDbEntity
  8
text
  6
ByLayer
 62
  256
370
   -1
100
AcDbSpline
210
0
220
0
230
0
 70
    8
 71
    3
 72
    9
 73
    5
 74
    0
 42
1e-07
 43
1e-07
 40
0
 40
0
 40
0
 40
0
 40
0.09612768430152069
 40
0.1392309172323331
 40
0.1392309172323331
 40
0.1392309172323331
 40
0.1392309172323331
 10
-3.157758075275847
 20
-0.346865474353768
 30
0
 10
-2.962658075058835
 20
-0.6012406039090079
 30
0
 10
-2.680076088614243
 20
-0.9696764282650694
 30
0
 10
-2.373187578991605
 20
-1.317944057647535
 30
0
 10
-2.278180757396226
 20
-1.425761064458491
 30
0
  0
SPLINE
  5
159
100
AcDbEntity
  8
text
  6
ByLayer
 62
  256
370
   -1
100
AcDbSpline
210
0
220
0
230
0
 70
    8
 71
    3
 72
    9
 73
    5
 74
    0
 42
1e-07
 43
1e-07
 40
0
 40
0
 40
0
 40
0
 40
0.00753757007955918
 40
0.01440094824049199
 40
0.01440094824049199
 40
0.01440094824049199
 40
0.01440094824049199
 10
-2.278180757396226
 20
-1.425761064458491
 30
0
 10
-2.257791993350615
 20
-1.440646301970911
 30
0
 10
-2.218838121929281
 20
-1.469085378848645
 30
0
 10
-2.174011788625947
 20
-1.48681834778674
 30
0
 10
-2.152647912310925
 20
-1.495269740688498
 30
0
  0
SPLINE
  5
15A
100
AcDbEntity
  8
text
  6
ByLayer
 62
  256
370
   -1
100
AcDbSpline
210
0
220
0
230
0
 70
    8
 71
    3
 72
    9
 73
    5
 74
    0
 42
1e-07
 43
1e-07
 40
0
 40
0
 40
0
 40
0
 40
0.01692776230349875
 40
0.0462089861879269
 40
0.0462089861879269
 40
0.0462089861879269
 40
0.0462089861879269
 10
-2.152647912310925
 20
-1.495269740688498
 30
0
 10
-2.097003737224501
 20
-1.50519016284016
 30
0
 10
-1.945107646535913
 20
-1.532270685473085
 30
0
 10
-1.790584677249623
 20
-1.530551932588446
 30
0
 10
-1.692668188873174
 20
-1.529462811355344
 30
0
  0
LINE
  5
15B
100
AcDbEntity
  8
text
  6
ByLayer
 62
  256
370
   -1
100
AcDbLine
 10
-1.692668188873174
 20
-1.529462811355344
 11
-1.692037326551681
 21
-1.975455311798755
  0
SPLINE
  5
15C
100
AcDbEntity
  8
text
  6
ByLayer
 62
  256
370
   -1
100
AcDbSpline
210
0
220
0
230
0
 70
    8
 71
    3
 72
    9
 73
    5
 74
    0
 42
1e-07
 43
1e-07
 40
0
 40
0
 40
0
 40
0
 40
0.04975055412223883
 40
0.09279446218632977
 40
0.09279446218632977
 40
0.09279446218632977
 40
0.09279446218632977
 10
-1.692037326551681
 20
-1.975455311798755
 30
0
 10
-1.85748450023878
 20
-1.963513620654442
 30
0
 10
-2.166075666174772
 20
-1.941240043467563
 30
0
 10
-2.475427219022288
 20
-1.936946508664175
 30
0
 10
-2.618923926546879
 20
-1.934954897171504
 30
0
  0
SPLINE
  5
15D
100
AcDbEntity
  8
text
  6
ByLayer
 62
  256
370
   -1
100
AcDbSpline
210
0
220
0
230
0
 70
    8
 71
    3
 72
    9
 73
    5
 74
    0
 42
1e-07
 43
1e-07
 40
0
 40
0
 40
0
 40
0
 40
0.04583096445670014
 40
0.1011462523414535
 40
0.1011462523414535
 40
0.1011462523414535
 40
0.1011462523414535
 10
-2.618923926546879
 20
-1.934954897171504
 30
0
 10
-2.771697313451345
 20
-1.937482267538826
 30
0
 10
-3.108859224095744
 20
-1.943060025806926
 30
0
 10
-3.445315080204168
 20
-1.965773810319371
 30
0
 10
-3.629317473869929
 20
-1.978195620323921
 30
0
  0
SPLINE
  5
15E
100
AcDbEntity
  8
text
  6
ByLayer
 62
  256
370
   -1
100
AcDbSpline
210
0
220
0
230
0
 70
    8
 71
    3
 72
    9
 73
    5
 74
    0
 42
1e-07
 43
1e-07
 40
0
 40
0
 40
0
 40
0
 40
0.09814324257750123
 40
0.2545515576276616
 40
0.2545515576276616
 40
0.2545515576276616
 40
0.2545515576276616
 10
-3.629317473869929
 20
-1.978195620323921
 30
0
 10
-3.833920082914535
 20
-1.722841341703054
 30
0
 10
-4.364592510879834
 20
-1.060535637685791
 30
0
 10
-4.851927734947816
 20
-0.3655599683565969
 30
0
 10
-5.15136916037628
 20
0.06146540306004145
 30
0
  0
SPLINE
  5
15F
100
AcDbEntity
  8
text
  6
ByLayer
 62
  256
370
   -1
100
AcDbSpline
210
0
220
0
230
0
 70
    8
 71
    3
 72
    9
 73
    5
 74
    0
 42
1e-07
 43
1e-07
 40
0
 40
0
 40
0
 40
0
 40
0.09534812522917453
 40
0.1753539975483695
 40
0.1753539975483695
 40
0.1753539975483695
 40
0.1753539975483695
 10
-5.15136916037628
 20
0.06146540306004145
 30
0
 10
-5.335403617719798
 20
0.3206552415305142
 30
0
 10
-5.673859960770775
 20
0.7973292630749551
 30
0
 10
-6.034232057041411
 20
1.257634541541899
 30
0
 10
-6.198653081510361
 20
1.467650428557641
 30
0
  0
SPLINE
  5
160
100
AcDbEntity
  8
text
  6
ByLayer
 62
  256
370
   -1
100
AcDbSpline
210
0
220
0
230
0
 70
    8
 71
    3
 72
    9
 73
    5
 74
    0
 42
1e-07
 43
1e-07
 40
0
 40
0
 40
0
 40
0
 40
0.1141377158412508
 40
0.2193359209850619
 40
0.2193359209850619
 40
0.2193359209850619
 40
0.2193359209850619
 10
-6.198653081510361
 20
1.467650428557641
 30
0
 10
-6.435185579865159
 20
1.765699947220662
 30
0
 10
-6.889724844009057
 20
2.338455107014057
 30
0
 10
-7.366232143400229
 20
2.893057826357688
 30
0
 10
-7.594775249375507
 20
3.159057168283996
 30
0
  0
LINE
  5
161
100
AcDbEntity
  8
text
  6
ByLayer
 62
  256
370
   -1
100
AcDbLine
 10
-7.594775249375507
 20
3.159057168283997
 11
-7.52538605424105
 21
3.368215244642299
  0
SPLINE
  5
162
100
AcDbEntity
  8
text
  6
ByLayer
 62
  256
370
   -1
100
AcDbSpline
210
0
220
0
230
0
 70
    8
 71
    3
 72
    9
 73
    5
 74
    0
 42
1e-07
 43
1e-07
 40
0
 40
0
 40
0
 40
0
 40
0.03192010425401208
 40
0.05509670821212313
 40
0.05509670821212313
 40
0.05509670821212313
 40
0.05509670821212313
 10
-7.52538605424105
 20
3.368215244642299
 30
0
 10
-7.419135074913061
 20
3.362320087448225
 30
0
 10
-7.23573720256586
 20
3.35214456442356
 30
0
 10
-7.052087186538252
 20
3.3492889011892
 30
0
 10
-6.974834228485189
 20
3.348087657449454
 30
0
  0
SPLINE
  5
163
100
AcDbEntity
  8
text
  6
ByLayer
 62
  256
370
   -1
100
AcDbSpline
210
0
220
0
230
0
 70
    8
 71
    3
 72
    9
 73
    5
 74
    0
 42
1e-07
 43
1e-07
 40
0
 40
0
 40
0
 40
0
 40
0.1125004937690495
 40
0.2049926902093892
 40
0.2049926902093892
 40
0.2049926902093892
 40
0.2049926902093892
 10
-6.974834228485189
 20
3.348087657449454
 30
0
 10
-6.591141735712531
 20
3.362270485200933
 30
0
 10
-5.891996748241786
 20
3.388113714133958
 30
0
 10
-5.313399160064884
 20
3.775378143953345
 30
0
 10
-5.052337354734657
 20
3.95011089993905
 30
0
  0
SPLINE
  5
164
100
AcDbEntity
  8
text
  6
ByLayer
 62
  256
370
   -1
100
AcDbSpline
210
0
220
0
230
0
 70
    8
 71
    3
 72
    9
 73
    5
 74
    0
 42
1e-07
 43
1e-07
 40
0
 40
0
 40
0
 40
0
 40
0.08512083785827798
 40
0.1752963239081122
 40
0.1752963239081122
 40
0.1752963239081122
 40
0.1752963239081122
 10
-5.052337354734657
 20
3.95011089993905
 30
0
 10
-4.861638004184661
 20
4.170601551009385
 30
0
 10
-4.468915188430254
 20
4.624676035721214
 30
0
 10
-4.42309567796686
 20
5.224405989224756
 30
0
 10
-4.399525322727884
 20
5.532917536130748
 30
0
  0
SPLINE
  5
165
100
AcDbEntity
  8
text
  6
ByLayer
 62
  256
370
   -1
100
AcDbSpline
210
0
220
0
230
0
 70
    8
 71
    3
 72
    9
 73
    5
 74
    0
 42
1e-07
 43
1e-07
 40
0
 40
0
 40
0
 40
0
 40
0.07811441993811367
 40
0.1507794328461891
 40
0.1507794328461891
 40
0.1507794328461891
 40
0.1507794328461891
 10
-4.399525322727884
 20
5.532917536130748
 30
0
 10
-4.419830725217357
 20
5.80050589490662
 30
0
 10
-4.459024987601969
 20
6.317015151512932
 30
0
 10
-4.801065819038488
 20
6.704339432133648
 30
0
 10
-4.965905286612138
 20
6.89100231658438
 30
0
  0
SPLINE
  5
166
100
AcDbEntity
  8
text
  6
ByLayer
 62
  256
370
   -1
100
AcDbSpline
210
0
220
0
230
0
 70
    8
 71
    3
 72
    9
 73
    5
 74
    0
 42
1e-07
 43
1e-07
 40
0
 40
0
 40
0
 40
0
 40
0.08051911685594232
 40
0.1811518359632832
 40
0.1811518359632832
 40
0.1811518359632832
 40
0.1811518359632832
 10
-4.965905286612138
 20
6.89100231658438
 30
0
 10
-5.195824087131893
 20
7.038580991761778
 30
0
 10
-5.71309519569537
 20
7.370603361123385
 30
0
 10
-6.330797535470998
 20
7.387764718202257
 30
0
 10
-6.673940985936433
 20
7.397298124348737
 30
0
  0
SPLINE
  5
167
100
AcDbEntity
  8
text
  6
ByLayer
 62
  256
370
   -1
100
AcDbSpline
210
0
220
0
230
0
 70
    8
 71
    3
 72
    9
 73
    5
 74
    0
 42
1e-07
 43
1e-07
 40
0
 40
0
 40
0
 40
0
 40
0.07128508631092204
 40
0.1428302077663545
 40
0.1428302077663545
 40
0.1428302077663545
 40
0.1428302077663545
 10
-6.673940985936433
 20
7.397298124348737
 30
0
 10
-6.912232012150454
 20
7.387894507802928
 30
0
 10
-7.389683307286097
 20
7.369052972013312
 30
0
 10
-7.850481600771309
 20
7.242613779020117
 30
0
 10
-8.081300209729614
 20
7.179279085604122
 30
0
  0
SPLINE
  5
168
100
AcDbEntity
  8
text
  6
ByLayer
 62
  256
370
   -1
100
AcDbSpline
210
0
220
0
230
0
 70
    8
 71
    3
 72
    9
 73
    5
 74
    0
 42
1e-07
 43
1e-07
 40
0
 40
0
 40
0
 40
0
 40
0.03649274844494689
 40
0.07050954437458616
 40
0.07050954437458616
 40
0.07050954437458616
 40
0.07050954437458616
 10
-8.081300209729614
 20
7.179279085604122
 30
0
 10
-8.089749176211889
 20
7.057925511656862
 30
0
 10
-8.106073865430643
 20
6.823451936169467
 30
0
 10
-8.116895323367617
 20
6.588660766289554
 30
0
 10
-8.122116053831387
 20
6.475387543738917
 30
0
  0
SPLINE
  5
169
100
AcDbEntity
  8
text
  6
ByLayer
 62
  256
370
   -1
100
AcDbSpline
210
0
220
0
230
0
 70
    8
 71
    3
 72
    9
 73
    5
 74
    0
 42
1e-07
 43
1e-07
 40
0
 40
0
 40
0
 40
0
 40
0.05559700497134201
 40
0.2028467220379852
 40
0.2028467220379852
 40
0.2028467220379852
 40
0.2028467220379852
 10
-8.122116053831387
 20
6.475387543738917
 30
0
 10
-8.12722541945373
 20
6.290134166963264
 30
0
 10
-8.145867036366727
 20
5.61423372511789
 30
0
 10
-8.158707148988062
 20
4.938194435760668
 30
0
 10
-8.168027994459939
 20
4.447446579035903
 30
0
  0
LINE
  5
16A
100
AcDbEntity
  8
text
  6
ByLayer
 62
  256
370
   -1
100
AcDbLine
 10
-8.168027994459939
 20
4.447446579035902
 11
-8.163651386472228
 21
1.353373160175373
  0
SPLINE
  5
16B
100
AcDbEntity
  8
text
  6
ByLayer
 62
  256
370
   -1
100
AcDbSpline
210
0
220
0
230
0
 70
    8
 71
    3
 72
    9
 73
    5
 74
    0
 42
1e-07
 43
1e-07
 40
0
 40
0
 40
0
 40
0
 40
0.09355661553743522
 40
0.1846955909215455
 40
0.1846955909215455
 40
0.1846955909215455
 40
0.1846955909215455
 10
-8.163651386472228
 20
1.353373160175373
 30
0
 10
-8.162110573127075
 20
1.041509706107546
 30
0
 10
-8.159068763313311
 20
0.4258418069962966
 30
0
 10
-8.141724398029941
 20
-0.1895885260081576
 30
0
 10
-8.133165733079002
 20
-0.4932757428521928
 30
0
  0
SPLINE
  5
16C
100
AcDbEntity
  8
text
  6
ByLayer
 62
  256
370
   -1
100
AcDbSpline
210
0
220
0
230
0
 70
    8
 71
    3
 72
    9
 73
    5
 74
    0
 42
1e-07
 43
1e-07
 40
0
 40
0
 40
0
 40
0
 40
0.05287043906076169
 40
0.07953521390778859
 40
0.07953521390778859
 40
0.07953521390778859
 40
0.07953521390778859
 10
-8.133165733079002
 20
-0.4932757428521928
 30
0
 10
-8.133156667746491
 20
-0.6706942099872482
 30
0
 10
-8.133143030387435
 20
-0.937592234392941
 30
0
 10
-8.064478097878904
 20
-1.194479476337822
 30
0
 10
-8.041457666107021
 20
-1.280602843975651
 30
0
  0
SPLINE
  5
16D
100
AcDbEntity
  8
text
  6
ByLayer
 62
  256
370
   -1
100
AcDbSpline
210
0
220
0
230
0
 70
    8
 71
    3
 72
    9
 73
    5
 74
    0
 42
1e-07
 43
1e-07
 40
0
 40
0
 40
0
 40
0
 40
0.01539909712047934
 40
0.03292920720413228
 40
0.03292920720413228
 40
0.03292920720413228
 40
0.03292920720413228
 10
-8.041457666107021
 20
-1.280602843975651
 30
0
 10
-8.007713457362016
 20
-1.320327334245999
 30
0
 10
-7.935555328024302
 20
-1.405273611352786
 30
0
 10
-7.831682510126106
 20
-1.44645750916224
 30
0
 10
-7.77638503754603
 20
-1.468382065614451
 30
0
  0
SPLINE
  5
16E
100
AcDbEntity
  8
text
  6
ByLayer
 62
  256
370
   -1
100
AcDbSpline
210
0
220
0
230
0
 70
    8
 71
    3
 72
    9
 73
    5
 74
    0
 42
1e-07
 43
1e-07
 40
0
 40
0
 40
0
 40
0
 40
0.03444542996803251
 40
0.1006925076899966
 40
0.1006925076899966
 40
0.1006925076899966
 40
0.1006925076899966
 10
-7.77638503754603
 20
-1.468382065614451
 30
0
 10
-7.662697361020179
 20
-1.485179392180829
 30
0
 10
-7.330360175696597
 20
-1.534282130512894
 30
0
 10
-6.994059735735769
 20
-1.535709585591545
 30
0
 10
-6.772802743580941
 20
-1.536648729225059
 30
0
  0
LINE
  5
16F
100
AcDbEntity
  8
text
  6
ByLayer
 62
  256
370
   -1
100
AcDbLine
 10
-6.772802743580941
 20
-1.536648729225059
 11
-6.772171881259448
 21
-1.982641229668465
  0
SPLINE
  5
170
100
AcDbEntity
  8
text
  6
ByLayer
 62
  256
370
   -1
100
AcDbSpline
210
0
220
0
230
0
 70
    8
 71
    3
 72
    9
 73
    5
 74
    0
 42
1e-07
 43
1e-07
 40
0
 40
0
 40
0
 40
0
 40
0.0950398313825299
 40
0.1819846167528055
 40
0.1819846167528055
 40
0.1819846167528055
 40
0.1819846167528055
 10
-6.772171881259448
 20
-1.982641229668465
 30
0
 10
-7.08861780619527
 20
-1.966838511535762
 30
0
 10
-7.694556279935192
 20
-1.936579076505223
 30
0
 10
-8.301222812222457
 20
-1.931764710228547
 30
0
 10
-8.591063197537512
 20
-1.929464603493765
 30
0
  0
SPLINE
  5
171
100
AcDbEntity
  8
text
  6
ByLayer
 62
  256
370
   -1
100
AcDbSpline
210
0
220
0
230
0
 70
    8
 71
    3
 72
    9
 73
    5
 74
    0
 42
1e-07
 43
1e-07
 40
0
 40
0
 40
0
 40
0
 40
0.08973202831459699
 40
0.2251625489558635
 40
0.2251625489558635
 40
0.2251625489558635
 40
0.2251625489558635
 10
-8.591063197537512
 20
-1.929464603493765
 30
0
 10
-8.890149516142376
 20
-1.933619377009799
 30
0
 10
-9.640640050233422
 20
-1.944044856214662
 30
0
 10
-10.39070531866205
 20
-1.971739877834366
 30
0
 10
-10.84185374582848
 20
-1.988397848773675
 30
0
  0
LINE
  5
172
100
AcDbEntity
  8
text
  6
ByLayer
 62
  256
370
   -1
100
AcDbLine
 10
-10.84185374582847
 20
-1.988397848773675
 11
-10.84248460814997
 21
-1.542405348330265
  0
SPLINE
  5
173
100
AcDbEntity
  8
text
  6
ByLayer
 62
  256
370
   -1
100
AcDbSpline
210
0
220
0
230
0
 70
    8
 71
    3
 72
    9
 73
    5
 74
    0
 42
1e-07
 43
1e-07
 40
0
 40
0
 40
0
 40
0
 40
0.0662470777219641
 40
0.1006925076899966
 40
0.1006925076899966
 40
0.1006925076899966
 40
0.1006925076899966
 10
-10.84248460814997
 20
-1.542405348330265
 30
0
 10
-10.62123115825353
 20
-1.54084026779314
 30
0
 10
-10.28493610236234
 20
-1.538461417443227
 30
0
 10
-9.952739159622848
 20
-1.48841868675182
 30
0
 10
-9.839099458028011
 20
-1.471299802586699
 30
0
  0
SPLINE
  5
174
100
AcDbEntity
  8
text
  6
ByLayer
 62
  256
370
   -1
100
AcDbSpline
210
0
220
0
230
0
 70
    8
 71
    3
 72
    9
 73
    5
 74
    0
 42
1e-07
 43
1e-07
 40
0
 40
0
 40
0
 40
0
 40
0.01698769200787527
 40
0.03054073369978306
 40
0.03054073369978306
 40
0.03054073369978306
 40
0.03054073369978306
 10
-9.839099458028011
 20
-1.471299802586699
 30
0
 10
-9.785148512165556
 20
-1.450981000128309
 30
0
 10
-9.688154672762694
 20
-1.414451544879616
 30
0
 10
-9.619106545184364
 20
-1.337739372038955
 30
0
 10
-9.588465102152366
 20
-1.303696860585024
 30
0
  0
SPLINE
  5
175
100
AcDbEntity
  8
text
  6
ByLayer
 62
  256
370
   -1
100
AcDbSpline
210
0
220
0
230
0
 70
    8
 71
    3
 72
    9
 73
    5
 74
    0
 42
1e-07
 43
1e-07
 40
0
 40
0
 40
0
 40
0
 40
0.02481575237742474
 40
0.06869676389518879
 40
0.06869676389518879
 40
0.06869676389518879
 40
0.06869676389518879
 10
-9.588465102152366
 20
-1.303696860585024
 30
0
 10
-9.563083739594296
 20
-1.224621480372461
 30
0
 10
-9.492821212612572
 20
-1.005719283019531
 30
0
 10
-9.487982373949118
 20
-0.7749802411033224
 30
0
 10
-9.484891498584922
 20
-0.6275924751909301
 30
0
  0
SPLINE
  5
176
100
AcDbEntity
  8
text
  6
ByLayer
 62
  256
370
   -1
100
AcDbSpline
210
0
220
0
230
0
 70
    8
 71
    3
 72
    9
 73
    5
 74
    0
 42
1e-07
 43
1e-07
 40
0
 40
0
 40
0
 40
0
 40
0.0568040861725984
 40
0.1979298462373594
 40
0.1979298462373594
 40
0.1979298462373594
 40
0.1979298462373594
 10
-9.484891498584922
 20
-0.6275924751909301
 30
0
 10
-9.481509695683386
 20
-0.4382751527001894
 30
0
 10
-9.469726041136584
 20
0.2213877528310082
 30
0
 10
-9.463941729570866
 20
0.8811344142704503
 30
0
 10
-9.459817463414542
 20
1.351539716026577
 30
0
  0
SPLINE
  5
177
100
AcDbEntity
  8
text
  6
ByLayer
 62
  256
370
   -1
100
AcDbSpline
210
0
220
0
230
0
 70
    8
 71
    3
 72
    9
 73
    5
 74
    0
 42
1e-07
 43
1e-07
 40
0
 40
0
 40
0
 40
0
 40
0.09372970129756301
 40
0.1853807239060589
 40
0.1853807239060589
 40
0.1853807239060589
 40
0.1853807239060589
 10
-9.464381358390472
 20
4.578016972191921
 30
0
 10
-9.465654595362754
 20
4.89045329464318
 30
0
 10
-9.468172832254123
 20
5.508396922209902
 30
0
 10
-9.481378904452811
 20
6.126204206887742
 30
0
 10
-9.487907900543391
 20
6.431644104966874
 30
0
  0
LINE
  5
178
100
AcDbEntity
  8
colmns details
  6
ByLayer
 62
  256
370
   -1
100
AcDbLine
 10
48.25415495400922
 20
-18.5
 11
48.25415495400919
 21
24.5
  0
LINE
  5
179
100
AcDbEntity
  8
colmns details
  6
ByLayer
 62
  256
370
   -1
100
AcDbLine
 10
50.01631257100934
 20
-18.5
 11
50.01631257100936
 21
27.5
  0
LWPOLYLINE
  5
17A
100
AcDbEntity
  8
colmns details
  6
ByLayer
 62
  256
370
   -1
100
AcDbPolyline
 90
    4
 70
    1
 43
0
 10
51.57737561218374
 20
-18.5
 10
54.14571077742765
 20
-18.5
 10
54.14571077742765
 20
27.5
 10
51.57737561218374
 20
27.5
  0
LWPOLYLINE
  5
17B
100
AcDbEntity
  8
colmns details
  6
ByLayer
 62
  256
370
   -1
100
AcDbPolyline
 90
    4
 70
    1
 43
0
 10
55.99405129048948
 20
-18.5
 10
58.55313573600128
 20
-18.5
 10
58.55313573600128
 20
27.5
 10
55.99405129048948
 20
27.5
  0
LWPOLYLINE
  5
17C
100
AcDbEntity
  8
colmns details
  6
ByLayer
 62
  256
370
   -1
100
AcDbPolyline
 90
    4
 70
    1
 43
0
 10
60.10191866780342
 20
-18.5
 10
61.83926116375979
 20
-18.5
 10
61.83926116375979
 20
27.5
 10
60.10191866780342
 20
27.5
  0
LINE
  5
17D
100
AcDbEntity
  8
colmns details
  6
ByLayer
 62
  256
370
   -1
100
AcDbLine
 10
-60.1019186678034
 20
-18.5
 11
-60.10191866780342
 21
27.5
  0
LWPOLYLINE
  5
17E
100
AcDbEntity
  8
colmns details
  6
ByLayer
 62
  256
370
   -1
100
AcDbPolyline
 90
    4
 70
    1
 43
0
 10
-58.55313573600129
 20
-18.5
 10
-55.99405129048948
 20
-18.5
 10
-55.99405129048947
 20
27.5
 10
-58.55313573600129
 20
27.5
  0
LWPOLYLINE
  5
17F
100
AcDbEntity
  8
colmns details
  6
ByLayer
 62
  256
370
   -1
100
AcDbPolyline
 90
    4
 70
    1
 43
0
 10
-54.14571077742765
 20
-18.5
 10
-51.57737561218375
 20
-18.5
 10
-51.57737561218374
 20
27.5
 10
-54.14571077742765
 20
27.5
  0
LWPOLYLINE
  5
180
100
AcDbEntity
  8
colmns details
  6
ByLayer
 62
  256
370
   -1
100
AcDbPolyline
 90
    6
 70
    1
 43
0
 10
-50.01631257100935
 20
-18.5
 10
-48.25415495400918
 20
-18.5
 10
-48.25415495400917
 20
24.5
 10
-48.84893443296468
 20
24.5
 10
-48.84893443296468
 20
27.5
 10
-50.01631257100935
 20
27.5
  0
LINE
  5
181
100
AcDbEntity
  8
colmns details
  6
ByLayer
 62
  256
370
   -1
100
AcDbLine
 10
51.57737561218374
 20
-18.5
 11
51.57737561218374
 21
27.5
  0
LINE
  5
182
100
AcDbEntity
  8
colmns details
  6
ByLayer
 62
  256
370
   -1
100
AcDbLine
 10
55.99405129048948
 20
-18.5
 11
55.99405129048948
 21
27.5
  0
LINE
  5
183
100
AcDbEntity
  8
colmns details
  6
ByLayer
 62
  256
370
   -1
100
AcDbLine
 10
-58.55313573600129
 20
-18.5
 11
-58.55313573600129
 21
27.5
  0
LINE
  5
184
100
AcDbEntity
  8
colmns details
  6
ByLayer
 62
  256
370
   -1
100
AcDbLine
 10
-54.14571077742765
 20
-18.5
 11
-54.14571077742765
 21
27.5
  0
LINE
  5
185
100
AcDbEntity
  8
colmns details
  6
ByLayer
 62
  256
370
   -1
100
AcDbLine
 10
-51.57737561218375
 20
-18.5
 11
-51.57737561218374
 21
27.5
  0
LINE
  5
186
100
AcDbEntity
  8
colmns details
  6
ByLayer
 62
  256
370
   -1
100
AcDbLine
 10
0
 20
27.5
 11
0
 21
-22.5
  0
LINE
  5
187
100
AcDbEntity
  8
columns
  6
ByLayer
 62
  256
370
   -1
100
AcDbLine
 10
-44.30639736498699
 20
-22.5
 11
-65.73641278524205
 21
-22.5
  0
LINE
  5
188
100
AcDbEntity
  8
columns
  6
ByLayer
 62
  256
370
   -1
100
AcDbLine
 10
-44.30639736498699
 20
-19.5
 11
-65.73641278524205
 21
-19.5
  0
LINE
  5
189
100
AcDbEntity
  8
columns
  6
ByLayer
 62
  256
370
   -1
100
AcDbLine
 10
-64.73641278524205
 20
-18.5
 11
-45.306397364987
 21
-18.5
  0
LINE
  5
18A
100
AcDbEntity
  8
columns
  6
ByLayer
 62
  256
370
   -1
100
AcDbLine
 10
65.73641278524205
 20
-19.5
 11
44.30639736498699
 21
-19.5
  0
LINE
  5
18B
100
AcDbEntity
  8
columns
  6
ByLayer
 62
  256
370
   -1
100
AcDbLine
 10
44.30639736498699
 20
-19.5
 11
44.30639736498699
 21
-22.5
  0
LINE
  5
18C
100
AcDbEntity
  8
columns
  6
ByLayer
 62
  256
370
   -1
100
AcDbLine
 10
65.73641278524205
 20
-22.5
 11
44.30639736498699
 21
-22.5
  0
LINE
  5
18D
100
AcDbEntity
  8
columns
  6
ByLayer
 62
  256
370
   -1
100
AcDbLine
 10
45.30639736498699
 20
-18.5
 11
64.73641278524205
 21
-18.5
  0
LINE
  5
18E
100
AcDbEntity
  8
columns
  6
ByLayer
 62
  256
370
   -1
100
AcDbLine
 10
-45.25677541398309
 20
27.5
 11
-45.25677541398309
 21
30.50000000000001
  0
LINE
  5
18F
100
AcDbEntity
  8
columns
  6
ByLayer
 62
  256
370
   -1
100
AcDbLine
 10
-45.54451791592072
 20
27.5
 11
-65.73641278524205
 21
27.5
  0
LINE
  5
190
100
AcDbEntity
  8
columns
  6
ByLayer
 62
  256
370
   -1
100
AcDbLine
 10
45.25677541398309
 20
30.50000000000001
 11
45.25677541398309
 21
27.5
  0
LINE
  5
191
100
AcDbEntity
  8
columns
  6
ByLayer
 62
  256
370
   -1
100
AcDbLine
 10
65.73641278524205
 20
27.5
 11
45.54451791592072
 21
27.5
  0
LINE
  5
192
100
AcDbEntity
  8
columns
  6
ByLayer
 62
  256
370
   -1
100
AcDbLine
 10
50.60967097058775
 20
27.5
 11
60.02140507511452
 21
27.5
  0
LINE
  5
193
100
AcDbEntity
  8
columns
  6
ByLayer
 62
  256
370
   -1
100
AcDbLine
 10
-65.73641278524205
 20
-22.5
 11
-65.73641278524205
 21
-19.5
  0
LINE
  5
194
100
AcDbEntity
  8
columns
  6
ByLayer
 62
  256
370
   -1
100
AcDbLine
 10
-65.73641278524205
 20
27.5
 11
-65.73641278524205
 21
30.50000000000001
  0
LINE
  5
195
100
AcDbEntity
  8
columns
  6
ByLayer
 62
  256
370
   -1
100
AcDbLine
 10
65.73641278524205
 20
-22.5
 11
65.73641278524205
 21
-19.5
  0
LINE
  5
196
100
AcDbEntity
  8
columns
  6
ByLayer
 62
  256
370
   -1
100
AcDbLine
 10
65.73641278524205
 20
27.5
 11
65.73641278524205
 21
30.50000000000001
  0
LINE
  5
197
100
AcDbEntity
  8
columns
  6
ByLayer
 62
  256
370
   -1
100
AcDbLine
 10
65.73641278524205
 20
-19.5
 11
50.60967097058775
 21
-19.5
  0
LINE
  5
198
100
AcDbEntity
  8
columns
  6
ByLayer
 62
  256
370
   -1
100
AcDbLine
 10
-61.83926116375978
 20
-18.49999999999994
 11
-61.83926116375974
 21
27.50000000000006
  0
LINE
  5
199
100
AcDbEntity
  8
columns
  6
ByLayer
 62
  256
370
   -1
100
AcDbLine
 10
61.83926116375979
 20
-18.5
 11
61.83926116375978
 21
27.49999999999999
  0
LINE
  5
19A
100
AcDbEntity
  8
columns
  6
ByLayer
 62
  256
370
   -1
100
AcDbLine
 10
65.73641278524205
 20
-22.5
 11
44.30639736498699
 21
-22.5
  0
LINE
  5
19B
100
AcDbEntity
  8
columns
  6
ByLayer
 62
  256
370
   -1
100
AcDbLine
 10
-60.02140507511452
 20
27.5
 11
-50.60967097058775
 21
27.5
  0
LWPOLYLINE
  5
19C
100
AcDbEntity
  8
bathtub
  6
ByLayer
 62
  256
370
   -1
100
AcDbPolyline
 90
   10
 70
    1
 43
0
 10
44.30639736498699
 20
-19.5
 10
44.30639736498699
 20
-22.5
 10
-44.30639736498699
 20
-22.5
 10
-44.30639736498699
 20
-19.5
 42
0.4142135623730951
 10
-45.30639736498699
 20
-18.5
 10
-47.0778923868763
 20
-18.5
 10
-47.0778923868763
 20
22.5
 10
47.0778923868763
 20
22.5
 10
47.0778923868763
 20
-18.5
 10
45.30639736498699
 20
-18.5
 42
0.4142135623730951
  0
LINE
  5
19D
100
AcDbEntity
  8
bathtub
  6
ByLayer
 62
  256
370
   -1
100
AcDbLine
 10
48.84893443296468
 20
24.5
 11
-48.84893443296468
 21
24.5
  0
LWPOLYLINE
  5
19E
100
AcDbEntity
  8
bathtub
  6
ByLayer
 62
  256
370
   -1
100
AcDbPolyline
 90
    6
 70
    1
 43
0
 10
48.84893443296468
 20
27.5
 10
48.84893443296468
 20
24.5
 10
-48.84893443296468
 20
24.5
 10
-48.84893443296468
 20
27.5
 10
-45.54451791592072
 20
27.5
 10
45.54451791592072
 20
27.5
  0
LWPOLYLINE
  5
19F
100
AcDbEntity
  8
bathtub
  6
ByLayer
 62
  256
370
   -1
100
AcDbPolyline
 90
    4
 70
    1
 43
0
 10
48.69929408695148
 20
24.49999999999999
 10
48.69929408695148
 20
22.5
 10
-48.69929408695144
 20
22.5
 10
-48.69929408695144
 20
24.49999999999999
  0
LINE
  5
1A0
100
AcDbEntity
  8
bathtub
  6
ByLayer
 62
  256
370
   -1
100
AcDbLine
 10
-45.54451791592072
 20
27.5
 11
-44.30639736498699
 21
27.5
  0
LINE
  5
1A1
100
AcDbEntity
  8
bathtub
  6
ByLayer
 62
  256
370
   -1
100
AcDbLine
 10
44.30639736498699
 20
27.5
 11
45.54451791592072
 21
27.5
  0
LINE
  5
1A2
100
AcDbEntity
  8
columns
  6
ByLayer
 62
  256
370
   -1
100
AcDbLine
 10
45.25677541398309
 20
30.50000000000001
 11
65.73641278524205
 21
30.50000000000001
  0
LINE
  5
1A3
100
AcDbEntity
  8
text
  6
ByLayer
 62
  256
370
   -1
100
AcDbLine
 10
-65.73641278524205
 20
30.50000000000001
 11
-45.25677541398309
 21
30.50000000000001
  0
ENDSEC
  0
SECTION
  2
OBJECTS
  0
DICTIONARY
  5
C
330
0
100
AcDbDictionary
281
    1
  3
ACAD_GROUP
350
D
  0
DICTIONARY
  5
D
330
C
100
AcDbDictionary
281
    1
  0
ENDSEC
  0
EOF
